<svg width="161" height="151" viewBox="0 0 161 151" fill="none" xmlns="http://www.w3.org/2000/svg">
<path d="M79.2305 0.855225C81.293 1.29272 81.293 1.29272 83.2305 1.85522C83.5605 3.17522 83.8905 4.49522 84.2305 5.85522C83.5705 5.85522 82.9105 5.85522 82.2305 5.85522C82.2305 6.51522 82.2305 7.17522 82.2305 7.85522C81.2405 7.85522 80.2505 7.85522 79.2305 7.85522C78.8491 5.86382 78.5172 3.86243 78.2305 1.85522C78.5605 1.52522 78.8905 1.19522 79.2305 0.855225Z" fill="#358D0D"/>
<path d="M83.2303 0.855141C92.058 7.63887 98.4893 20.7637 100.73 31.5426C100.949 33.3078 101.115 35.0803 101.23 36.8551C101.333 38.3749 101.333 38.3749 101.437 39.9255C101.892 53.8935 98.3587 65.9792 91.2303 77.8551C90.7413 78.3721 90.2523 78.8891 89.7484 79.4217C83.9795 85.6939 84.3833 92.2492 84.4608 100.382C84.4521 101.781 84.4406 103.18 84.4265 104.578C84.3962 108.236 84.4005 111.893 84.4131 115.551C84.4226 120.014 84.3941 124.477 84.368 128.94C84.348 132.408 84.3348 135.874 84.3422 139.342C84.3416 140.577 84.341 141.813 84.3405 143.085C84.343 144.178 84.3456 145.271 84.3482 146.397C84.2303 148.855 84.2303 148.855 83.2303 149.855C80.2928 150.105 80.2928 150.105 77.2303 149.855C74.8984 146.357 74.9971 145.033 75.0385 140.906C75.0444 139.68 75.0504 138.455 75.0565 137.192C75.0637 136.537 75.0708 135.882 75.0782 135.207C75.0977 133.145 75.0999 131.084 75.0963 129.022C75.0867 123.16 75.0858 117.299 75.1512 111.437C75.19 107.847 75.1892 104.259 75.1637 100.669C75.1601 98.6561 75.1985 96.6428 75.2379 94.6298C75.152 86.3399 73.6379 81.6425 68.2284 75.2983C58.5656 63.4832 58.3454 48.3128 59.2303 33.8551C60.7478 21.4538 67.1229 9.40988 76.2303 0.855141C78.9842 -0.521787 80.3137 -0.0211489 83.2303 0.855141ZM79.2303 11.8551C69.8642 22.934 67.4452 35.6128 68.038 49.6574C68.664 56.8086 71.131 63.959 75.2303 69.8551C75.8903 69.8551 76.5503 69.8551 77.2303 69.8551C78.2203 62.9251 79.2103 55.9951 80.2303 48.8551C81.2203 56.1151 82.2103 63.3751 83.2303 70.8551C90.2247 63.8608 92.2838 53.8458 92.6053 44.2301C92.3879 32.2678 88.94 21.1599 81.2303 11.8551C80.5703 11.8551 79.9103 11.8551 79.2303 11.8551Z" fill="#378614"/>
<path d="M5.41797 38.5427C21.8195 39.1042 37.3552 45.0128 49.1289 56.5896C65.1553 73.8671 68.4647 91.7474 68.543 114.605C68.5468 115.326 68.5507 116.048 68.5547 116.791C68.5601 118.87 68.5491 120.948 68.5312 123.027C68.5226 124.245 68.514 125.463 68.5051 126.718C68.2461 129.677 67.7837 131.365 66.2305 133.855C64.2309 133.898 62.2301 133.896 60.2305 133.855C58.4909 132.116 58.8586 129.662 58.668 127.293C58.5842 126.281 58.5004 125.269 58.4141 124.226C58.3232 123.053 58.3232 123.053 58.2305 121.855C57.5996 121.654 56.9686 121.452 56.3186 121.244C53.4742 120.331 50.6336 119.406 47.793 118.48C46.7997 118.163 45.8065 117.846 44.7832 117.519C43.3668 117.055 43.3668 117.055 41.9219 116.582C41.0473 116.299 40.1728 116.016 39.2717 115.725C37.2305 114.855 37.2305 114.855 36.2305 112.855C43.8205 112.855 51.4105 112.855 59.2305 112.855C58.9005 110.875 58.5705 108.895 58.2305 106.855C57.671 106.841 57.1116 106.827 56.5352 106.812C41.1004 105.894 26.9979 98.6372 16.4297 87.4998C6.7563 75.8676 0.124032 63.0536 0.0429688 47.6677C0.0287891 46.4367 0.0146094 45.2056 0 43.9373C0.322423 39.6255 1.13572 38.9626 5.41797 38.5427ZM9.23047 48.8552C10.5373 63.4174 16.9241 75.716 27.6401 85.533C34.7761 91.4661 43.0108 95.5836 52.2305 96.8552C49.4425 91.9157 45.9382 87.7965 42.2891 83.4763C40.5751 81.294 39.3306 79.3827 38.2305 76.8552C40.5032 78.6236 42.7737 80.3948 45.043 82.1677C45.6856 82.6672 46.3282 83.1667 46.9902 83.6814C47.6122 84.168 48.2342 84.6546 48.875 85.156C49.4458 85.6011 50.0166 86.0463 50.6047 86.5049C52.2305 87.8552 52.2305 87.8552 53.8152 89.5239C55.1494 91.0836 55.1494 91.0836 57.2305 90.8552C54.9874 77.1722 47.4009 66.3031 36.5625 57.7498C28.4808 52.2803 19.1659 47.952 9.23047 48.8552Z" fill="#368813"/>
<path d="M158.91 40.1404C161.34 43.2961 160.606 47.0962 160.23 50.8552C157.912 68.0209 149.793 83.1633 136.418 94.2654C126.216 101.68 114.587 105.818 102.23 107.855C101.9 109.505 101.57 111.155 101.23 112.855C108.49 112.855 115.75 112.855 123.23 112.855C123.23 113.515 123.23 114.175 123.23 114.855C120.129 115.862 117.024 116.86 113.918 117.855C113.037 118.141 112.156 118.428 111.248 118.722C110.401 118.993 109.553 119.264 108.68 119.543C107.899 119.794 107.119 120.045 106.315 120.304C104.23 120.855 104.23 120.855 101.23 120.855C101.254 121.626 101.277 122.397 101.301 123.191C101.319 124.194 101.337 125.197 101.355 126.23C101.379 127.228 101.402 128.226 101.426 129.254C101.23 131.855 101.23 131.855 99.2305 133.855C96.7305 134.105 96.7305 134.105 94.2305 133.855C91.7511 131.376 91.975 129.911 91.9269 126.525C91.9279 125.795 91.9288 125.064 91.9297 124.312C91.9254 123.552 91.9211 122.791 91.9167 122.007C91.911 120.387 91.9105 118.767 91.9148 117.147C91.9179 114.722 91.8947 112.298 91.8692 109.873C91.7882 90.6373 94.9768 73.4216 108.93 59.0935C109.689 58.3548 110.448 57.6162 111.23 56.8552C111.918 56.1475 112.605 55.4398 113.313 54.7107C121.182 47.075 147.538 31.4393 158.91 40.1404ZM114.113 66.5661C107.884 74.1395 104.206 82.2981 102.23 91.8552C109.288 86.5964 116.261 81.2307 123.23 75.8552C121.67 77.8981 120.107 79.9395 118.543 81.9802C118.108 82.55 117.673 83.1197 117.225 83.7068C115.014 86.5885 112.77 89.4082 110.398 92.1599C108.022 94.5384 108.022 94.5384 108.23 96.8552C121.868 94.2326 132.927 87.0667 141.043 75.8552C142.127 74.2026 143.192 72.5368 144.23 70.8552C144.631 70.221 145.032 69.5868 145.445 68.9333C148.947 62.7494 149.948 55.7702 151.23 48.8552C136.651 48.2439 123.892 56.3126 114.113 66.5661Z" fill="#368813"/>
<path d="M93.2304 88.8552C93.5604 88.8552 93.8904 88.8552 94.2304 88.8552C94.3982 94.336 94.5587 99.8169 94.7126 105.298C94.7659 107.162 94.8212 109.027 94.8786 110.891C94.9607 113.572 95.0357 116.252 95.1093 118.933C95.1498 120.182 95.1498 120.182 95.1912 121.456C95.2113 122.236 95.2314 123.017 95.2521 123.821C95.2721 124.505 95.2921 125.189 95.3127 125.894C95.2244 127.998 94.8069 129.834 94.2304 131.855C97.2004 131.36 97.2004 131.36 100.23 130.855C100.045 130.133 99.8591 129.411 99.6679 128.668C99.2104 125.727 99.4952 123.714 100.23 120.855C100.56 120.855 100.89 120.855 101.23 120.855C101.284 122.647 101.323 124.438 101.355 126.23C101.379 127.228 101.402 128.226 101.426 129.254C101.23 131.855 101.23 131.855 99.2304 133.855C96.7304 134.105 96.7304 134.105 94.2304 133.855C91.7047 131.329 91.9933 129.764 91.9781 126.319C91.9853 125.564 91.9925 124.809 91.9999 124.031C92.0004 123.251 92.0008 122.472 92.0013 121.669C92.0043 120.015 92.0122 118.361 92.0246 116.708C92.0427 114.195 92.0451 111.683 92.0448 109.17C92.0498 107.561 92.0556 105.952 92.0624 104.344C92.0635 103.598 92.0646 102.853 92.0658 102.086C92.1061 97.5819 92.4976 93.3005 93.2304 88.8552Z" fill="#3D7D21"/>
<path d="M36.2305 112.855C43.1605 112.855 50.0905 112.855 57.2305 112.855C56.9005 114.505 56.5705 116.155 56.2305 117.855C57.5505 118.515 58.8705 119.175 60.2305 119.855C60.2305 120.515 60.2305 121.175 60.2305 121.855C57.9245 121.168 55.6197 120.477 53.3164 119.781C51.1167 119.121 48.9131 118.474 46.707 117.836C45.5391 117.492 44.3713 117.147 43.168 116.793C42.0632 116.472 40.9585 116.151 39.8203 115.82C37.2305 114.855 37.2305 114.855 36.2305 112.855Z" fill="#398019"/>
<path d="M5.05078 40.6599C6.14133 40.6831 7.23187 40.7063 8.35547 40.7302C9.45117 40.7483 10.5469 40.7663 11.6758 40.7849C12.5188 40.8081 13.3619 40.8313 14.2305 40.8552C14.5605 41.8452 14.8905 42.8352 15.2305 43.8552C14.0858 43.8243 14.0858 43.8243 12.918 43.7927C10.1286 43.7258 10.1286 43.7258 7.23047 44.8552C6.24047 46.1237 6.24047 46.1237 5.23047 47.4177C4.57047 48.2221 3.91047 49.0265 3.23047 49.8552C2.24047 49.8552 1.25047 49.8552 0.230469 49.8552C0.105469 46.4802 0.105469 46.4802 0.230469 42.8552C2.23047 40.8552 2.23047 40.8552 5.05078 40.6599Z" fill="#358B0E"/>
<path d="M36.2305 75.8552C40.7712 77.3211 43.9931 79.9005 47.543 82.9802C48.3676 83.6821 48.3676 83.6821 49.209 84.3982C50.5544 85.5447 51.8931 86.6992 53.2305 87.8552C52.2405 87.8552 51.2505 87.8552 50.2305 87.8552C48.8907 88.1615 47.5553 88.4897 46.2305 88.8552C44.5608 86.8785 42.8947 84.899 41.2305 82.9177C40.7535 82.3538 40.2766 81.7898 39.7852 81.2087C36.2305 76.9685 36.2305 76.9685 36.2305 75.8552Z" fill="#337416"/>
<path d="M123.23 75.8552C121.667 79.3776 119.536 82.1265 117.105 85.1052C116.381 85.9973 115.657 86.8893 114.91 87.8083C114.356 88.4838 113.802 89.1593 113.23 89.8552C112.9 89.1952 112.57 88.5352 112.23 87.8552C110.206 87.2031 110.206 87.2031 108.23 86.8552C110.351 85.0159 112.476 83.1837 114.605 81.3552C115.209 80.8306 115.812 80.3059 116.434 79.7654C121.004 75.8552 121.004 75.8552 123.23 75.8552Z" fill="#347915"/>
<path d="M123.23 112.855C123.23 113.515 123.23 114.175 123.23 114.855C121.338 115.531 119.441 116.196 117.543 116.855C115.959 117.412 115.959 117.412 114.344 117.98C111.447 118.794 109.213 119.032 106.23 118.855C106.949 116.898 106.949 116.898 108.23 114.855C110.324 114.281 110.324 114.281 112.73 114.168C116.525 113.952 119.425 112.855 123.23 112.855Z" fill="#34870F"/>
<path d="M113.23 87.8551C111.981 91.5083 111.559 92.6358 108.23 94.8551C108.23 94.1951 108.23 93.5351 108.23 92.8551C107.24 93.1851 106.25 93.5151 105.23 93.8551C105.23 93.1951 105.23 92.5351 105.23 91.8551C104.57 91.5251 103.91 91.1951 103.23 90.8551C106.364 87.2513 108.638 86.3242 113.23 87.8551Z" fill="#348510"/>
<path d="M16.2305 85.8552C18.168 86.2302 18.168 86.2302 20.2305 86.8552C20.5605 87.5152 20.8905 88.1752 21.2305 88.8552C22.8805 88.8552 24.5305 88.8552 26.2305 88.8552C26.2305 90.1752 26.2305 91.4952 26.2305 92.8552C27.5505 93.5152 28.8705 94.1752 30.2305 94.8552C29.9005 95.5152 29.5705 96.1752 29.2305 96.8552C26.0476 95.4247 23.6513 93.6651 21.043 91.3552C20.0008 90.4426 20.0008 90.4426 18.9375 89.5115C17.2305 87.8552 17.2305 87.8552 16.2305 85.8552Z" fill="#3A7E1C"/>
<path d="M79.2305 47.8552C79.8905 48.1852 80.5505 48.5152 81.2305 48.8552C81.2305 51.4952 81.2305 54.1352 81.2305 56.8552C80.9005 56.8552 80.5705 56.8552 80.2305 56.8552C79.5705 61.4752 78.9105 66.0952 78.2305 70.8552C77.2405 71.1852 76.2505 71.5152 75.2305 71.8552C75.2305 71.1952 75.2305 70.5352 75.2305 69.8552C75.8905 69.8552 76.5505 69.8552 77.2305 69.8552C77.2911 68.7698 77.3516 67.6844 77.4141 66.5662C77.4985 65.1208 77.5832 63.6755 77.668 62.2302C77.7073 61.5174 77.7466 60.8045 77.7871 60.0701C78.0336 55.9372 78.4652 51.9325 79.2305 47.8552Z" fill="#306E15"/>
<path d="M64.2305 52.8552C65.2205 52.8552 66.2105 52.8552 67.2305 52.8552C67.2847 54.2923 67.3234 55.73 67.3555 57.1677C67.3787 57.9682 67.4019 58.7687 67.4258 59.5935C67.2305 61.8552 67.2305 61.8552 65.2305 64.8552C64.9005 63.2052 64.5705 61.5552 64.2305 59.8552C63.5705 59.8552 62.9105 59.8552 62.2305 59.8552C63.1055 53.9802 63.1055 53.9802 64.2305 52.8552Z" fill="#358D0D"/>
<path d="M34.2305 99.8552C36.7213 99.786 38.8788 99.7592 41.293 100.418C43.5866 100.936 45.0165 100.567 47.2305 99.8552C47.2305 101.505 47.2305 103.155 47.2305 104.855C42.3839 104.264 38.623 102.876 34.2305 100.855C34.2305 100.525 34.2305 100.195 34.2305 99.8552Z" fill="#38801C"/>
<path d="M100.23 120.855C100.56 120.855 100.89 120.855 101.23 120.855C101.284 122.647 101.323 124.438 101.355 126.23C101.379 127.228 101.402 128.226 101.426 129.254C101.23 131.855 101.23 131.855 99.2305 133.855C96.7305 134.105 96.7305 134.105 94.2305 133.855C93.5705 133.195 92.9105 132.535 92.2305 131.855C92.5605 130.865 92.8905 129.875 93.2305 128.855C93.5605 129.515 93.8905 130.175 94.2305 130.855C96.2105 130.855 98.1905 130.855 100.23 130.855C99.952 129.772 99.952 129.772 99.668 128.668C99.2105 125.727 99.4953 123.714 100.23 120.855Z" fill="#397A17"/>
<path d="M36.2305 112.855C39.5305 113.185 42.8305 113.515 46.2305 113.855C46.5605 114.845 46.8905 115.835 47.2305 116.855C47.8905 117.185 48.5505 117.515 49.2305 117.855C47.8124 117.57 46.3961 117.277 44.9805 116.98C44.1916 116.818 43.4027 116.655 42.5898 116.488C40.2622 115.864 38.3401 115.007 36.2305 113.855C36.2305 113.525 36.2305 113.195 36.2305 112.855Z" fill="#316E18"/>
<path d="M2.23047 38.8551C7.38218 38.7647 12.1496 39.0083 17.2305 39.8551C17.2305 40.1851 17.2305 40.5151 17.2305 40.8551C15.6411 40.946 15.6411 40.946 14.0195 41.0387C12.6315 41.1231 11.2435 41.2078 9.85547 41.2926C9.1568 41.3319 8.45812 41.3713 7.73828 41.4118C3.85686 41.5979 3.85686 41.5979 0.230469 42.8551C0.890469 41.5351 1.55047 40.2151 2.23047 38.8551Z" fill="#3D7B22"/>
<path d="M139.23 87.8552C140.22 88.1852 141.21 88.5152 142.23 88.8552C140.944 90.0278 139.651 91.1932 138.355 92.3552C137.636 93.0049 136.917 93.6546 136.176 94.324C134.23 95.8552 134.23 95.8552 132.23 95.8552C132.56 94.5352 132.89 93.2152 133.23 91.8552C134.55 91.8552 135.87 91.8552 137.23 91.8552C137.23 90.8652 137.23 89.8752 137.23 88.8552C137.89 88.5252 138.55 88.1952 139.23 87.8552Z" fill="#2E7C0D"/>
<path d="M142.23 80.8552C143.23 83.8552 143.23 83.8552 143.23 87.8552C141.58 87.5252 139.93 87.1952 138.23 86.8552C138.543 84.9802 138.543 84.9802 139.23 82.8552C140.22 82.1952 141.21 81.5352 142.23 80.8552Z" fill="#388918"/>
<path d="M7.23047 72.8552C7.89047 72.8552 8.55047 72.8552 9.23047 72.8552C9.23047 73.5152 9.23047 74.1752 9.23047 74.8552C10.8805 74.5252 12.5305 74.1952 14.2305 73.8552C14.2305 74.8452 14.2305 75.8352 14.2305 76.8552C13.5705 76.8552 12.9105 76.8552 12.2305 76.8552C12.5605 78.5052 12.8905 80.1552 13.2305 81.8552C10.1496 79.0824 8.54271 76.792 7.23047 72.8552Z" fill="#398019"/>
<path d="M51.2305 74.8552C51.8905 74.8552 52.5505 74.8552 53.2305 74.8552C53.5605 76.1752 53.8905 77.4952 54.2305 78.8552C54.8905 78.8552 55.5505 78.8552 56.2305 78.8552C56.8905 80.5052 57.5505 82.1552 58.2305 83.8552C57.2405 84.1852 56.2505 84.5152 55.2305 84.8552C53.9105 81.5552 52.5905 78.2552 51.2305 74.8552Z" fill="#397919"/>
<path d="M123.23 75.8552C121.788 79.2211 119.898 81.3657 117.23 83.8552C117.23 83.1952 117.23 82.5352 117.23 81.8552C116.57 81.5252 115.91 81.1952 115.23 80.8552C120.98 75.8552 120.98 75.8552 123.23 75.8552Z" fill="#356816"/>
<path d="M29.4805 50.2302C30.058 50.4365 30.6355 50.6427 31.2305 50.8552C31.5605 52.1752 31.8905 53.4952 32.2305 54.8552C29.2605 53.8652 26.2905 52.8752 23.2305 51.8552C27.2305 49.8552 27.2305 49.8552 29.4805 50.2302Z" fill="#398117"/>
<path d="M123.23 112.855C123.23 113.515 123.23 114.175 123.23 114.855C117.785 116.34 117.785 116.34 112.23 117.855C114.366 113.583 118.821 112.855 123.23 112.855Z" fill="#2B6D0F"/>
<path d="M57.2305 112.855C56.9005 114.175 56.5705 115.495 56.2305 116.855C55.2405 116.195 54.2505 115.535 53.2305 114.855C50.8985 114.776 48.5621 114.767 46.2305 114.855C46.2305 114.525 46.2305 114.195 46.2305 113.855C49.9648 112.977 53.3982 112.766 57.2305 112.855Z" fill="#3F8222"/>
<path d="M147.23 78.8552C147.89 79.1852 148.55 79.5152 149.23 79.8552C147.58 82.1652 145.93 84.4752 144.23 86.8552C143.57 85.5352 142.91 84.2152 142.23 82.8552C143.88 81.5352 145.53 80.2152 147.23 78.8552Z" fill="#2F7E10"/>
<path d="M53.2305 113.855C53.5605 114.515 53.8905 115.175 54.2305 115.855C54.8905 116.185 55.5505 116.515 56.2305 116.855C52.7522 118.015 50.7715 117.563 47.2305 116.855C47.2305 116.195 47.2305 115.535 47.2305 114.855C49.2105 114.525 51.1905 114.195 53.2305 113.855Z" fill="#378B0F"/>
<path d="M64.2305 86.8552C65.7305 87.9177 65.7305 87.9177 67.2305 89.8552C67.418 93.5427 67.418 93.5427 67.2305 96.8552C65.2305 93.8552 65.2305 93.8552 65.2305 90.8552C64.5705 90.5252 63.9105 90.1952 63.2305 89.8552C63.5605 88.8652 63.8905 87.8752 64.2305 86.8552Z" fill="#3D861D"/>
<path d="M94.2305 62.8552C94.8905 63.1852 95.5505 63.5152 96.2305 63.8552C95.5705 66.1652 94.9105 68.4752 94.2305 70.8552C93.2405 70.8552 92.2505 70.8552 91.2305 70.8552C91.5398 70.0921 91.8492 69.329 92.168 68.5427C92.9094 66.6673 93.5928 64.7684 94.2305 62.8552Z" fill="#3C8E17"/>
<path d="M117.23 61.8552C117.89 62.1852 118.55 62.5152 119.23 62.8552C116.26 65.3302 116.26 65.3302 113.23 67.8552C112.57 67.5252 111.91 67.1952 111.23 66.8552C111.56 65.8652 111.89 64.8752 112.23 63.8552C114.23 63.2302 114.23 63.2302 116.23 62.8552C116.56 62.5252 116.89 62.1952 117.23 61.8552Z" fill="#2C7C0B"/>
<path d="M81.2305 56.8552C81.5605 56.8552 81.8905 56.8552 82.2305 56.8552C82.2305 60.8152 82.2305 64.7752 82.2305 68.8552C81.2405 68.5252 80.2505 68.1952 79.2305 67.8552C79.8905 64.2252 80.5505 60.5952 81.2305 56.8552Z" fill="#3A7C1C"/>
<path d="M2.23047 59.8552C3.22047 60.1852 4.21047 60.5152 5.23047 60.8552C5.56047 63.1652 5.89047 65.4752 6.23047 67.8552C5.24047 68.3502 5.24047 68.3502 4.23047 68.8552C3.57047 65.8852 2.91047 62.9152 2.23047 59.8552Z" fill="#3C7918"/>
<path d="M128.297 51.7576C129.532 51.775 129.532 51.775 130.793 51.7927C131.619 51.8017 132.446 51.8108 133.297 51.8201C133.935 51.8317 134.573 51.8433 135.23 51.8552C132.606 53.6048 131.265 54.4759 128.23 54.8552C127.24 54.1952 126.25 53.5352 125.23 52.8552C126.23 51.8552 126.23 51.8552 128.297 51.7576Z" fill="#30840A"/>
</svg>
