<svg width="168" height="1005" viewBox="0 0 168 1005" fill="none" xmlns="http://www.w3.org/2000/svg">
<path fill-rule="evenodd" clip-rule="evenodd" d="M112.403 746.546C119.622 743.106 125.48 740.196 131.754 735.056C137.991 729.954 144.68 722.621 148.876 716.158C153.033 709.695 154.734 704.026 155.981 694.728C157.228 685.431 158.06 672.505 158.287 647.825C158.476 623.182 158.06 586.823 157.531 550.653C157.039 514.521 156.397 478.577 155.263 446.413C154.091 414.212 152.428 385.828 150.765 353.853C149.065 321.878 147.402 286.351 145.436 261.406C143.433 236.423 141.128 221.985 138.936 200.366C136.743 178.747 134.665 149.91 131.943 128.933C129.222 107.919 125.896 94.7663 120.869 77.7206C115.843 60.7127 109.191 39.8119 104.353 27.0371C99.5529 14.3001 96.6426 9.7269 95.1686 7.42138C93.6946 5.11587 93.6946 5.11587 90.3686 8.78201C87.0426 12.4104 80.3529 19.7426 73.5497 31.9505C66.7466 44.1962 59.8678 61.3175 51.5151 90.2686C43.1623 119.182 33.3355 159.925 26.0032 201.614C18.7088 243.302 13.9088 285.935 11.7166 324.788C9.5245 363.68 9.94025 398.754 10.545 430.842C11.1875 462.93 12.019 491.957 13.9088 529.147C15.7607 566.338 18.7088 611.692 21.0899 641.664C23.5088 671.636 25.3985 686.262 27.893 697.45C30.3875 708.637 33.5245 716.347 37.304 724.511C41.0458 732.675 45.43 741.217 54.0095 746.886C62.5891 752.517 75.3261 755.239 85.9843 754.596C96.6426 753.991 105.184 749.985 112.403 746.546Z" fill="#599029"/>
<path fill-rule="evenodd" clip-rule="evenodd" d="M81.4866 990.514C84.5103 991.535 91.011 991.346 96 990.514C101.027 989.683 104.58 988.209 106.356 987.453C108.132 986.735 108.132 986.735 107.49 979.1C106.885 971.503 105.638 956.234 104.05 939.642C102.501 923.012 100.611 905.059 98.8347 884.461C97.0583 863.862 95.3953 840.694 93.6189 818.848C91.8425 797.002 89.9528 776.555 89.3103 749.38C88.7055 722.206 89.3103 688.379 89.7638 663.396C90.1795 638.413 90.3685 622.35 90.4819 596.121C90.5953 569.891 90.5953 533.532 90.2551 512.555C89.9528 491.541 89.3103 485.909 88.1764 489.047C87.0425 492.184 85.3418 504.089 83.9811 517.544C82.6583 531.037 81.6 546.08 80.5418 567.396C79.5213 588.713 78.463 616.265 77.2158 653.154C75.9685 690.042 74.4945 736.228 74.4945 782.073C74.4945 827.957 75.9685 873.5 76.989 905.966C78.0473 938.47 78.6898 957.897 78.9921 968.858C79.2945 979.856 79.2945 982.35 79.1055 984.769C78.8788 987.15 78.463 989.456 81.4866 990.514Z" fill="#2F521B"/>
<path fill-rule="evenodd" clip-rule="evenodd" d="M9.71339 406.728C9.10867 405.972 9.33544 406.993 9.18426 405.217L9.71339 406.728ZM10.2803 404.725C8.69292 404.12 9.18426 404.952 9.18426 402.155L10.2803 404.725ZM9.6756 407.749C10.885 410.13 10.2047 415.459 10.2047 417.273C10.1291 417.16 10.1669 417.009 10.0158 416.933C9.86457 416.895 9.86457 416.669 9.86457 416.593C9.25985 414.703 8.54174 409.563 9.6756 407.749ZM10.2047 399.132V400.719H9.6756V399.132H10.2047ZM10.2047 351.585C10.2047 356.687 10.6205 355.932 10.4693 363.491C10.3937 367.27 10.9228 369.387 10.2803 371.692L9.6756 373.128C9.6378 372.372 8.8441 370.029 8.39056 365.267C8.12599 362.319 8.54174 362.848 8.61733 360.58L10.2047 351.585ZM10.6961 336.051C10.4693 338.659 11.1874 336.996 9.6756 337.525L10.6961 336.051ZM11.7165 486.476L11.1874 473.437C13.5307 477.065 11.7165 482.81 11.7165 486.476ZM12.6992 420.259C13.2284 420.788 11.9811 422.073 12.4347 420.864C12.4347 420.826 11.8677 419.428 12.6992 420.259ZM12.6992 417.765L12.548 417.916C12.548 417.916 12.6614 417.727 12.6992 417.765ZM12.6992 414.25C13.2284 414.741 11.9811 416.064 12.4347 414.817C12.4347 414.817 11.8677 413.38 12.6992 414.25ZM13.1906 411.755L13.0394 411.906C13.0772 411.906 13.1528 411.68 13.1906 411.755ZM13.2284 337.525C13.7575 338.017 12.3969 339.415 12.926 338.092C12.926 338.092 12.3591 336.618 13.2284 337.525ZM13.7197 547.629L13.1906 551.673C13.1906 548.007 12.6236 544.681 12.8504 541.846C13.0016 539.73 13.1906 535.875 13.1906 532.095C13.7575 532.965 13.9087 533.116 13.9087 535.686L14.0598 545.702C13.9465 548.12 13.7197 545.286 13.7197 547.629ZM13.6819 530.621C12.7748 529.752 13.4173 531.188 13.4173 531.188C12.9638 532.435 14.211 531.113 13.6819 530.621ZM14.211 456.883C14.7402 457.374 13.4929 458.697 13.9465 457.45C13.9465 457.45 13.3795 456.013 14.211 456.883ZM14.211 456.391C14.211 455.938 14.2488 455.333 14.1732 454.917C14.0221 453.935 13.9843 454.313 13.7197 453.859V456.391H14.211ZM14.211 451.327C14.7402 451.856 13.4929 453.179 13.9465 451.932C13.9465 451.932 13.3417 450.495 14.211 451.327ZM14.7024 437.834C14.7024 435.188 14.5134 433.752 14.3622 432.543C13.7575 427.591 15.0803 417.387 13.6819 415.27L12.8882 428.839C12.4347 437.683 13.2284 439.119 13.5307 446.602C13.6063 448.001 13.4929 449.702 14.211 450.873L14.7024 437.834ZM15.1937 309.443C13.9087 310.577 14.6646 308.309 14.1732 310.917C14.0976 311.522 14.2488 311.938 14.0598 312.807C13.7197 314.357 13.3039 313.261 13.0016 315.68C12.2079 322.256 12.6992 330.344 12.6992 337.072L13.9087 330.798C13.9843 329.928 14.1354 329.059 14.211 327.509C14.2866 325.506 14.5512 325.242 14.6646 323.919L14.589 320.857C14.7024 319.497 14.7024 318.325 14.7024 316.965C14.7024 313.79 15.2315 312.807 15.1937 309.443ZM22.2236 239.257C23.1307 238.388 22.4882 239.824 22.526 239.824C22.9417 241.072 21.6945 239.749 22.2236 239.257ZM25.2473 201.613C26.041 200.744 25.5118 202.218 25.5118 202.218C25.9654 203.503 24.7181 202.18 25.2473 201.613ZM25.663 192.807C24.4913 193.714 25.5874 192.165 25.7386 192.089C26.8724 191.711 25.9654 192.618 25.663 192.807ZM26.7591 199.648C27.3638 196.889 27.2504 194.961 27.2504 191.598L26.9102 192.278C26.7591 192.694 26.6835 193.034 26.6079 193.487L25.7008 197.72C25.5496 200.555 25.8142 199.232 26.7591 199.648ZM26.948 206.867L23.2441 234.231C24.4158 233.777 24.1512 234.193 24.7937 230.754C25.0583 229.28 25.4362 227.617 25.663 226.143C26.2677 222.401 30.8032 199.988 29.2535 198.628C27.2126 199.421 27.2504 204.675 26.948 206.867ZM51.8173 89.815C52.6488 88.9457 52.0819 90.3819 52.0819 90.3819C52.5354 91.6291 51.2882 90.3063 51.8173 89.815ZM58.1291 72.0512L52.3087 89.3236C52.3843 89.2102 52.6488 89.0969 52.5354 89.0591C52.4598 88.9835 52.7622 88.8323 52.8 88.7567L57.5244 76.4732C58.3559 74.0543 59.074 71.8622 59.7921 69.6701C60.1701 68.4984 60.5102 67.1378 60.737 66.1173C61.1528 64.4165 61.4929 63.774 61.8709 62.2244C59.9811 63.5473 59.7921 69.0276 58.1291 72.0512ZM62.3622 63.7362C62.5134 66.0795 62.4756 65.7394 62.3622 66.0417L57.411 79.837C56.5417 81.8402 56.3528 83.3142 55.5969 85.5441L51.0992 97.1473C49.0205 103.157 46.715 108.788 45.5055 115.1C45.1654 116.801 45.2032 116.952 44.7118 118.35L34.3181 169.601C33.6756 172.624 32.7307 176.253 32.315 179.163C31.9748 181.582 32.1638 181.809 32.0882 183.623C31.8992 186.835 30.6898 186.684 30.1228 189.481C28.9512 195.377 29.8961 193.639 30.9165 195.944C32.2394 198.817 24.4158 241.865 21.2032 252.259L16.6299 281.777C16.1764 284.536 16.1386 289.109 15.9874 290.961C15.7984 294.174 15.0047 295.799 15.3071 299.768C15.4583 301.469 14.589 301.884 14.6646 303.925C14.7402 307.591 16.1764 305.739 16.2142 307.932L13.7197 346.067C13.4929 350.829 13.3795 356.99 13.4929 359.598C13.6441 362.961 12.6614 368.971 12.6992 373.62C12.737 378.457 12.4724 384.58 12.4724 386.546L12.8126 395.654C13.115 399.472 11.9433 399.547 12.5858 404.876C12.8882 407.484 11.8677 408.694 13.1906 410.735C13.2284 406.993 14.9291 374.867 15.9118 371.843L16.2142 371.125C16.252 371.201 16.2898 371.352 16.2898 371.428C16.2898 371.465 16.3654 371.617 16.3654 371.692L16.252 373.657C16.063 375.169 15.9496 375.547 15.9874 376.53C16.1008 378.873 15.9118 380.536 15.8362 381.935C15.7228 383.938 15.6095 386.999 15.4583 388.171L15.1181 403.932C15.1181 405.065 15.0425 406.237 15.0047 406.615L16.1764 438.174C15.9496 440.442 15.7606 439.119 15.685 439.232C14.2866 441.424 16.0252 437.267 15.2315 439.837C16.5165 440.366 15.9118 439.799 16.2142 441.311C16.7055 443.617 16.2142 446.565 16.2142 448.87V475.932C17.8394 482.13 14.8535 476.385 15.5717 484.889C15.5717 484.927 15.7228 485.569 15.7228 485.947C15.7228 495.661 16.1386 501.632 17.3102 510.93C18.8598 523.78 19.3134 518.867 20.1827 522.533C18.8598 523.289 20.674 523.062 18.7087 523.062C17.1213 523.062 17.0457 521.853 16.7055 520.568C16.1764 518.565 16.6677 518.565 15.1937 517.544C15.1559 522.798 15.8362 526.313 16.252 531.566C16.8945 539.806 16.2142 551.333 17.915 559.043C18.3307 561.122 18.9354 559.232 18.2929 561.765C17.4236 565.091 17.9528 561.5 17.1591 563.881C16.6677 565.355 17.1213 574.728 17.4236 576.543C17.6882 578.394 18.4441 581.532 18.4441 582.741C18.4441 591.925 19.011 591.812 19.6913 598.313C19.8047 599.711 19.7669 600.165 19.9937 601.525C21.5433 609.878 21.5055 618.042 22.1858 626.394C22.9417 635.617 22.6394 642.609 23.0173 651.831C23.1685 655.61 23.7354 658.861 23.7354 662.489C23.7354 670.615 24.378 677.645 26.041 685.242L28.7622 700.549C29.0646 703.535 30.3874 704.631 31.4079 706.974C32.315 709.053 32.9575 711.774 33.6756 713.739C37.2661 723.642 38.5134 719.257 41.2724 724.171L39.6095 725.494C39.685 725.531 39.3827 725.607 39.2693 725.683C39.3827 725.872 39.7984 726.854 39.9118 727.043C41.8772 730.52 44.674 733.771 47.6221 736.379L53.0268 742.01C57.789 746.319 66.3685 752.139 72.8693 752.253C72.8693 747.226 72.7181 744.58 73.5496 739.856C74.1921 736.19 73.4362 733.809 74.0787 729.878L76.0441 691.478C76.3465 683.201 75.4016 674.772 75.4016 666.495L76.1197 652.095C77.3291 642.42 77.4047 634.634 77.4047 624.883C77.4047 622.388 77.4803 619.78 77.4047 617.324C77.3291 613.733 75.8929 613.053 75.8929 610.823C75.8929 608.706 76.3843 608.442 76.4221 605.834L77.0646 581.002C76.6866 574.955 77.7827 572.99 77.8961 567.169C77.9339 565.091 78.0473 564.524 78.1984 563.314L78.3874 550.653C78.3496 545.815 79.6724 543.472 79.8992 538.634C79.937 537.613 79.8614 536.706 79.9748 535.686L81.411 519.056C81.5244 516.524 82.0158 516.07 81.9024 513.538C81.8268 511.686 80.7307 500.12 81.3732 499.024C82.1669 500.687 82.2047 502.917 82.9228 504.013C82.9228 500.12 84.2079 496.265 83.7543 492.448C83.7543 492.372 83.7165 492.221 83.7165 492.108C83.7165 492.032 83.7165 491.881 83.6787 491.806C83.1874 486.892 82.5071 483.831 82.3937 478.955C82.3181 473.513 81.411 467.314 81.411 461.909V449.361C81.411 442.029 82.3559 434.924 82.3937 427.289L85.7953 367.913C85.7953 367.799 85.7953 367.686 85.7953 367.572C85.7953 362.546 86.022 358.388 85.3417 353.664C85.1906 352.417 84.8126 351.887 84.737 350.527L84.6236 339.831C84.5102 338.697 84.4346 337.336 84.2079 336.24C83.0362 330.911 83.1874 325.582 82.8473 320.48C81.978 307.327 81.978 294.854 81.9024 281.361C81.9024 280.19 81.8268 279.207 81.789 278.111C81.6 274.256 80.9197 268.587 81.0709 264.883C81.2598 260.839 80.1638 255.698 80.2016 252.259L79.8992 245.267C79.9748 242.47 80.2394 243.075 80.0882 240.996L79.4079 168.013C79.4457 166.917 79.4457 166.426 79.5591 165.443C79.937 162.533 79.2945 161.324 79.6724 158.867L80.4661 123.453C80.4661 123.415 80.6173 121.676 80.6173 121.676C81.6756 114.571 80.9197 105.235 82.2803 99.6795L82.6583 93.141C82.7339 92.1205 82.8473 91.8559 82.9228 90.3063C83.0362 87.3205 82.4693 86.6024 82.5449 83.6921C82.6583 75.5662 83.452 68.763 84.926 60.2213C85.7197 55.6858 85.1906 55.837 86.4378 51.415V50.6969C87.3449 49.185 86.8157 49.4874 86.9669 48.7315C87.0803 48.089 87.1181 47.5976 87.2315 46.9551L88.3276 39.0181C88.8567 32.3284 87.9496 27.226 87.9118 21.1032C88.6299 22.237 88.4032 23.9 88.8945 25.1473C89.2346 26.0543 89.0457 25.563 89.4614 26.0921C90.2551 22.3126 90.2173 22.1236 90.4441 17.626L91.9181 9.04646C89.4992 10.7473 87.6095 13.6197 85.6819 15.9252C84.6236 17.2102 83.7543 16.3787 83.7921 17.2102L84.3969 18.0795C82.7717 19.2134 81.5622 21.141 80.6551 22.8417C79.3323 25.2606 78.5008 25.563 77.4425 28.2087C76.611 30.3252 75.8173 32.0638 74.7969 34.0669C73.3606 36.8638 72.8693 40.2654 71.4331 43.2512C68.3339 49.8654 66.4819 57.6512 63.3449 64.2276L62.3622 63.7362ZM85.9087 52.2087C85.9843 52.2465 85.7575 52.3221 85.7575 52.3599L85.9087 52.2087ZM87.9118 20.6118C87.9874 20.6496 87.7984 20.7252 87.7606 20.763L87.9118 20.6118ZM61.9843 60.3724C62.0598 60.3724 61.7953 60.2591 61.8331 60.2213L61.9843 60.3724ZM63.8362 58.7095C63.8362 56.3661 65.7638 51.8685 67.1244 49.9787C68.7874 47.711 65.3858 52.0197 67.8803 49.185C67.3512 51.3772 64.4787 59.6165 63.3449 61.2039C63.5339 59.163 63.8362 60.0701 63.8362 58.7095ZM68.5606 45.8969L69.4299 44.574L68.863 47.1819C68.5228 46.615 68.0315 48.1268 68.5606 45.8969ZM73.5118 826.105C73.5874 826.105 73.3228 825.991 73.3984 825.954L73.5118 826.105ZM73.8898 819.453C73.8898 818.697 73.8142 817.601 73.852 816.883L74.1921 815.22C74.3433 815.182 74.3055 815.031 74.3811 814.917C74.3811 816.694 74.6835 818.168 73.8898 819.453ZM76.3843 793.865C76.4221 793.828 76.5354 794.017 76.5354 794.017L76.3843 793.865ZM76.3843 857.059C76.3843 855.245 76.4598 853.393 76.2331 851.617C76.0441 849.878 75.7417 849.765 77.4047 848.479C77.3669 858.042 76.9512 864.316 76.8756 874.105C75.3638 871.724 76.3843 860.423 76.3843 857.059ZM78.8787 905.702C78.9543 905.626 79.0299 905.815 79.0299 905.853L78.8787 905.702ZM79.0299 650.583C79.1055 650.583 78.841 650.508 78.8787 650.432L79.0299 650.583ZM79.4079 601.298C79.7102 601.828 80.0882 601.752 79.4079 602.81V601.298ZM79.5213 599.938C79.5969 599.938 79.2945 599.824 79.3701 599.787L79.5213 599.938ZM79.4079 594.76C79.7102 595.251 79.6724 594.873 79.8614 595.818C79.8992 596.007 79.937 596.498 79.937 596.763C79.9748 597.443 79.8992 598.577 79.8992 599.333H79.4079C79.4079 598.388 79.2189 597.217 79.2189 596.687C79.1811 596.12 79.2945 596.007 79.4079 594.76ZM79.4079 594.306C79.4079 592.794 79.4079 591.283 79.4079 589.771C79.3701 587.314 79.1433 587.465 79.8992 586.256C79.8992 587.768 79.8992 589.28 79.8992 590.791C79.937 594.08 80.0504 593.248 79.4079 594.306ZM79.4079 582.25C79.4457 582.174 79.5213 582.363 79.5591 582.401L79.4079 582.25ZM79.5591 581.38C79.5969 581.38 79.3323 581.305 79.4079 581.229L79.5591 581.38ZM79.4079 577.752C80.2394 576.883 79.6724 578.319 79.6724 578.319C80.126 579.528 78.8787 578.243 79.4079 577.752ZM80.0504 580.36C80.126 580.36 79.8614 580.246 79.8992 580.209L80.0504 580.36ZM82.3937 173.04C82.4315 172.322 82.4315 172.322 82.5827 171.717L82.9228 171.037C83.5276 173.078 83.641 171.793 83.9055 173.607L81.9024 194.13C80.9575 192.618 81.3732 188.536 81.5244 186.722C81.6378 184.983 81.6 186.42 81.4488 184.53C81.1465 180.675 81.9402 181.393 82.2803 179.919L82.3937 173.04ZM82.9228 295.421C82.9606 295.346 83.0362 295.535 83.074 295.572L82.9228 295.421ZM82.9228 196.133C83.7543 195.264 83.1874 196.7 83.1874 196.7C83.641 197.947 82.3937 196.624 82.9228 196.133ZM82.9228 193.109C82.9606 193.072 83.0362 193.261 83.074 193.261L82.9228 193.109ZM82.8473 190.124C82.9228 190.048 82.9984 190.237 83.0362 190.275L82.8473 190.124ZM83.3764 309.443C83.4142 309.406 83.5276 309.594 83.5276 309.594L83.3764 309.443ZM82.9228 243.264C83.4142 243.075 82.8473 242.13 83.5654 243.491C84.1701 244.738 84.0189 249.878 83.9055 251.768C83.7165 255.434 85.3795 263.824 83.9433 266.81C83.0362 265.525 83.1496 257.853 83.1496 255.963C83.1496 255.056 83.1874 254.376 83.1874 253.582L82.8095 243.453C82.885 243.415 82.885 243.339 82.9228 243.264ZM83.4142 131.881C83.452 131.843 83.5654 132.032 83.5654 132.07L83.4142 131.881ZM85.115 155.957L83.9055 171.528C83.9055 164.876 83.6032 166.88 83.4142 164.007L83.263 149.229C83.3008 148.587 83.4142 147.793 83.4142 146.999V137.966C83.4142 136.417 83.1118 134.716 83.9055 133.431L85.115 155.957ZM84.3969 501.028C86.1732 503.787 84.3969 504.543 84.3969 504.543C84.1323 504.089 83.7543 504.543 83.8677 502.577C84.0189 500.498 83.7165 502.464 84.3969 501.028ZM85.4173 492.486C85.0016 491.881 85.0772 492.599 84.9638 491.465C84.8126 489.349 84.926 491.239 85.4173 490.445V492.486ZM84.926 485.909C85.3417 486.59 85.4173 484.889 85.4173 487.459C84.926 486.817 84.926 488.517 84.926 485.909ZM85.5685 482.621C85.6441 482.621 85.3795 482.508 85.4173 482.47L85.5685 482.621ZM85.9087 428.309C85.9087 433.676 86.589 433.45 86.1354 442.785C85.9087 447.85 86.5134 451.629 86.0598 454.993C85.8331 456.618 85.9465 458.206 85.8709 459.869L85.8331 463.837C85.7197 466.143 85.2283 480.202 84.1701 483.755L83.9055 484.511C83.9433 479.976 83.7165 478.426 83.2252 474.382L84.3969 413.758C84.548 410.961 84.737 411.113 84.8504 409.185C85.0016 406.388 84.2457 405.443 85.9087 404.234C85.9087 407.257 85.7575 408.58 85.8709 410.735L85.9087 428.309ZM86.4378 405.217C87.2315 404.385 86.7024 405.821 86.7024 405.821C87.1559 407.106 85.9087 405.783 86.4378 405.217ZM88.4409 501.028C87.6095 499.705 87.6095 496.228 88.4032 494.98L88.4409 501.028ZM87.9118 487.988C88.8189 487.157 88.2142 488.555 88.2142 488.555C88.7055 489.802 87.3827 488.48 87.9118 487.988ZM87.9118 484.965C88.7811 484.133 88.1764 485.532 88.2142 485.532C88.6677 486.779 87.3827 485.494 87.9118 484.965ZM86.9291 64.2276C86.9291 62.1866 87.0803 61.6953 87.3827 60.1835C87.7606 58.1803 87.6095 57.9536 88.4787 56.7063C88.4032 58.8984 86.8157 77.4181 85.9087 78.7788C85.4173 77.5693 85.8709 77.6071 85.9087 75.3016L86.9291 64.2276ZM89.4236 709.62C89.4236 716.687 90.1417 715.554 89.4992 720.694C89.0835 723.755 90.1039 721.941 88.4409 722.697L89.4236 709.62ZM88.4032 707.617C89.2724 706.747 88.7055 708.183 88.7055 708.183C89.1591 709.431 87.9118 708.146 88.4032 707.617ZM88.4409 706.596C88.4409 706.067 88.7433 703.913 89.0079 704.026L88.5921 706.294C88.7055 706.331 88.4787 706.52 88.4409 706.596ZM89.4992 698.054C89.7638 700.284 90.8598 699.717 88.8945 701.078C88.9323 699.906 88.9323 698.735 88.9323 697.563L88.6299 694.88C88.7055 694.842 88.3276 694.691 88.3276 694.502L88.9323 694.048C89.8016 695.862 89.2346 695.824 89.4992 698.054ZM88.9323 460.889C88.4787 460.209 88.4409 461.985 88.3654 459.377C88.3276 456.958 88.6299 458.357 88.9323 457.865V460.889ZM90.4441 634.898C89.8394 634.029 89.915 636.183 89.9528 633.462C89.9528 631.119 89.7638 633.424 90.4063 632.366L90.4441 634.898ZM89.915 7.04331C90.7843 6.21182 90.1795 7.61024 90.1795 7.61024C90.6709 8.89528 89.3858 7.57245 89.915 7.04331ZM88.9323 980.423C90.3307 980.272 90.0283 980.347 90.9732 979.894L91.3134 982.691C91.3134 982.766 91.3512 982.917 91.3512 983.031C91.3512 983.182 91.389 983.333 91.389 983.446C91.2378 985.109 90.6709 985.298 88.9323 985.412V980.423ZM90.9354 845.531C91.8047 844.662 91.2 846.098 91.2 846.098C91.6535 847.346 90.4063 846.023 90.9354 845.531ZM90.9354 844.02C90.4063 844.511 91.6535 845.834 91.2 844.587C91.2 844.587 91.8425 843.15 90.9354 844.02ZM91.4268 826.974C91.4268 827.541 91.5402 827.881 91.578 828.297L91.4646 831.472C91.4646 834.382 92.4472 840.165 90.9354 842.508L89.6504 824.82C89.3858 822.968 89.3102 818.092 89.1969 815.295L90.4063 806.413C91.1622 815.22 91.4268 817.261 91.4268 826.974ZM91.4268 584.744C92.2961 583.913 91.6913 585.311 91.6913 585.349C92.1449 586.558 90.9354 585.273 91.4268 584.744ZM90.9354 543.623C90.5575 543.056 90.3685 544.492 90.4063 540.637L90.9354 512.555C90.9354 509.569 90.2929 501.254 91.4268 498.987C91.5024 499.1 91.578 499.251 91.6157 499.327L91.5402 517.657C91.3512 520.001 91.9181 518.073 91.9559 520.568C91.9937 523.44 91.4268 520.832 91.4268 523.062C91.4268 525.217 91.8047 525.935 91.6535 527.295C91.4646 529.034 91.4268 530.281 91.4268 532.095C91.4268 533.758 91.4268 535.459 91.4268 537.122C91.4646 541.242 90.9354 540.41 90.9354 541.128C90.9354 542.64 91.8803 542.111 90.9354 543.623ZM91.9181 452.309C92.6362 453.481 92.674 456.996 91.4268 457.865C91.4268 455.069 91.9559 454.917 91.9181 452.309ZM91.9181 773.305C92.2961 773.834 92.2205 773.305 92.4095 774.363C92.4472 774.514 92.485 775.119 92.485 775.308L92.4095 779.352C92.3339 782.149 92.5984 779.768 91.9181 780.826L91.4268 774.779C91.6913 772.133 91.3134 774.287 91.9181 773.305ZM91.9181 552.165C91.9937 552.089 92.0693 552.316 92.0693 552.316L91.9181 552.165ZM91.9181 550.653C91.9937 550.615 92.0693 550.804 92.0693 550.804L91.9181 550.653ZM91.4268 460.398C92.3339 461.796 92.2205 469.469 92.2583 471.32L92.4472 495.018C91.8047 494.073 92.4472 495.925 91.6913 493.695C91.389 492.826 91.5402 493.431 91.4646 492.448L91.2 478.086C91.1622 477.557 91.1622 477.33 91.1244 476.65V470.829C91.1244 469.846 91.0866 471.169 90.9732 469.393C90.7843 466.898 91.4268 467.125 91.4268 465.916V460.398ZM93.9213 983.938C93.1276 983.635 92.5228 984.013 92.3717 981.405C92.2961 979.667 92.4472 979.44 92.9386 978.42C93.3543 978.571 94.1858 978.268 94.4504 980.952C94.4504 981.141 94.4504 982.691 94.4126 982.879C94.2236 984.013 94.337 983.333 93.9213 983.938ZM92.9386 851.541C92.9764 851.503 93.0898 851.692 93.0898 851.692L92.9386 851.541ZM93.4299 850.067C92.8252 849.084 92.9008 849.802 92.9008 847.043C92.9386 846.023 92.9386 845.002 92.9386 844.02C94.0724 845.758 94.337 848.102 93.4299 850.067ZM93.3921 7.08111C93.4677 7.00552 93.5433 7.1945 93.5433 7.1945L93.3921 7.08111ZM91.4268 986.924C92.6362 987.717 91.9559 987.528 93.4299 987.944L94.9417 985.941C95.0929 987.377 95.1685 987.226 95.4709 988.435C93.5811 989.342 91.1622 990.401 88.9323 990.439C88.9701 987.226 88.9323 989.04 91.4268 986.924ZM94.9417 877.62C94.9417 879.887 95.1307 882.117 95.2819 883.062C95.2819 883.062 95.5465 884.196 95.5843 884.347L98.948 921.765C98.0409 920.328 96.3024 906.76 95.811 903.812C95.5843 902.527 95.5465 902.111 95.4331 900.183C95.2819 896.971 93.3921 880.076 94.9417 877.62ZM100.951 983.862C100.989 987.037 102.35 987.868 98.4567 987.944C96.4535 985.676 99.137 989.078 97.7386 987.15C97.663 987.037 97.0961 987.075 96.9449 984.92L100.951 983.862ZM99.9685 981.897C98.2299 982.313 97.3228 982.691 95.9622 983.409C95.9622 980.763 95.622 980.385 95.4331 978.42C95.9622 977.059 95.3197 977.399 97.4362 977.135C99.9685 976.794 98.1921 976.303 99.4016 976.794C100.8 977.361 100.006 980.498 99.9685 981.897ZM99.4394 925.771C99.4394 932.914 100.611 952.983 101.594 959.749C101.972 962.47 102.501 962.47 102.69 965.872C102.917 969.538 105.6 974.754 104.731 978.193C104.391 979.629 102.69 979.818 101.443 980.423C101.405 976.039 99.9685 969.878 99.9685 965.38C99.9685 958.879 99.3638 947.617 98.0409 941.683C97.5496 939.491 97.6252 937.374 95.4331 936.769C96.7181 942.25 98.4567 949.317 98.4567 955.327L98.948 965.834C99.0236 969.5 99.4772 971.692 99.4394 975.434C97.3984 974.376 96.9827 974.905 94.9417 975.396C94.9039 971.201 94.0346 966.968 93.9213 962.848C93.8457 959.446 93.7323 953.702 92.4472 950.829C92.3717 950.942 92.2961 951.094 92.2961 951.169L92.0315 952.265C91.9937 953.475 92.1449 953.248 92.1827 953.513C92.8252 958.275 92.4472 963.037 93.1654 967.648C93.4299 969.651 93.3543 970.823 93.4677 972.939C93.6567 976.076 94.2236 975.774 92.4472 976.417C91.7669 975.358 91.9937 973.695 92.0315 972.41C92.1449 970.558 92.8252 970.936 90.4441 970.369C90.4063 973.166 90.9354 974.602 90.9354 977.891C87.4961 978.722 90.2929 978.646 87.9118 976.908C87.9118 978.268 87.7984 979.818 87.7984 980.99C87.7228 984.316 87.3827 985.639 86.4 987.982C86.2866 988.284 85.7197 990.287 86.7024 990.628C86.8535 990.665 86.8913 990.817 86.9291 990.93C84.0189 991.043 85.0016 991.724 82.3559 991.988C83.3008 988.322 83.6032 991.232 82.4693 987.491C81.5622 984.505 82.0913 980.272 81.8646 976.908C81.4488 970.936 82.3937 964.776 82.2425 958.766C82.0913 951.661 83.7165 943.005 81.9024 935.295C80.8063 936.92 81.411 940.549 81.411 942.817V960.883C81.3732 963.906 80.8819 965.758 80.9197 969.387C80.9197 969.727 81.1087 971.465 81.1087 971.465C80.9575 972.637 81.1843 971.957 80.3906 972.902L79.8992 958.35C79.8992 955.213 80.1638 956.687 80.6551 955.024L79.8992 920.744C79.8992 915.491 80.3906 914.092 80.3906 909.708V893.645C80.3906 891.415 80.2016 894.061 79.9748 891.604C79.748 889.374 80.4284 887.749 78.8787 886.653C78.3496 889.109 79.0299 892.549 79.1055 895.232L79.4079 904.681C77.7071 902.754 78.1984 897.689 78.0095 895.346L77.4047 886.653C77.2535 874.709 78.9921 855.207 77.8583 844.549L77.1402 847.308C77.1402 847.383 76.9134 847.61 77.0268 847.686C77.1402 847.761 76.9512 847.95 76.8756 848.064C76.1953 846.552 76.8 839.295 77.1024 836.952L77.2158 829.544C77.2535 828.939 77.4047 827.919 77.3669 826.974C77.3291 824.782 76.8756 824.631 76.8756 821.947C76.8756 817.676 77.4047 813.859 77.4047 808.908L77.6315 800.555C78.5008 793.261 74.7591 790.917 75.2882 782.149L75.137 764.763C75.137 760.152 76.3465 753.954 76.3087 753.387C75.8173 744.656 77.3669 740.914 77.3669 733.204L78.1228 720.316C78.841 715.024 76.8378 714.646 79.8992 710.111C78.7276 705.122 78.3496 705.765 78.463 700.171V697.034C78.5008 696.958 78.5386 696.807 78.5764 696.731L78.8032 684.713C78.7276 683.314 78.6898 684.297 78.7654 682.861C79.1433 675.717 78.1228 675.944 78.9921 667.062L78.8787 664.983C81.2598 664.794 79.7858 665.55 80.8819 664.001C80.4661 662.111 79.5969 659.276 79.4457 657.387L80.4284 635.428C80.6173 633.046 81.1843 631.346 81.2598 628.813L81.9402 617.815C82.2047 614.262 82.8473 613.657 79.8992 614.338C81.4488 611.087 80.8819 584.555 80.9197 578.243C83.0362 578.054 81.789 578.281 83.4142 577.223C82.7339 575.787 83.074 574.691 82.0158 573.519C81.789 573.292 81.7134 574.577 81.0709 572.083C80.126 568.19 81.2976 563.73 81.1843 559.837C80.8063 545.739 83.1874 543.623 83.8299 533.985C83.9811 532.02 83.6032 532.284 83.6787 530.961C83.7165 530.508 83.8299 528.429 83.9433 527.106C84.0945 525.33 84.4346 525.292 84.548 523.516L84.6992 511.799C84.6992 510.93 84.737 510.514 84.7748 510.098C84.8504 508.36 83.9433 506.508 84.926 504.996L85.7197 528.391C85.9465 530.772 85.6441 530.924 87.9118 531.113V603.302C87.4205 609.046 88.1386 612.599 87.9496 619.365C87.874 621.897 87.4205 622.161 87.3827 624.845L87.4205 635.881C87.3827 637.846 87.4205 639.925 87.4205 641.928C87.4583 649.525 85.0772 662.073 86.589 668.347C86.9669 669.935 86.9669 668.574 87.3449 670.577L88.1386 692.763C87.8362 695.333 87.9496 697.903 87.9118 700.587C87.9118 703.421 87.9874 706.331 87.9496 709.128C87.9118 712.076 87.3827 713.248 87.4205 716.65V741.746C87.4205 744.807 88.063 746.054 88.1008 748.813L87.9118 755.73C88.0252 758.829 88.0252 760.87 88.3276 763.365C89.4992 772.776 88.4409 768.165 88.4032 776.82L88.8567 783.887C89.4992 790.917 88.7811 796.889 90.4441 804.41C89.915 804.637 91.011 804.902 88.9323 804.41C88.9323 806.413 88.7811 807.131 88.6299 808.265C88.4787 809.626 88.4787 810.949 88.3654 812.385C88.1008 815.711 88.1008 816.845 88.2142 818.546L89.4236 834.987C89.4236 843.944 91.3512 854.678 91.8803 863.144L93.4299 888.165C93.4677 889.185 93.4677 889.034 93.6567 890.017L93.7701 892.02C92.7496 896.517 94.2236 901.544 94.5638 906.268C94.9795 911.711 94.2236 907.516 95.622 915.566C96.0378 918.174 95.2441 924.788 98.6457 925.657C98.6835 925.695 98.8724 925.695 98.9102 925.695L99.4394 925.771ZM104.957 981.897C103.748 982.199 102.954 982.464 101.934 982.917C102.501 984.013 102.841 984.845 102.954 986.432H105.487C104.731 984.845 104.957 984.127 104.957 981.897ZM115.994 60.2213C116.069 60.1835 116.145 60.3724 116.145 60.3724L115.994 60.2213ZM118.526 743.711C119.66 742.917 119.055 743.106 120.529 742.728L118.526 743.711ZM121.02 742.199C121.058 742.161 121.172 742.35 121.172 742.388L121.02 742.199ZM122.532 742.237C123.024 740.763 124.762 739.667 126.539 739.213L122.532 742.237ZM126.312 94.5772C126.501 95.8244 126.539 96.3914 126.576 97.8276L126.312 94.5772ZM127.03 100.851V98.848C126.501 99.6795 126.463 97.7898 126.614 99.8307C126.69 100.851 126.728 100.36 127.03 100.851ZM127.03 103.346C127.106 103.27 127.181 103.459 127.181 103.497L127.03 103.346ZM127.03 102.325C127.068 102.287 127.181 102.476 127.181 102.514L127.03 102.325ZM127.71 105.954C127.71 105.916 127.71 105.689 127.824 105.651C127.937 105.613 127.975 105.462 128.05 105.349V106.861L127.71 105.954ZM132.548 151.497V153.009H132.057V151.497H132.548ZM133.531 732.675C133.606 732.599 133.682 732.826 133.682 732.826L133.531 732.675ZM141.317 724.398C141.354 724.284 142.035 723.188 142.072 723.15C142.526 722.583 142.828 722.357 143.017 722.092C146.608 717.67 144.945 717.897 148.12 713.135C150.879 708.939 149.745 706.747 151.597 704.593C151.37 707.352 149.291 714.646 148.12 717.179C147.137 719.295 145.89 719.862 144.605 721.639C143.924 722.583 143.622 722.886 142.753 723.868C140.523 726.401 141.468 726.703 140.561 725.683L141.317 724.398ZM146.079 280.379C147.439 280.606 147.099 282.344 147.099 283.856V285.368H146.608C146.608 283.894 146.079 282.835 146.079 280.379ZM149.518 357.557L150.123 357.103C150.539 357.443 150.539 358.313 150.387 359.182L149.518 357.557ZM150.085 363.642C150.652 364.435 150.614 362.432 150.614 365.116C150.085 364.398 150.123 366.212 150.085 363.642ZM150.123 361.072C150.161 361.034 150.236 361.223 150.236 361.223L150.123 361.072ZM151.597 703.081C151.672 703.043 151.748 703.232 151.748 703.232L151.597 703.081ZM156.132 577.223C156.132 578.546 156.321 580.209 156.359 580.624C156.435 581.305 156.472 582.136 156.472 582.665L155.906 591.396C155.868 592.492 156.019 592.568 156.094 594.269L157.115 613.884C157.38 616.87 156.548 617.739 156.737 620.234C156.85 621.368 156.926 621.594 156.888 622.691L157.115 633.387C157.115 634.558 156.51 634.52 156.661 636.864L156.132 662.489C156.132 667.062 155.717 673.941 154.696 678.098L153.865 681.273C152.164 688.379 150.728 701.645 146.948 708.108C146.872 708.259 146.872 708.032 146.419 708.939L144.907 712.946C144.907 712.983 144.491 714.042 144.491 714.042L136.479 726.552C134.891 729.424 136.743 727.119 133.795 728.895C131.225 730.483 131.301 732.486 128.731 733.884C127.37 734.602 126.69 734.716 125.291 735.472C123.78 736.303 123.553 736.379 122.381 737.55C118.526 741.368 113.424 742.086 110.362 745.109C108.548 746.961 106.318 746.999 104.164 748.435C101.82 750.023 99.5906 750.287 97.6252 751.913C95.7732 753.424 96.8315 753.009 94.2992 753.651C91.1244 754.483 90.8976 754.936 91.8047 751.686C93.0898 747.188 92.6362 741.405 92.1449 736.832C91.4646 730.672 92.4472 724.435 92.4472 718.653C92.4472 715.78 92.1071 714.684 91.9559 712.568C91.6157 707.881 92.4095 704.102 92.4472 699.113C92.485 694.275 91.5024 691.931 91.4268 688.076C91.3134 683.768 90.7087 679.043 91.5024 677.607C92.9008 674.961 91.2 674.168 90.7843 670.653C90.5197 668.461 90.4441 664.076 90.4441 659.957C90.4441 655.95 90.4441 651.944 90.4063 647.938L90.9354 636.902C90.9354 640.076 91.4646 641.324 91.9937 643.894C92.485 646.426 92.485 647.598 94.4126 648.92C96.6803 645.594 94.2614 647.598 93.6189 642.344C93.5811 642.193 93.5811 641.588 93.5055 640.87C92.863 635.428 92.1827 632.139 91.9559 626.357C91.8425 624.467 91.4268 624.316 91.4268 623.371L91.6913 620.839C91.6535 619.138 91.4268 621.632 91.4268 619.365L92.9008 601.79C93.0898 598.539 93.3543 595.894 93.2409 593.739L92.8252 585.462C93.0142 575.938 90.7087 568.228 91.3134 559.988L91.8047 554.772C92.2961 553.072 91.8425 554.319 92.4472 553.676C92.5228 558.854 93.6189 561.122 93.9213 565.204H96.9449C97.1717 562.332 97.6252 564.297 96.3024 561.878C95.0929 559.686 94.9795 556.284 94.5638 553.979C92.4472 542.187 93.2032 530.054 93.3165 518.489L93.2409 514.785C92.7874 511.724 93.5055 497.891 93.2032 492.448C92.9008 487.383 93.8079 477.859 93.3165 472.039C93.2032 470.716 93.1276 469.884 93.2032 468.448C93.2409 467.768 93.3165 467.352 93.2409 466.483L92.5984 447.207C92.7118 447.132 92.5228 446.98 92.4472 446.867C91.9937 448.001 92.7496 450.08 91.9181 451.365C91.389 450.495 91.5402 448.908 91.5024 447.774C91.5024 447.623 91.4646 447.509 91.4646 447.358C91.389 445.355 91.5402 443.957 91.1622 442.105C90.4819 439.119 90.5953 435.264 90.1417 432.089C89.1969 425.626 90.4441 419.428 90.4441 413.267C90.4441 411.831 88.5165 413.532 89.1969 409.072C89.5748 406.502 89.0835 403.402 89.8016 401.021L88.9701 386.168C88.5165 379.818 90.1795 371.768 88.8567 359.182C88.3276 354.344 88.3654 348.07 87.1559 342.854C86.9669 341.985 87.5717 343.194 86.9291 342.023C87.0047 341.985 87.1937 341.909 87.2693 341.872L87.9496 341.569C88.063 341.532 88.2142 341.456 88.2898 341.418C89.2724 341.002 88.2898 341.607 89.3858 341.002C89.3858 339.528 89.6126 339.377 88.7055 338.546L88.2142 338.319C86.4378 336.996 86.9291 326.829 86.9291 323.994L88.9323 322.974C88.8567 318.628 88.3654 320.895 87.6095 317.758C85.6819 309.746 87.1937 302.64 86.3244 294.968C85.3795 286.955 85.4173 281.626 85.5685 274.407L85.7575 256.983C85.5685 250.18 84.6236 243.264 84.3969 237.254C84.0945 228.108 82.4693 220.662 82.7339 210.873C82.7717 209.513 82.4315 198.817 82.9228 197.607C83.263 198.136 83.1496 197.343 83.5276 198.892C83.7543 199.913 83.6032 199.157 83.5654 200.253C83.5276 205.469 84.0567 209.815 84.9638 214.615C85.4929 217.45 84.8126 218.243 86.8913 219.642C87.7984 217.865 86.8157 215.409 86.3622 213.217C86.022 211.516 85.4929 208.039 85.4173 206.149C85.1528 200.82 84.926 196.398 84.926 190.615L85.3417 138.004C84.3213 128.517 83.452 116.536 84.3213 106.785C84.5858 104.139 83.7165 105.009 85.9087 104.857L87.9118 72.7693C87.9118 70.048 88.5165 66.0417 88.8567 63.6228L94.9417 9.08426C95.8488 12.9772 103.408 29.0024 104.806 33.8402C105.713 37.0528 105.751 39.963 106.998 42.6465C108.359 45.6701 108.548 48.3158 109.833 51.3394C111.723 55.7236 112.403 60.0323 114.142 64.1142L115.956 67.7803C116.598 69.4811 116.372 70.5772 117.014 72.2402C118.564 76.1709 118.11 77.3047 119.169 80.5929C119.698 82.1425 120.038 83.2008 120.302 84.4102C120.794 86.4512 121.852 90.6465 122.419 92.952C123.213 96.278 123.515 99.2638 124.309 102.552C125.102 105.689 125.896 108.41 126.501 111.396C128.504 121.185 132.359 139.818 132.548 150.476L132.208 150.401C131.452 150.552 131.565 151.95 131.565 153.009C131.528 156.221 133.039 161.853 133.569 165.481L136.063 188.083C136.139 190.539 136.706 191.598 136.214 193.261C135.42 195.944 137.65 203.994 138.066 208.681L139.54 222.703C140.334 232.492 140.636 242.546 141.921 252.448L146.797 300.221C147.213 303.132 147.893 306.004 148.082 308.498C148.46 313.563 149.405 321.009 149.254 325.28L149.556 341.569C149.669 342.779 149.707 345.387 149.594 346.558C149.291 349.506 148.422 351.774 148.762 354.987L151.106 417.727C151.03 420.977 151.219 424.681 152.202 427.705C153.033 430.199 153.184 439.006 152.844 441.462C151.899 447.887 154.167 461.191 153.449 469.28C152.957 474.873 153.487 479.182 153.638 487.497C152.542 485.872 151.672 471.887 151.332 469.28C150.576 463.157 150.803 457.979 149.82 451.629C148.876 445.544 148.8 438.628 148.46 432.883C148.346 431.144 148.082 429.217 148.082 426.798C148.12 423.812 147.893 395.05 146.079 392.177L146.986 415.535C146.986 416.026 147.061 416.669 147.061 417.235L147.099 432.316C147.175 434.092 147.591 434.394 147.591 435.302L147.931 444.259C148.195 447.32 148.611 450.533 148.611 453.368C148.687 459.906 153.789 499.44 153.6 502.464C153.487 504.467 152.995 504.051 153.184 506.432C153.26 507.793 153.562 508.473 153.638 510.552C153.827 515.276 152.957 520.19 153.827 524.876L156.132 577.223ZM131.15 148.965C130.998 151.081 130.961 149.04 131.565 149.985C131.981 148.851 131.83 149.456 131.565 147.982C131.187 148.549 131.225 147.906 131.15 148.965ZM91.9559 446.829C92.0693 445.128 91.9937 445.469 92.863 444.41C92.8252 445.242 93.0142 444.75 92.674 445.62C91.8803 447.774 92.674 445.96 91.9559 446.829ZM156.775 514.18L156.624 514.067C156.586 514.105 156.85 514.18 156.775 514.18ZM157.115 513.538V511.006C156.775 511.572 156.661 510.93 156.624 512.102C156.586 514.709 156.661 512.82 157.115 513.538ZM158.135 489.991H156.132L157.644 496.492C157.644 495.32 158.135 494.64 158.135 489.991ZM160.29 618.987C160.365 618.987 160.063 618.873 160.139 618.835L160.29 618.987ZM160.139 566.187C160.139 563.503 160.139 559.799 160.894 558.514L162.142 557.494C162.18 557.456 162.331 557.38 162.369 557.343C163.049 556.851 162.255 557.305 163.162 556.662L162.104 589.733C161.348 598.88 160.668 608.404 160.63 618.382C159.912 617.172 159.647 614.716 159.609 613.355L159.761 601.45C159.987 599.711 160.365 598.464 159.987 595.932C159.798 594.457 159.761 592.076 159.761 591.094C159.836 589.317 159.798 588.335 159.912 587.125C160.176 584.139 159.647 582.174 159.647 577.752L160.139 566.187ZM105.978 990.93C104.806 992.517 102.047 993.273 100.044 994.029C95.6598 995.654 94.715 993.084 93.9591 995.957C96.378 997.506 99.2126 995.314 101.329 994.294C102.274 993.878 102.161 994.029 103.219 993.689C105.524 992.933 106.205 991.988 109.002 991.95C109.417 991.005 109.304 989.909 109.984 989.418C111.383 989.116 112.101 989.04 113.839 988.776C116.447 988.322 116.901 988.133 116.523 986.697C115.502 983.031 112.819 985.45 111.005 985.941C110.476 984.618 112.025 984.958 109.002 984.958C108.926 980.687 107.641 974.489 107.83 969.613C107.943 966.061 106.054 956.536 105.638 951.736C105.6 951.396 105.487 950.413 105.487 949.317C105.449 939.453 102.954 929.286 102.954 918.741C102.954 910.502 100.535 902.867 100.006 894.628C99.7795 890.999 99.7039 886.804 98.948 883.289L97.663 869.342C96.7559 863.862 97.3984 860.196 96.9071 855.056C96.4157 849.84 95.6976 851.881 98.4567 848.026C97.0961 845.494 96.7937 844.7 96.4535 841.487L96.3024 839.068C96.3024 838.955 96.3024 838.804 96.3024 838.728L94.7906 828.902C94.3748 821.04 93.3921 814.313 93.4299 806.413C93.4299 802.407 93.1654 798.779 93.0142 796.738C92.674 792.202 93.5811 775.988 93.0898 773.342L92.4472 771.982C91.3134 768.845 91.4268 761.475 91.4268 758.262L92.5606 757.884C93.1276 757.695 93.1276 757.733 93.7323 757.506L95.811 756.599C96.9449 756.146 96.9071 756.335 97.9654 755.768L109.304 749.569C115.465 746.13 112.97 750.401 124.535 742.728L126.312 741.481C127.597 740.498 128.239 740.12 129.411 739.062L135.42 733.544C137.31 731.654 144.643 722.961 146.608 721.639C146.419 723.868 146.23 722.924 145.776 724.36C145.361 725.645 145.512 725.569 145.096 726.665C144.454 728.291 143.509 729.235 143.093 731.201C140.674 730.974 140.523 729.16 140.22 731.201C140.069 732.297 141.052 733.544 141.581 734.187C145.436 734.073 146.154 729.878 148.12 724.171C148.838 722.017 149.065 719.56 149.934 717.443C150.765 715.478 152.164 713.853 152.617 712.114L151.635 712.568C150.69 712.946 151.975 712.946 151.106 712.643C151.408 711.434 151.748 710.527 151.975 709.506L156.624 687.547C157.682 688.265 158.098 688.681 159.647 689.059C161.046 682.936 157.304 687.661 160.668 670.539C161.65 665.513 162.633 660.524 163.691 655.497C165.317 647.446 167.093 641.588 167.131 632.895C167.169 630.476 167.735 626.772 164.636 626.357C168.567 634.407 159.836 668.196 159.647 668.536C159.647 658.709 161.991 644.007 161.121 633.916C162.293 633.424 161.953 633.765 163.654 633.387C163.2 631.497 163.427 631.497 163.351 629.947C163.313 628.927 163.124 628.284 163.124 626.357C161.764 628.398 164.107 626.205 161.613 628.889C161.65 626.319 161.008 625.752 161.083 622.88C161.159 620.347 161.613 620.083 161.65 617.361L163.124 585.273C163.2 583.081 163.578 583.194 163.654 580.776L164.069 556.209C163.956 554.281 164.787 552.694 164.561 550.615L163.654 548.158C161.839 549.481 163.011 552.429 160.63 554.168C160.63 553.223 160.743 551.522 160.63 550.653C160.328 547.818 160.819 550.388 159.836 548.423C158.816 546.382 159.194 545.513 158.854 542.905C158.589 541.015 158.438 538.785 158.287 537.5C157.153 524.801 158.022 531.491 158.854 527.371C159.156 525.972 158.098 524.687 157.795 523.289C157.191 520.076 158.06 512.517 158.287 508.776L158.589 497.475C158.589 495.434 159.118 493.771 159.118 492.977V485.456C156.397 484.171 161.31 486.174 158.438 485.267C157.606 485.002 158.249 485.305 157.606 484.965C157.569 482.697 157.228 482.621 157.266 479.9C157.266 479.56 157.266 478.539 157.115 477.481L155.603 457.374C155.603 451.78 155.074 440.064 155.603 435.831C155.792 434.394 156.737 434.243 157.606 433.298L153.978 388.927C153.524 379.516 152.391 371.012 152.995 361.412C153.071 359.787 153.26 357.406 153.26 355.856C153.26 353.021 151.899 349.733 152.353 346.369C153.449 338.546 151.332 341.154 154.129 340.02C154.091 339.415 154.016 338.81 153.978 338.319C153.978 338.243 153.94 337.261 153.94 337.261L154.129 328.001C154.129 326.716 153.524 325.393 153.109 324.486C152.504 325.469 152.957 326.716 153.184 327.963C153.449 329.513 153.071 330.344 152.617 331.024C152.58 324.032 150.614 313.147 150.576 304.946C150.576 299.617 150.35 295.875 150.123 290.886C149.858 285.443 148.006 280.643 151.106 279.85C150.312 276.864 148.951 277.809 148.573 271.837C148.422 269.191 148.044 265.298 147.817 263.031C146.343 249.16 147.175 236.687 146.532 222.401C146.457 220.624 146.986 219.604 146.646 217.601C146.419 216.278 146.835 215.182 145.587 214.691L145.361 221.191C145.361 227.314 144.794 234.231 145.058 240.354L144.605 243.264C142.715 235.289 142.904 225.84 141.77 218.017C141.392 215.22 142.337 214.577 141.959 211.818L138.557 185.097C138.18 180.788 136.857 159.736 136.063 157.998L138.557 156.486L137.802 154.218C136.063 151.006 132.737 125.985 132.51 122.924C132.246 118.993 132.132 114.344 131.339 110.073L130.129 104.291C129.411 101.569 130.016 103.837 128.92 101.947C127.257 99.1504 124.876 76.3221 121.587 68.6496C121.02 67.2512 120.983 66.3819 120.038 65.248C120.265 68.952 126.992 88.7945 125.027 91.8181L123.817 86.489C123.553 85.5819 123.515 85.015 123.288 84.0323C122.041 78.552 116.674 58.2937 114.482 54.2118C115.238 52.2465 114.595 54.0984 115.994 52.2087C112.819 47.7488 108.246 37.9221 107.187 32.4039C106.734 30.0984 107.15 30.7787 106.243 28.8512L101.934 19.1378C100.876 16.9457 100.422 14.6402 99.4394 12.5614C98.4945 10.4827 97.1339 8.93308 96.1512 6.363C95.6598 5.07796 95.5087 4.20867 95.1307 2.84804C94.9039 2.12993 94.6772 1.41182 94.4882 1.03387C93.2032 -1.46062 93.1654 1.10946 92.8252 2.96143C91.8047 8.70631 90.9732 6.09843 88.9323 5.5693C88.252 6.3252 88.7811 5.5693 88.1386 6.77875C84.6992 13.6953 81.2598 14.3756 79.8236 16.9835C79.4457 17.626 79.4835 17.6638 79.1433 18.3441L73.285 30.5142C71.3953 35.7677 68.4095 40.8701 66.1795 46.0102L58.6205 63.0181C57.3354 66.4575 56.0504 68.8386 55.2945 72.6937C54.8032 75.0748 54.7654 75.7551 53.8583 77.7961C50.3433 85.6197 50.7591 88.1898 48.9071 93.4055C48.4913 94.4638 48.4535 94.9929 48.0756 96.089C47.7354 97.1095 47.5465 97.2228 47.1685 98.1677L37.0016 141.254C36.6992 144.618 35.6032 148.435 34.7717 151.988L32.7685 163.024C31.4835 162.117 32.2394 158.716 32.2394 155.503L31.9748 156.221C31.0677 159.169 30.463 168.165 29.4425 172.738C29.0268 174.628 28.8756 176.366 28.4221 178.256L26.2299 186.609C23.2819 195.68 23.4709 200.215 22.3748 209.815L22.1102 217.752C22.1102 217.865 22.1102 218.017 22.1102 218.13C22.1102 218.206 22.1102 218.357 22.1102 218.47C22.0347 221.267 21.3165 224.933 20.9764 227.05L19.2 240.202C18.9354 242.243 18.5197 242.583 18.2929 244.36C17.537 249.991 17.8772 258.873 16.5921 263.749C16.0252 265.903 15.7228 266.092 15.7228 268.813C15.7228 274.369 14.1732 278.565 13.6441 283.818C13.3795 286.237 12.6236 288.391 12.0945 290.81L11.1874 300.41C11.1874 310.993 10.2047 318.476 9.6756 328.983L6.65197 364.587C6.4252 368.669 6.38741 372.07 8.42835 374.905C9.82678 376.794 8.95749 374.413 9.6756 376.643C9.97796 378.306 6.95434 410.546 7.44568 416.102C8.31497 425.702 9.6378 426.533 9.71339 436.851L9.18426 441.84C9.18426 446.451 9.56221 446.111 9.71339 449.361C9.90237 452.914 9.29764 454.35 9.6756 458.394C10.4315 466.407 7.06772 486.665 10.1669 493.506C13.1528 492.713 11.7165 489.878 11.7165 486.968L13.1528 503.069C13.2284 504.391 13.2661 505.714 13.1906 507.037C12.8504 515.881 12.2079 519.245 12.2079 529.601C12.2079 531.906 11.7165 531.302 11.7165 532.587C11.7543 543.85 11.9433 571.818 14.4378 580.511C15.9496 585.84 15.874 589.166 16.5921 594.382C17.2347 598.917 17.1213 607.232 17.537 612.561L19.0866 636.032C19.1622 637.242 19.2 638.602 19.3512 639.774C19.5402 641.135 19.8047 641.739 19.6913 643.931L19.9559 646.766C20.1827 647.56 20.4095 647.598 20.1827 648.769C19.7291 651.339 19.8425 649.412 19.6535 649.79C19.6158 649.865 18.9732 650.281 19.3134 652.776C20.0315 657.689 20.7496 662.111 20.7118 667.516L20.4473 673.865C20.5984 676.209 21.9213 678.476 22.2236 680.555C23.6976 691.894 25.285 702.363 29.178 712.719C29.7827 714.306 29.7071 714.42 30.5386 715.856L34.8095 724.624C37.3795 730.558 41.4992 735.358 45.5055 740.498C47.8488 743.484 50.4567 745.941 53.5937 747.944C59.1118 751.572 65.0079 754.369 71.3953 756.221L72.5291 756.599C72.7181 756.637 72.7559 756.675 72.8693 756.75L72.378 772.284C72.378 775.724 73.0583 781.884 72.0378 784.983C71.5465 786.382 72 784.076 71.4709 786.457C71.3575 787.062 71.3575 787.705 71.3197 788.309C71.0929 803.654 73.0961 802.331 73.4362 806.905L73.2473 813.783C73.0583 816.051 73.3606 814.728 73.3606 816.92L72.6047 826.634C72.6803 831.509 72 838.124 72.6803 843.15C73.8142 851.39 73.0961 860.234 73.3606 868.587C73.5874 875.579 74.3811 873.878 74.3811 885.632C74.3811 887.711 74.8347 885.405 74.8347 888.165C74.8347 889.79 74.6835 889.185 74.6079 890.583L75.0992 900.486C75.4394 902.527 74.8724 903.887 74.8724 905.172L74.9858 908.385C74.5323 912.316 74.6079 916.398 75.4394 920.631C75.8929 922.936 76.3465 922.218 76.4221 925.204C76.6866 936.013 75.8929 941.909 76.989 952.794C77.2913 955.818 77.2913 953.966 76.6866 957.141C75.8173 961.639 77.5181 971.994 77.8583 976.417L77.8961 986.924C77.8961 996.297 78.3496 992.102 75.8929 995.465C79.2189 995.163 77.3291 995.579 80.1638 997.166C81.4488 997.884 80.4661 996.939 81.411 997.96C82.5827 999.283 83.3764 1003.14 83.4142 1004.99H85.4173C85.4173 1004.35 85.4551 1004.2 85.3039 1003.59C84.926 1001.74 85.3039 1003.29 84.926 1002.46C84.8882 1002.34 84.8126 1002.23 84.737 1002.16C83.7921 1000.15 83.074 998.262 82.9228 995.957C85.2284 994.823 86.211 994.823 89.2724 994.294C91.4268 993.954 92.9008 993.009 94.8661 992.366C97.1717 991.572 98.7591 992.631 99.8173 992.253C101.707 991.61 104.164 989.758 105.978 990.93Z" fill="black"/>
<path fill-rule="evenodd" clip-rule="evenodd" d="M145.096 697.072C144.491 699.68 143.395 701.494 141.959 703.459C141.279 704.404 140.636 705.16 139.994 706.029C137.991 708.751 136.025 711.888 133.682 714.269L126.954 722.092C126.123 723.113 125.745 723.793 124.724 724.851C124.649 724.927 124.573 725.04 124.498 725.116L122.192 727.308C119.773 730.105 117.883 732.297 114.86 734.565L109.002 738.722C109.909 734.791 109.039 735.283 111.156 733.355L117.128 727.799C119.849 725.116 124.271 720.429 126.047 717.141C124.006 717.859 124.346 719.144 121.323 721.979C120.794 722.47 120.794 722.47 120.265 722.924L118.337 725.002C117.43 725.872 117.392 725.645 116.372 726.552L110.022 732.184C109.304 731.125 109.606 730.105 107.981 729.689L107.452 737.173C107.641 738.684 107.717 738.495 108.51 739.214L105.524 741.746L103.748 727.497C103.446 726.514 104.693 727.195 102.954 726.703C101.594 728.895 102.917 736.606 102.992 738.193C103.03 739.44 102.954 740.914 102.954 742.199C100.989 742.388 100.535 742.351 99.9685 743.711C100.082 743.787 100.346 743.9 100.271 743.938C100.233 743.938 101.631 745.11 103.824 744.127C107.981 742.237 117.165 734.376 120.416 731.05L122.494 728.669C122.57 728.593 122.683 728.48 122.759 728.404L131.301 718.426C131.376 718.351 131.49 718.199 131.528 718.124L134.06 715.138C137.726 710.451 144.756 702.703 146.079 697.072H145.096Z" fill="black"/>
<path fill-rule="evenodd" clip-rule="evenodd" d="M120 399.207L118.602 400.832C119.282 399.131 118.413 399.623 120 399.207ZM99.4395 419.768C101.291 420.259 100.12 420.297 101.972 420.75C103.106 419.692 102.387 420.448 103.219 419.012L106.091 414.854C106.885 413.947 106.885 413.796 107.641 412.889L114.898 406.124C116.674 404.876 116.863 404.423 118.375 403.1L121.058 400.757C121.134 400.681 121.247 400.568 121.285 400.492C124.006 397.204 123.402 398.64 125.896 396.561C126.652 395.919 129.147 393.727 129.562 393.198C127.143 393.424 128.844 392.933 127.143 394.294C125.669 395.428 121.323 398.867 120 399.207C120.416 397.657 120.302 398.224 121.285 396.977C125.329 392.026 131.414 387.906 132.548 383.144C129.94 383.257 130.545 383.673 127.975 387.113L119.622 395.805C117.619 397.809 117.695 398.867 115.276 401.021L101.632 415.421L99.4395 419.768Z" fill="black"/>
<path fill-rule="evenodd" clip-rule="evenodd" d="M67.8804 721.638L67.6158 717.027C67.4646 714.571 68.7497 715.856 66.8599 715.138C66.8221 716.914 66.6709 716.763 66.7087 717.935C67.1245 728.139 68.0694 732.561 67.8426 743.711C65.6883 742.237 65.0835 741.632 64.8568 738.722C65.3481 738.42 65.6883 738.646 66.3686 737.701C65.8394 735.774 64.3276 734.413 63.5339 732.486C62.6268 730.369 62.7024 727.421 61.8331 725.683C59.8678 727.119 61.1528 727.157 61.3418 729.689C60.019 728.744 60.8127 729.122 59.5654 727.912C58.0158 726.401 58.8851 727.724 57.8268 725.683L57.2599 726.098C57.2599 726.514 63.2316 733.053 63.345 739.705L53.8205 729.198C51.1749 726.325 50.3812 724.662 47.8867 722.092L45.2788 719.635C45.8457 721.676 47.6977 723.339 49.0583 724.927L63.4583 743.106C64.1009 744.164 64.5166 745.903 65.1213 746.508C66.293 747.642 66.4064 746.659 67.3512 746.319C69.1276 745.676 70.2993 748.511 70.3371 744.883L67.8804 721.638Z" fill="black"/>
<path fill-rule="evenodd" clip-rule="evenodd" d="M134.06 508.02C134.098 508.058 133.946 508.171 133.871 508.171L134.06 508.02ZM107.49 534.59C107.981 536.744 108.624 535.988 108.624 537.424C108.624 538.936 107.981 539.125 107.981 541.62C112.328 542.565 109.682 538.294 117.354 528.958C121.928 523.327 126.501 517.355 131.679 512.177C133.039 510.779 134.022 509.04 136.063 508.549C134.967 507.906 135.345 508.587 134.06 508.02C140.296 496.719 128.58 511.761 127.446 513.462C126.803 514.369 126.501 514.898 125.745 515.73L109.757 532.398C108.737 533.267 108.246 533.721 107.49 534.59Z" fill="black"/>
<path fill-rule="evenodd" clip-rule="evenodd" d="M105.487 650.924L105.789 650.243C107.036 647.409 107.906 647.56 110.702 644.158L120.189 635.087C122.948 632.101 124.876 631.308 128.315 628.171L131.868 625.676C133.077 624.618 136.176 621.179 136.592 619.818C137.499 617.097 136.479 618.684 135.232 619.402C135.118 619.478 135.005 619.553 134.891 619.591C134.778 619.667 134.665 619.742 134.551 619.78L132.85 620.687C131.452 621.632 132.964 620.536 131.754 621.557L112.97 637.884C112.895 637.96 112.781 638.035 112.706 638.111L110.891 639.812C108.51 642.004 98.3812 650.697 105.487 650.924Z" fill="black"/>
<path fill-rule="evenodd" clip-rule="evenodd" d="M124.044 578.243L124.082 578.281C123.024 579.15 123.628 578.659 124.044 578.243ZM131.036 573.708C129.827 574.539 129.146 574.691 127.899 575.598C126.614 576.467 126.085 577.336 124.535 577.752C126.387 574.955 132.283 569.135 132.548 565.695C131.112 566.678 125.291 574.237 123.742 575.938L119.32 581.04C117.846 582.779 119.282 581.758 116.561 584.328L111.572 589.355C111.458 589.469 111.156 589.733 111.043 589.809L110.551 590.338C109.077 591.85 102.198 599.258 102.085 601.45C102.009 603.339 102.69 602.432 103.71 602.168C108.019 601.185 105.827 602.054 107.943 598.237C109.531 595.365 111.269 594.004 113.159 591.434C113.991 590.262 113.953 590.111 114.709 588.977L129.222 575.9C130.847 574.539 130.469 575.9 131.036 573.708Z" fill="black"/>
<path fill-rule="evenodd" clip-rule="evenodd" d="M132.057 670.501C129.94 670.501 129.864 671.446 127.219 673.676C126.387 674.357 125.858 674.886 125.102 675.604C125.027 675.679 124.913 675.755 124.838 675.831C124.762 675.906 124.649 676.02 124.573 676.095L108.283 688.379C106.205 690.382 104.768 691.705 102.387 692.99C101.631 693.405 101.669 693.368 101.102 693.708C99.6661 694.464 99.2125 694.501 97.9275 695.068C96.3023 695.787 93.7322 698.394 96.1511 699.377C99.0235 700.549 100.082 697.752 100.951 696.58L128.693 676.171C129.789 675.339 134.778 670.501 132.057 670.501Z" fill="black"/>
<path fill-rule="evenodd" clip-rule="evenodd" d="M56.2017 704.631C56.6175 697.487 53.0647 688.454 51.0616 677.494C49.0962 666.495 48.6805 653.569 46.7907 638.602C44.9009 623.635 41.575 606.628 38.0222 598.615C34.4694 590.64 30.6899 591.661 29.8584 605.343C29.0269 619.024 31.1057 645.406 33.1088 664.908C35.0742 684.372 36.9639 696.958 39.2694 705.387C41.575 713.815 44.2962 718.048 47.849 717.557C51.4017 717.028 55.786 711.774 56.2017 704.631Z" fill="#9CEB57"/>
<path fill-rule="evenodd" clip-rule="evenodd" d="M24.2268 371.919C21.7323 377.248 20.863 389.569 22.4504 396.146C24 402.76 27.9685 403.591 30.5008 398.262C32.9953 392.933 34.0536 381.443 32.4662 374.829C30.9166 368.253 26.7213 366.59 24.2268 371.919Z" fill="#9CEB57"/>
<path fill-rule="evenodd" clip-rule="evenodd" d="M61.2662 103.006C59.2253 105.613 56.0883 113.361 53.2158 122.13C50.3434 130.898 47.7355 140.725 48.0379 146.47C48.3402 152.215 51.5906 153.878 53.9339 151.346C56.2772 148.776 57.7512 141.973 59.4898 133.62C61.1906 125.267 63.1938 115.327 63.7229 109.128C64.252 102.892 63.3072 100.398 61.2662 103.006Z" fill="#9CEB57"/>
<path fill-rule="evenodd" clip-rule="evenodd" d="M48.7182 161.588C46.6773 164.99 43.5403 174.968 40.6678 186.306C37.7954 197.645 35.1875 210.306 35.4899 217.752C35.83 225.16 39.0426 227.314 41.4237 224.026C43.7671 220.7 45.2033 211.932 46.9419 201.16C48.6804 190.35 50.6458 177.538 51.1749 169.487C51.7041 161.475 50.7592 158.224 48.7182 161.588Z" fill="#9CEB57"/>
<path fill-rule="evenodd" clip-rule="evenodd" d="M43.3135 570.722C43.5402 573.103 43.9182 571.894 46.1481 573.897L64.8568 593.777C66.4064 595.402 65.8395 596.196 68.8631 596.272C68.8253 592.832 69.43 593.059 67.5025 591.132L62.9292 586.18C62.1355 585.235 62.1355 585.235 61.1151 584.48L48.5292 572.99C45.6568 570.571 45.9591 569.437 43.3135 570.722Z" fill="black"/>
<path fill-rule="evenodd" clip-rule="evenodd" d="M38.2866 668.007L37.6819 668.423C37.7575 668.498 41.4614 671.484 41.915 671.9L45.6567 676.171C46.9417 677.796 47.9244 679.119 49.2472 680.593C49.3228 680.668 49.4362 680.782 49.5118 680.857L63.7984 694.124C65.8394 695.409 64.3276 693.859 66.1039 695.862C66.7465 696.58 67.5024 697.45 67.8425 698.092C68.485 699.302 68.2961 699.868 68.863 701.078C71.0551 699.642 71.3575 700.473 71.3575 695.56C70.2236 695.295 70.6772 695.333 70.2992 695.182C66.7842 693.67 60.9638 687.623 57.4488 684.939C57.3354 684.864 56.9953 684.599 56.8819 684.486L50.4189 678.401C49.9653 677.985 49.7764 677.834 49.3606 677.456L48.3402 676.473C46.4504 674.47 45.4299 672.543 43.9181 671.787L40.6299 669.67C38.7779 668.423 39.4961 669.632 38.2866 668.007Z" fill="black"/>
<path fill-rule="evenodd" clip-rule="evenodd" d="M56.315 461.38L55.937 461.985C55.8614 461.985 53.2913 460.171 52.8 458.886C53.5937 459.377 53.7071 459.491 54.5386 460.171L55.4079 460.813C56.315 461.494 55.5591 461.002 56.315 461.38ZM49.8142 455.371C50.5323 457.941 51.2882 456.656 52.8 458.886C51.0236 458.432 50.2677 457.336 48.3024 456.883C49.1717 459.377 53.0268 459.944 56.8441 464.404L70.2236 480.618C71.1307 481.487 73.8898 483.15 73.8898 480.467C73.8898 479.56 69.3543 474.684 68.4472 473.853L66.9354 472.341C63.9874 469.128 62.6646 466.709 60.2079 463.535L58.6205 461.607C58.5071 461.531 58.2425 461.191 58.1291 461.078C55.937 458.47 53.9339 455.484 49.8142 455.371Z" fill="black"/>
<path fill-rule="evenodd" clip-rule="evenodd" d="M127.03 448.87L120.491 456.354C120.416 456.429 120.302 456.543 120.227 456.618L116.561 460.473C114.142 462.741 104.202 474.798 102.463 475.932L103.975 480.429C105.978 479.938 105.751 478.691 106.734 476.687C107.528 475.024 108.246 474.117 109.266 472.681L128.013 450.873L127.03 448.87Z" fill="black"/>
<path fill-rule="evenodd" clip-rule="evenodd" d="M122.608 329.626L123.099 329.928L121.928 330.911L121.436 330.609L122.608 329.626ZM102.954 356.083C104.617 353.588 103.483 354.004 104.391 351.472C105.071 349.544 113.083 341.267 115.087 339.604L123.137 329.626C123.477 327.887 128.088 323.428 125.783 322.861C124.573 322.558 125.518 322.71 124.8 323.654L120.038 330.042C118.753 332.045 117.354 332.952 115.843 334.842C115.313 335.522 115.238 335.711 114.784 336.316L106.243 345.311C103.295 347.806 97.0961 355.516 102.954 356.083Z" fill="black"/>
<path fill-rule="evenodd" clip-rule="evenodd" d="M62.8536 340.02C64.2898 340.02 62.8536 340.36 62.8536 340.36C62.7024 340.889 61.6064 340.057 62.8536 340.02ZM57.8268 334.539C57.9402 334.615 58.2048 334.728 58.1292 334.728C58.0536 334.766 58.356 334.917 58.3938 334.955C58.4316 335.031 58.5827 335.144 58.6583 335.182L61.8709 339.037C59.6032 338.432 58.5072 336.316 56.8442 335.031C55.8993 334.275 55.2568 333.708 54.3119 333.028L51.326 331.024C51.8174 333.103 52.7245 333.897 54.2741 335.56L58.2048 339.68C62.6268 344.102 63.6473 343.761 68.7497 350.678C69.6568 351.925 70.0725 352.908 70.8662 354.042C72.9827 353.588 72.9072 353.059 73.8898 351.585C73.2851 350.678 72.8694 350.262 72.0757 349.393C72.0001 349.317 71.8867 349.204 71.8111 349.128L62.2111 337.676C58.8095 333.821 61.115 335.257 57.8268 334.539Z" fill="black"/>
<path fill-rule="evenodd" clip-rule="evenodd" d="M117.997 278.376C116.334 278.791 116.976 279.018 115.124 281.021C110.211 286.313 111.572 283.705 106.621 291.037C106.054 291.869 106.432 291.377 105.978 291.906L103.068 295.006C102.614 295.535 102.236 296.064 101.707 296.669C100.006 298.558 98.8347 298.899 97.5496 299.995C96.4536 300.939 96.3024 301.393 95.9244 302.943L97.5118 303.85C100.233 303.283 101.972 300.297 103.824 298.256C105.6 296.253 111.836 290.319 112.025 288.58C112.025 288.24 110.929 288.694 113.65 285.519C114.671 284.31 115.54 283.667 116.636 282.495C117.392 281.664 118.224 280.832 118.337 279.736C118.602 277.053 118.602 279.321 117.997 278.376Z" fill="black"/>
<path fill-rule="evenodd" clip-rule="evenodd" d="M109.984 86.3001C109.984 81.6135 109.002 77.6072 108.246 73.4875C107.83 71.2198 107.717 69.0277 107.376 66.8734C107.15 65.5127 106.923 63.6986 106.432 61.2419L103.37 49.2986C102.539 46.1238 101.48 40.7568 98.4568 39.1694C98.1544 39.5474 97.4363 40.3789 97.4363 40.6434C97.4363 41.6639 99.0993 43.1379 100.233 45.4057C100.611 46.2372 100.724 46.6529 101.14 47.4844C104.92 55.5348 104.239 55.497 105.94 63.7742L109.115 85.1663C109.984 91.3647 113.046 110.603 115.011 115.894C115.2 116.461 115.918 117.973 116.069 118.577C116.107 118.615 116.107 118.766 116.145 118.842C116.523 120.316 116.183 120.051 117.506 120.391L114.86 112.492C114.293 109.809 113.688 106.747 112.932 103.913L109.984 86.3001Z" fill="black"/>
<path fill-rule="evenodd" clip-rule="evenodd" d="M56.3149 242.243C56.4283 246.023 59.4519 249.689 61.7953 252.864C62.5512 253.922 62.6645 254.149 63.3827 255.245C66.7086 260.423 65.4614 262.01 68.863 262.313L69.6567 260.725C69.6945 260.65 69.6945 260.499 69.7323 260.385C70.4504 256.795 69.8457 257.55 65.4236 251.692C64.7055 250.747 64.2897 250.105 63.5338 249.084L63.0803 248.555C61.2661 246.288 61.7197 245.834 59.7921 243.793C58.6205 242.546 59.9811 243.415 58.3937 242.697C57.7134 242.395 57.4488 242.357 56.3149 242.243Z" fill="black"/>
<path fill-rule="evenodd" clip-rule="evenodd" d="M51.326 282.873C54.0851 285.254 53.5182 283.365 56.3906 287.862C56.9953 288.807 57.6379 289.676 58.5072 290.735C59.8678 292.398 63.7985 298.71 64.0631 300.448L64.3654 301.96C65.9528 305.248 68.3717 303.434 69.3544 302.943C69.2788 300.108 67.578 298.029 66.1418 296.139C65.3481 295.081 64.5922 294.325 63.7985 293.456L62.589 292.171C60.3591 289.714 57.1087 283.478 54.4631 282.155C52.4599 281.173 52.2709 281.437 51.326 282.873Z" fill="black"/>
<path fill-rule="evenodd" clip-rule="evenodd" d="M104.466 243.264C104.504 243.188 104.617 243.415 104.617 243.415L104.466 243.264ZM109.493 237.746C109.531 237.708 109.644 237.897 109.644 237.897L109.493 237.746ZM111.874 235.629C111.458 237.33 112.554 236.196 110.476 237.217L111.874 235.629ZM95.4331 255.812C98.041 255.736 97.8142 255.472 98.7591 253.582L100.838 250.18C104.126 245.078 104.769 245.38 108.472 241.223L109.682 239.938C110.287 239.258 110.551 238.955 111.118 238.351C112.781 236.385 112.063 236.045 112.517 235.1C113.159 233.815 115.238 233.248 114.709 231.925C113.575 228.864 102.69 243.68 101.707 244.965C100.233 246.968 96.1512 250.785 95.6221 252.939C95.3575 253.96 95.4331 254.754 95.4331 255.812Z" fill="black"/>
<path fill-rule="evenodd" clip-rule="evenodd" d="M67.3512 531.604C64.7055 531.604 65.7638 531.906 64.1764 530.772C61.7575 528.958 61.7197 528.354 60.3212 527.106C60.2456 527.031 60.1323 526.917 60.0567 526.879L57.2598 524.65C54.8031 522.609 55.8236 523.667 53.5181 523.251C52.2708 523.024 50.7968 522.193 49.0204 522.193C47.0173 522.193 46.9417 522.873 46.7905 524.574C49.6252 523.176 50.759 524.763 52.9134 525.972C58.2425 529.034 59.1118 531.528 64.9701 535.005C67.5779 536.593 65.9527 536.933 68.3716 537.613C68.3716 534.779 67.5401 533.985 67.3512 531.604Z" fill="black"/>
<path fill-rule="evenodd" clip-rule="evenodd" d="M51.8174 633.916C51.1748 635.654 50.7591 634.747 50.3055 636.41C50.6835 636.599 51.4394 636.826 51.7418 636.977L54.274 638.489C56.2772 639.661 58.8095 642.609 60.2835 644.498C60.3591 644.612 60.5859 644.99 60.6992 645.103C61.0772 645.632 61.0394 645.67 61.4929 646.313L65.3859 651.415C66.4441 652.813 66.7087 652.511 66.8599 654.439C74.4567 653.872 64.8567 645.67 63.2315 644.045C56.4284 637.317 61.5685 641.059 52.7244 634.483C51.9685 633.916 52.5355 634.294 51.8174 633.916Z" fill="black"/>
<path fill-rule="evenodd" clip-rule="evenodd" d="M109.493 184.076C109.947 183.396 112.29 180.259 109.304 181.279L102.841 187.969C101.291 189.594 101.178 190.539 98.4568 190.615L98.9481 196.133C102.539 195.302 105.6 190.955 108.699 187.289L110.173 185.777C110.249 185.702 110.362 185.588 110.438 185.513C111.912 184.076 113.084 183.131 113.499 181.582C112.328 182.338 110.778 183.736 109.493 184.076Z" fill="black"/>
<path fill-rule="evenodd" clip-rule="evenodd" d="M50.3055 396.713L55.3701 402.155C57.3355 404.045 59.0363 405.632 61.0016 407.598C61.5307 408.127 61.6819 408.278 62.2111 408.883L63.4205 410.206C66.3307 413.38 68.5229 417.689 70.8662 419.276L73.2851 417.16L54.8788 398.678C54.8032 398.602 54.6898 398.489 54.5764 398.451C52.989 397.053 52.2709 395.768 50.3055 396.713Z" fill="black"/>
<path fill-rule="evenodd" clip-rule="evenodd" d="M23.2441 280.87H24.2268C24.2268 266.735 25.6252 262.464 28.0441 248.555C29.178 241.979 28.9134 241.601 30.5386 235.516C31.03 233.702 31.2567 230.338 31.2567 228.221C27.9686 228.524 29.178 230.035 29.0646 232.114C28.5733 241.639 25.4741 255.283 24.0378 265.374C23.4709 269.569 23.2441 274.634 23.2441 280.87Z" fill="black"/>
<path fill-rule="evenodd" clip-rule="evenodd" d="M84.926 891.642C84.926 890.206 84.4725 891.377 84.3969 887.106C84.3213 881.702 83.4142 876.486 83.4142 870.099L82.5827 861.67C82.5827 861.632 82.5072 860.65 82.4694 860.499L79.8993 846.023C79.5591 846.779 79.4457 845.191 79.8615 847.497C80.2016 849.122 80.0883 847.913 80.3528 849.576C81.3733 856.53 82.9229 876.864 82.9229 882.609L83.641 891.528C83.7544 892.473 83.4142 898.294 83.4142 901.166H86.8914C86.0977 899.692 85.682 899.201 85.4174 897.16C85.1528 895.119 84.8883 894.023 84.926 891.642Z" fill="black"/>
<path fill-rule="evenodd" clip-rule="evenodd" d="M139.087 290.395C137.953 291.15 137.575 290.961 137.726 292.662C137.802 293.418 138.444 295.346 138.709 296.291C139.314 298.823 138.898 301.695 139.2 304.832C139.578 308.99 138.595 324.448 139.578 326.489C141.279 323.806 140.258 308.839 140.788 304.643C141.241 301.015 140.561 299.239 140.561 295.421C140.561 294.25 142.564 292.209 139.087 290.395Z" fill="black"/>
<path fill-rule="evenodd" clip-rule="evenodd" d="M23.7355 298.936C19.767 299.995 21.2032 306.571 20.5607 311.522L18.6709 346.105C18.8977 348.335 18.2552 346.974 19.7292 348.07L20.3339 332.121C21.2788 325.847 21.2032 312.429 22.337 305.059C22.7906 301.96 22.904 302.905 24.2268 300.939C23.6977 299.806 23.8866 300.486 23.7355 298.936Z" fill="black"/>
<path fill-rule="evenodd" clip-rule="evenodd" d="M51.3261 109.846C50.0788 110.754 50.1166 110.338 50.3434 112.794C50.5702 115.1 50.608 113.55 50.3812 115.894C50.1166 118.842 50.1166 121.072 49.9277 122.508C48.5292 133.166 44.3718 149.796 43.8048 157.506C43.7292 158.867 43.767 159.812 43.6158 161.097L44.6363 157.128C44.6363 157.053 44.6741 156.902 44.6741 156.826L48.3025 137.437C48.8316 131.692 50.041 130.105 50.7592 124.851C51.2505 120.958 53.5182 110.224 51.3261 109.846Z" fill="black"/>
<path fill-rule="evenodd" clip-rule="evenodd" d="M78.8788 29.1158C78.8788 31.6859 74.9103 44.0072 73.4741 46.804L66.6709 64.53C66.2174 65.9662 65.8394 66.7599 65.4615 67.856C65.1213 68.8765 65.6127 67.6292 65.2347 68.6119L60.8505 80.782C62.4001 79.6103 65.5371 69.4056 66.5576 66.9489L79.0678 34.3316C79.7481 32.7442 80.2016 32.7064 80.8442 31.0812C83.3764 24.656 78.8788 27.1505 78.8788 29.1158Z" fill="black"/>
<path fill-rule="evenodd" clip-rule="evenodd" d="M58.3559 188.612C57.3733 189.443 56.9953 189.292 56.8441 191.106C58.1292 191.56 58.8095 192.089 60.2079 193.752C62.1355 196.057 65.3858 200.215 68.1071 201.5C69.241 201.991 69.4677 202.823 70.0725 201.5C70.5638 200.328 70.6394 201.613 69.5433 199.535C68.3717 197.418 64.9701 195.566 61.4551 191.976C60.0945 190.615 59.7544 189.557 58.3559 188.612Z" fill="black"/>
<path fill-rule="evenodd" clip-rule="evenodd" d="M28.2332 590.262C28.2332 586.18 27.6663 572.196 26.7592 570.722C26.1922 571.894 27.2505 579.226 27.2505 579.226L27.4395 588.864C27.5529 594.495 26.9859 602.432 28.9513 607.648C29.556 609.311 29.5938 609.878 31.2568 610.332C31.2946 610.294 32.3907 609.765 32.0505 608.706C31.7481 607.762 31.5592 608.366 30.5765 607.006C29.6694 605.683 29.3293 602.886 29.2537 600.807L28.2332 590.262Z" fill="black"/>
<path fill-rule="evenodd" clip-rule="evenodd" d="M79.937 779.881L82.1669 809.588C82.2047 810.949 81.9024 810.231 82.0535 812.158C82.1291 813.368 81.978 820.473 82.3937 821.456C82.6583 821.343 84.3213 821.834 84.0945 817.676C83.9433 815.257 83.4898 813.972 83.4142 811.931L81.3354 790.388C80.8441 787.138 81.411 782.376 79.937 779.881Z" fill="black"/>
<path fill-rule="evenodd" clip-rule="evenodd" d="M149.102 664.492C147.591 666.911 148.498 669.141 147.817 671.711C147.515 672.845 147.175 673.563 146.797 674.697C144.907 680.253 145.852 679.61 142.375 687.358C141.468 689.437 141.279 688.265 141.09 690.571C143.32 690.495 142.715 691.289 144.869 685.847C147.817 678.439 148.082 675.604 149.216 668.121C149.329 667.629 149.783 667.062 149.556 665.55C149.405 664.492 149.443 665.021 149.102 664.492Z" fill="black"/>
<path fill-rule="evenodd" clip-rule="evenodd" d="M96.9449 727.686C95.7354 729.651 96.7181 733.166 96.5669 735.32C96.3024 739.1 96.8693 743.522 96.8315 744.127C96.6047 746.357 95.0551 747.717 98.9102 747.679C98.948 745.412 98.759 743.938 98.6079 742.955C97.663 736.605 98.3433 733.279 98.0031 729.651C97.7386 727.346 98.4567 728.782 96.9449 727.686Z" fill="black"/>
<path fill-rule="evenodd" clip-rule="evenodd" d="M26.7591 490.974C26.7591 490.974 26.419 489.046 26.419 489.009C23.9245 483.68 25.7386 499.478 25.7386 499.516C25.852 502.161 26.6835 503.938 26.4945 505.336C26.23 507.566 26.1544 505.487 25.5497 507.377C25.0583 508.813 25.7008 508.889 27.2504 509.04C28.0819 507.302 27.0237 502.539 26.9103 501.103C26.6079 497.928 26.7591 494.338 26.7591 490.974Z" fill="black"/>
<path fill-rule="evenodd" clip-rule="evenodd" d="M79.8992 40.1519C78.3874 41.1723 78.652 40.7944 78.085 42.8353L71.8866 67.7424C72.7559 63.9251 73.1716 63.9629 74.0787 60.9015C74.5701 59.2385 74.5701 59.0117 75.1748 57.4999C75.6283 56.3282 76.0819 55.0054 76.2708 54.0983L79.3323 43.5912C79.748 42.344 80.8819 41.0211 79.8992 40.1519Z" fill="black"/>
<path fill-rule="evenodd" clip-rule="evenodd" d="M140.069 328.001C140.145 330.646 141.165 331.516 140.825 337.223C140.674 339.831 140.561 344.895 140.561 349.053L142.072 336.996C142.299 332.158 143.395 328.265 140.069 328.001Z" fill="black"/>
<path fill-rule="evenodd" clip-rule="evenodd" d="M107.981 569.702C106.734 572.272 106.923 575.9 107.225 578.092C107.301 578.546 107.301 578.924 107.452 579.755C107.754 581.796 107.717 581.834 109.002 582.741L108.888 572.725C109.002 570.571 108.775 570.344 107.981 569.702Z" fill="black"/>
<path fill-rule="evenodd" clip-rule="evenodd" d="M96.9449 54.7031C95.1307 56.026 96.3024 56.7819 96.9449 59.2008C97.4363 61.0149 97.6252 62.489 98.1544 64.5299C98.4189 65.4748 98.6835 66.0795 98.7591 66.722C98.9103 67.7047 98.6457 69.4055 99.2504 70.9551C100.12 73.1094 99.9685 70.9929 99.9685 75.2638H100.46C100.46 71.522 98.1544 57.1976 96.9449 54.7031Z" fill="black"/>
<path fill-rule="evenodd" clip-rule="evenodd" d="M58.8473 452.347L58.2426 452.801C58.2426 452.952 58.6583 453.103 58.5827 453.141L64.9701 461.267C67.389 463.913 65.8394 463.346 68.3717 463.383C68.2205 461.531 67.767 461.305 66.4441 460.284C65.1213 459.264 64.9701 459.264 63.7229 458.016L58.8473 452.347Z" fill="black"/>
<path fill-rule="evenodd" clip-rule="evenodd" d="M82.9229 731.73C81.4489 732.788 81.9024 734.867 82.4694 739.667C82.7339 742.237 82.9229 744.505 83.9056 747.226C84.4725 748.662 83.9812 747.566 84.3969 748.247L82.9229 731.73Z" fill="black"/>
<path fill-rule="evenodd" clip-rule="evenodd" d="M25.2473 444.864L23.2441 444.826C22.7528 446.98 24.3402 454.313 25.2095 455.333L25.2473 444.864Z" fill="black"/>
<path fill-rule="evenodd" clip-rule="evenodd" d="M153.109 636.902L152.088 653.418C153.978 649.639 153.411 643.705 153.638 640.379C153.713 639.207 153.902 638.943 153.827 638.451C153.676 636.977 153.411 637.28 153.109 636.902Z" fill="black"/>
<path fill-rule="evenodd" clip-rule="evenodd" d="M115.011 567.207C112.781 568.379 113.461 567.283 113.499 575.22C114.709 574.728 114.217 575.257 114.671 573.859C114.784 573.519 115.88 567.963 115.011 567.207Z" fill="black"/>
<path fill-rule="evenodd" clip-rule="evenodd" d="M102.954 342.023C105.298 341.418 105.94 340.435 105.94 337.563C104.92 337.563 105.071 337.336 104.239 337.828C101.556 339.339 102.917 341.834 102.954 342.023Z" fill="black"/>
<path fill-rule="evenodd" clip-rule="evenodd" d="M120 318.476C118.677 319.383 115.805 323.465 115.011 324.977C117.581 324.713 116.976 324.032 118.299 322.256L118.715 321.689C118.791 321.613 118.904 321.5 118.98 321.424C119.66 320.517 120.907 319.27 120 318.476Z" fill="black"/>
<path fill-rule="evenodd" clip-rule="evenodd" d="M125.027 714.646C126.425 714.268 126.501 714.117 127.408 713.021C129.298 710.791 129.071 710.942 128.617 710.489C128.05 709.922 125.065 710.716 125.027 714.646Z" fill="black"/>
<path fill-rule="evenodd" clip-rule="evenodd" d="M21.2409 288.391C21.2409 291.075 20.6739 291.264 22.2235 292.398C23.2062 291.68 23.433 291.68 23.4708 289.601C23.5086 287.976 23.244 288.391 21.2409 288.391Z" fill="black"/>
<path fill-rule="evenodd" clip-rule="evenodd" d="M25.7386 474.949C22.3749 475.213 24.189 477.557 24.378 477.783C25.3229 478.842 24.3024 478.048 25.7386 478.426C26.4946 476.914 25.9276 476.801 25.7386 474.949Z" fill="black"/>
<path fill-rule="evenodd" clip-rule="evenodd" d="M59.83 447.358C59.4142 448.417 59.7922 448.757 62.0599 451.743C62.5512 452.423 62.0977 452.121 62.7024 452.423C63.7985 453.028 63.7607 451.969 62.8914 450.873L59.83 447.358Z" fill="black"/>
<path fill-rule="evenodd" clip-rule="evenodd" d="M32.7685 330.495C30.9922 331.44 31.3323 330.42 30.7654 332.499C33.1843 334.728 34.2425 333.557 32.7685 330.495Z" fill="black"/>
<path fill-rule="evenodd" clip-rule="evenodd" d="M117.997 569.702C119.584 568.492 118.677 569.777 119.169 567.358C119.32 566.527 119.509 565.582 119.509 564.184C117.921 565.431 117.581 567.85 117.997 569.702Z" fill="black"/>
<path fill-rule="evenodd" clip-rule="evenodd" d="M109.002 331.516C109.569 333.141 108.359 331.856 110.476 333.028C111.685 332.121 111.572 332.272 111.987 330.495C109.228 330.571 109.757 330.836 109.002 331.516Z" fill="black"/>
<path fill-rule="evenodd" clip-rule="evenodd" d="M24.7181 455.862C24.7181 458.621 25.2473 459.339 25.2473 461.38H25.7386V455.9L24.7181 455.862Z" fill="black"/>
<path fill-rule="evenodd" clip-rule="evenodd" d="M59.8678 82.8228C59.263 83.9944 58.6583 85.8464 58.356 87.2826C59.3386 86.5645 60.0945 84.5613 60.1701 84.07C60.5103 81.8023 60.2457 83.4653 59.8678 82.8228Z" fill="black"/>
<path fill-rule="evenodd" clip-rule="evenodd" d="M56.8441 91.8181H57.3355C57.3355 89.6259 58.1292 90.2307 58.3181 87.8118C58.2425 87.8874 58.2425 88.0385 58.0914 88.0763C57.5622 88.2275 56.8441 90.1173 56.8441 91.8181Z" fill="black"/>
<path fill-rule="evenodd" clip-rule="evenodd" d="M92.4473 438.817V443.843C92.7496 443.314 92.7118 443.843 92.9008 442.785C93.1276 441.538 93.0898 439.875 92.4473 438.817Z" fill="black"/>
<path fill-rule="evenodd" clip-rule="evenodd" d="M98.948 555.68C98.1165 557.229 97.9653 557.229 97.9653 559.686L99.2504 556.511C99.2504 555.037 99.3638 556.398 98.948 555.68Z" fill="black"/>
<path fill-rule="evenodd" clip-rule="evenodd" d="M26.7213 566.716L26.1544 567.094C26.1544 567.283 26.5324 567.434 26.4568 567.51L27.2505 570.231C27.2505 568.908 27.4395 567.358 26.7213 566.716Z" fill="black"/>
<path fill-rule="evenodd" clip-rule="evenodd" d="M25.7385 545.626V542.64C25.4362 543.131 25.1338 541.657 25.2094 544.152C25.2472 546.798 25.2472 544.87 25.7385 545.626Z" fill="black"/>
<path fill-rule="evenodd" clip-rule="evenodd" d="M79.4079 777.311C79.4079 777.613 79.3701 778.143 79.4457 778.294C79.6725 779.163 79.5969 778.823 79.8992 779.314C80.126 778.294 80.6551 777.5 79.4079 777.311Z" fill="black"/>
<path fill-rule="evenodd" clip-rule="evenodd" d="M85.4174 48.6936C86.8536 47.5976 86.2866 48.9204 86.3622 46.7283C85.6063 47.6354 85.7197 47.4086 85.4174 48.6936Z" fill="black"/>
<path fill-rule="evenodd" clip-rule="evenodd" d="M85.9087 44.6497C85.9087 47.2575 85.9087 45.4812 86.4 46.1993C86.4 43.5914 86.3622 45.3678 85.9087 44.6497Z" fill="black"/>
<path fill-rule="evenodd" clip-rule="evenodd" d="M56.3906 92.7251C56.2016 92.6873 56.0126 92.8385 56.0504 93.481C56.126 94.3881 55.9748 93.7456 56.315 94.3125L56.6173 93.2543L56.3906 92.7251Z" fill="black"/>
<path fill-rule="evenodd" clip-rule="evenodd" d="M24.756 546.155L25.3985 547.743C25.5119 547.062 25.7765 546.269 24.756 546.155Z" fill="black"/>
<path fill-rule="evenodd" clip-rule="evenodd" d="M60.3591 81.2731C59.9055 81.7645 61.0772 83.0495 60.6236 81.8401C60.6236 81.8401 61.1528 80.4038 60.3591 81.2731Z" fill="black"/>
<path fill-rule="evenodd" clip-rule="evenodd" d="M86.4 40.6433L86.4378 42.1551C87.0803 41.1346 86.7402 41.1724 86.4 40.6433Z" fill="black"/>
<path fill-rule="evenodd" clip-rule="evenodd" d="M79.4079 773.305L79.3323 773.38C80.0882 774.061 80.0504 773.947 79.4079 773.305Z" fill="black"/>
<path fill-rule="evenodd" clip-rule="evenodd" d="M42.7843 175.043L42.9355 175.195C42.9355 175.195 42.8221 175.006 42.7843 175.043Z" fill="black"/>
<path fill-rule="evenodd" clip-rule="evenodd" d="M85.9087 42.6842L86.0599 42.8354C86.0599 42.7976 85.9843 42.6086 85.9087 42.6842Z" fill="black"/>
<path fill-rule="evenodd" clip-rule="evenodd" d="M130.545 145.487L130.696 145.601C130.696 145.601 130.583 145.412 130.545 145.487Z" fill="black"/>
<path fill-rule="evenodd" clip-rule="evenodd" d="M0.151181 282.382C0.113386 282.306 0.0377953 282.495 0 282.533L0.151181 282.382Z" fill="black"/>
<path fill-rule="evenodd" clip-rule="evenodd" d="M15.7229 370.142L15.8741 370.294C15.8741 370.294 15.7607 370.105 15.7229 370.142Z" fill="black"/>
<path fill-rule="evenodd" clip-rule="evenodd" d="M87.4583 19.1379L87.5716 19.2513C87.5716 19.2513 87.496 19.1001 87.4583 19.1379Z" fill="black"/>
<path fill-rule="evenodd" clip-rule="evenodd" d="M50.8347 632.933L50.9859 633.046C50.9859 633.046 50.8725 632.895 50.8347 632.933Z" fill="black"/>
<path fill-rule="evenodd" clip-rule="evenodd" d="M26.23 565.695C26.1922 565.733 26.4568 565.846 26.3812 565.846C26.3434 565.846 26.4568 565.922 26.4568 565.922L26.23 565.695Z" fill="black"/>
<path fill-rule="evenodd" clip-rule="evenodd" d="M81.4111 14.0732C81.2599 14.2244 81.1843 14.3 81.1843 14.3L81.4111 14.0732Z" fill="black"/>
</svg>
