<svg width="182" height="457" viewBox="0 0 182 457" fill="none" xmlns="http://www.w3.org/2000/svg">
<path fill-rule="evenodd" clip-rule="evenodd" d="M60.8504 447.194C63.3071 449.083 68.7874 452.183 71.5087 453.581C74.2299 454.979 74.1544 454.677 75.9685 451.2C77.7827 447.723 81.4866 441.071 85.9843 430.564C90.5197 420.057 95.8866 405.732 99.2504 392.239C102.652 378.784 104.088 366.161 104.693 354.746C105.26 343.294 105.033 333.052 104.391 325.757C103.786 318.425 102.765 314.041 102.274 311.811C101.745 309.619 101.745 309.619 99.3638 309.694C96.9827 309.732 92.2583 309.846 89.8772 309.921C87.4961 309.997 87.4961 309.997 88.063 314.343C88.6677 318.728 89.8772 327.458 90.7465 334.753C91.6536 342.047 92.2583 347.868 92.3339 354.217C92.4095 360.567 91.9937 367.408 90.8599 373.757C89.6882 380.069 87.7607 385.928 84.6992 393.865C81.6378 401.839 77.4425 411.968 74.1544 418.961C70.8662 425.953 68.5607 429.808 66.3685 433.361C64.2142 436.913 62.211 440.126 61.0772 441.827C59.9433 443.49 59.6788 443.679 59.3008 444.132C58.9229 444.586 58.3937 445.304 60.8504 447.194Z" fill="#794120"/>
<path fill-rule="evenodd" clip-rule="evenodd" d="M89.4991 5.82042C86.7779 6.50074 82.8472 8.65507 77.8582 13.6063C72.8314 18.5196 66.7842 26.2677 63.7227 30.1228C60.6991 34.0157 60.6991 34.0157 58.9227 32.1637C57.1464 30.3118 53.5558 26.6456 51.7794 24.7181C50.0031 22.8283 50.0031 22.7149 49.2094 30.3874C48.4535 38.0598 46.9038 53.5181 46.1101 61.2661C45.3542 69.0141 45.3542 69.0141 43.1999 67.5779C41.0834 66.1417 36.7747 63.2692 34.6582 61.8708C32.5039 60.4346 32.5039 60.4346 31.9747 67.8047C31.4456 75.1748 30.3495 89.9527 29.8204 97.3228C29.2913 104.693 29.2913 104.693 27.1369 103.975C25.0204 103.257 20.7117 101.858 18.5952 101.14C16.4409 100.422 16.4409 100.422 16.97 108.964C17.4991 117.543 18.5952 134.702 19.1243 143.244C19.6535 151.824 19.6535 151.824 17.3857 150.161C15.118 148.498 10.6204 145.172 8.35267 143.509C6.08495 141.846 6.08495 141.846 7.93692 147.704C9.78889 153.6 13.455 165.392 15.307 171.288C17.159 177.184 17.159 177.184 14.7779 176.693C12.3968 176.239 7.63456 175.257 5.29125 174.803C2.98574 174.312 3.09913 174.312 4.04401 178.394C4.9511 182.438 6.68968 190.564 8.54165 197.594C10.3936 204.586 12.359 210.52 13.3039 213.468C14.2865 216.454 14.2865 216.454 12.3212 215.546C10.3558 214.639 6.42511 212.863 4.45976 211.994C2.4944 211.087 2.4944 211.087 6.31173 217.398C10.129 223.71 17.7259 236.334 21.5432 242.608C25.3605 248.92 25.3605 248.92 23.1684 249.411C20.9385 249.902 16.5542 250.847 14.3621 251.301C12.1322 251.792 12.1322 251.792 17.159 256.063C22.1479 260.372 32.1259 268.913 37.1527 273.222C42.1416 277.493 42.1416 277.493 40.1763 278.627C38.2109 279.761 34.2802 282.028 32.3149 283.162C30.3495 284.258 30.3495 284.258 34.1668 286.828C37.9842 289.398 45.581 294.501 53.9716 298.885C62.3621 303.269 71.5086 306.898 79.2944 308.75C87.0802 310.639 93.5054 310.791 100.422 310.224C107.338 309.657 114.709 308.372 121.323 306.822C127.937 305.235 133.757 303.307 139.842 301.342C145.927 299.376 152.201 297.373 155.376 296.353C158.513 295.332 158.513 295.332 155.565 294.765C152.579 294.161 146.608 292.951 143.546 292.195C140.447 291.402 140.183 291.061 142.337 289.587C144.491 288.076 148.989 285.468 153.298 282.028C157.568 278.551 161.613 274.28 165.43 269.405C169.247 264.529 172.8 259.049 174.576 256.328C176.39 253.568 176.39 253.568 173.216 254.4C170.079 255.231 163.767 256.894 160.592 257.726C157.455 258.557 157.455 258.557 160.592 251.187C163.767 243.817 170.079 229.077 173.216 221.669C176.39 214.299 176.39 214.299 174.123 215.131C171.855 215.962 167.32 217.625 165.09 218.343C162.822 219.061 162.822 218.835 164.825 212.939C166.866 207.042 170.91 195.515 172.913 189.732C174.954 183.95 174.954 183.95 172.8 185.159C170.646 186.331 166.375 188.712 164.22 189.921C162.104 191.093 162.104 191.093 164.183 183.95C166.261 176.806 170.419 162.52 172.498 155.376C174.576 148.271 174.576 148.271 171.855 149.934C169.134 151.597 163.653 154.923 160.894 156.586C158.173 158.249 158.173 158.249 159.42 152.164C160.668 146.116 163.162 133.984 164.409 127.899C165.657 121.852 165.657 121.852 163.767 123.25C161.839 124.687 158.06 127.559 156.132 128.957C154.242 130.394 154.242 130.394 154.167 121.89C154.129 113.386 154.016 96.3779 153.94 87.874C153.902 79.3322 153.902 79.3322 151.748 81.2598C149.594 83.1496 145.323 86.9669 143.168 88.8566C141.014 90.7842 141.014 90.7842 140.447 82.507C139.842 74.2299 138.671 57.6755 138.066 49.4362C137.461 41.159 137.461 41.159 135.798 43.3511C134.135 45.5433 130.809 49.9653 129.146 52.1574C127.483 54.3496 127.483 54.3496 125.745 49.0582C124.006 43.7669 120.567 33.1842 118.828 27.8929C117.127 22.6015 117.127 22.6015 116.031 23.6976C114.973 24.8314 112.819 27.0992 111.761 28.233C110.702 29.3669 110.702 29.3669 108.132 25.5496C105.562 21.77 100.46 14.1354 97.1338 9.9779C93.77 5.82042 92.2582 5.10231 89.4991 5.82042Z" fill="#64B382"/>
<path fill-rule="evenodd" clip-rule="evenodd" d="M174.047 222.576L173.934 222.501C173.972 222.463 174.047 222.576 174.047 222.576ZM173.858 223.257C173.82 223.257 173.972 223.332 173.934 223.332L173.858 223.257ZM96.2646 37.6819C96.0378 36.0189 95.6598 34.3937 95.4709 32.7685C95.3197 31.5591 95.4331 31.1811 95.1685 30.2362C94.9417 29.5181 94.7906 29.0646 94.6772 28.1575C92.9764 17.5748 92.7874 21.5433 94.5638 14.5512C94.7528 13.7575 94.8661 13.0016 95.0929 12.2835C95.0929 12.2457 95.4709 11.3386 95.5087 11.263L95.9622 10.5449C96.8315 11.8677 97.8898 12.737 98.7213 14.0976L102.614 19.3134C105.146 22.2992 107.225 24.9071 108.85 28.5354C110.476 32.2394 109.606 30.5764 109.228 32.7307C109.002 33.978 109.871 33.6378 110.476 33.1087C110.816 32.8063 110.589 33.0331 110.891 32.6173L112.479 30.1984C112.592 29.7827 112.517 29.4047 112.592 28.9134C112.819 27.7417 113.159 27.7795 113.386 26.8346C113.461 26.8724 113.537 26.948 113.575 26.948C114.973 27.6661 115.729 26.9102 116.523 25.7008C116.712 25.8898 116.674 25.852 116.901 26.1921C117.543 27.2126 117.77 28.5354 118.148 29.8205C118.602 31.4835 118.753 32.7307 119.282 34.3559C120.945 39.2693 120.983 48.4157 124.384 52.1575C124.8 52.611 125.254 52.9512 125.518 53.8583C125.858 55.0299 125.556 54.9921 126.123 56.0882C126.728 57.222 127.03 59.074 128.239 59.4142C128.126 58.0157 127.672 58.0913 127.408 56.8441L128.164 56.1638C129.524 55.0677 130.847 54.2362 132.019 52.9134C132.548 52.3087 132.699 51.9685 133.115 51.4016C133.833 50.3433 134.816 49.5496 135.723 48.3024L137.953 45.0898C138.369 46.1102 137.991 47.2441 137.953 49.1339L137.688 53.4047C137.688 54.7654 137.953 53.1024 137.877 54.7654C137.461 62.0976 138.822 61.7197 138.822 65.1213L138.898 72.8693C138.898 76.1575 139.843 80.0126 140.069 83.263C140.107 84.1323 140.372 84.8126 140.447 85.4551L140.523 87.3827C140.523 88.7811 139.843 90.5953 139.389 91.7291C138.746 93.3165 140.22 92.863 141.09 92.2583L141.165 93.6189C141.165 93.6945 141.203 93.7701 141.203 93.8457L141.392 94.2614C142.866 93.2031 141.619 92.9008 142.677 92.1071C143.282 91.6535 142.224 92.2583 143.055 91.9181C143.055 91.9181 143.924 91.7291 144 91.6913C146.041 91.0866 148.082 89.348 149.367 87.685L149.631 87.3449C150.501 86.211 149.745 86.9669 150.954 86.0976C151.597 85.6441 151.635 85.4929 152.239 85.115C152.239 87.7984 152.844 88.8945 152.806 91.6535L153.146 96.6803C153.638 100.233 153.184 102.35 153.298 103.748C153.524 106.62 154.167 109.039 153.411 111.42C152.844 113.348 153.222 114.935 153.184 116.75C153.184 116.825 153.109 117.997 153.109 118.224C152.92 120.491 152.806 119.282 152.655 122.646L152.769 126.274C152.882 127.635 151.786 131.528 152.239 131.943C153.676 132.548 151.861 131.717 153.562 132.057C155.074 132.359 154.658 132.85 156.132 131.565L161.424 126.274C162.444 125.405 162.369 125.14 163.654 124.535C163.654 128.05 162.406 129.638 162.217 133.077L160.63 141.203C160.403 142.639 160.819 142.11 160.592 143.169C160.479 143.735 160.441 143.471 160.252 144.227L157.984 155.376C157.946 156.472 158.249 156.019 158.249 157.38C158.249 158.702 156.737 158.967 159.08 160.214C159.912 160.29 161.008 158.551 161.499 158.06L161.764 157.757C161.839 157.72 161.877 157.682 161.953 157.644L165.128 155.679C166.602 154.809 168.189 153.222 169.625 152.202C170.91 151.257 171.061 150.917 171.364 151.37L170.419 154.961C170.079 156.208 169.928 157.342 169.663 158.513L168.227 158.816C167.962 161.575 166.866 165.694 165.883 168.491C165.732 169.02 165.846 168.605 165.619 169.247L163.767 173.745C163.54 174.236 163.351 174.69 163.162 175.143C162.973 175.521 162.709 176.088 162.52 176.466C161.65 178.129 160.29 180.283 160.252 182.211C161.915 179.83 162.822 177.146 164.183 174.463L167.546 166.413C167.509 166.375 167.622 166.261 167.66 166.224C167.509 167.66 167.093 168.794 166.753 170.154L165.014 177.562C164.901 178.167 164.674 178.658 164.523 179.339C163.918 181.682 163.313 182.702 163.276 182.891C163.087 183.798 163.578 183.156 163.087 184.479L161.575 187.54C161.159 188.145 161.083 188.372 160.781 189.052C160.063 190.715 158.74 190.413 159.231 191.735C159.496 192.491 159.572 192.151 159.95 192.756C161.839 192.68 160.252 192.076 163.389 192.756L163.654 191.66C163.805 191.509 164.787 190.98 165.09 190.791C166.375 191.131 165.354 191.206 166.791 191.357C167.471 189.997 166.375 192.643 166.866 190.942L172.498 187.654C172.498 189.468 171.893 192.151 170.797 193.663C170.041 194.721 170.57 193.172 170.154 195.25C169.701 197.329 168.416 199.975 168.378 200.05C167.282 202.658 164.712 208.668 164.107 211.238C163.843 212.447 163.691 213.883 162.898 214.866C162.52 215.395 162.86 215.055 162.255 215.357C162.217 215.357 161.537 215.546 161.386 215.622C161.877 217.625 161.197 219.175 160.819 221.027C164.22 223.106 167.584 219.061 171.364 219.061L170.268 219.666C169.814 220.082 169.89 219.817 169.663 220.498C171.099 220.157 172.384 219.137 173.669 218.494L170.268 227.376C169.89 228.586 169.512 229.153 169.058 230.173L157.153 257.953C156.51 259.162 153.865 262.072 156.246 262.753C157.871 261.883 156.548 262.753 157.342 261.279C158.4 259.276 161.688 260.372 163.616 260.145C166.337 259.843 168.529 258.217 171.099 257.613C170.835 258.595 170.154 259.313 169.663 260.183C168.567 259.805 169.285 259.729 168.227 259.616L166.261 261.846C165.317 263.282 164.901 262.677 164.523 263.887L166.526 263.32C165.657 263.962 162.671 268.422 161.424 269.934C160.743 270.803 160.517 271.181 159.723 271.975C158.362 273.298 157.606 274.809 156.132 276.057C155.225 276.813 155.792 276.246 155.15 277.077L154.356 278.022C153.978 278.438 153.713 278.702 153.411 279.118L153.109 279.874C153.676 280.101 152.769 280.252 153.373 279.798C154.696 278.854 159.572 273.335 160.706 272.088L162.142 270.387C162.935 269.669 162.935 269.405 163.578 268.687C163.918 268.309 164.069 268.195 164.409 267.817C164.636 267.591 164.674 267.515 164.825 267.364L165.09 267.024C164.901 267.742 164.22 268.535 163.729 269.102L159.496 274.583C157.909 276.737 156.094 278.324 154.28 280.214L153.184 281.386C152.995 281.613 152.504 282.142 152.315 282.255C150.69 283.578 149.216 285.317 147.477 286.564L144.076 288.869C142.715 289.739 141.657 291.061 139.918 290.797C138.406 290.57 137.046 290.154 135.685 291.326C136.857 292.913 139.124 293.065 141.014 293.178L145.361 293.934C147.628 294.501 151.899 294.009 153.676 295.597C153.033 295.899 152.693 295.975 151.937 296.164C146.117 297.902 145.852 298.658 140.183 299.83L130.243 302.173C129.146 302.438 128.126 302.778 126.879 303.08C122.343 304.214 117.543 305.688 113.159 307.049C112.101 307.389 110.74 307.994 109.644 308.145C106.772 308.523 105.298 309.052 102.387 309.128C100.951 309.203 102.161 308.939 100.913 308.901C98.7969 308.863 97.663 310.035 96.4913 307.654C95.1307 304.894 94.7906 305.424 96 302.211C98.3433 296.05 98.3433 298.696 98.9102 297.109C99.7039 294.917 102.539 285.165 102.539 283.88C103.635 283.88 103.975 283.805 104.542 283.313L104.844 283.88C104.882 283.918 104.92 284.031 104.957 284.069C104.995 284.107 105.033 284.183 105.071 284.258C106.091 285.354 106.469 284.485 106.696 284.372C106.734 284.334 106.809 284.258 106.847 284.258C108.813 282.973 114.066 280.781 116.712 279.496C121.852 276.964 126.803 273.789 131.679 270.728C132.321 270.35 132.283 270.198 132.926 269.745C137.537 266.494 137.424 267.969 142.299 262.526C143.773 260.863 148.309 257.272 148.535 255.043C147.855 255.534 146.797 257.159 146.23 257.915L138.369 265.172C137.121 266.117 136.668 266.457 135.345 267.288C133.569 268.309 127.068 272.013 125.405 272.466C126.047 273.373 126.501 272.844 127.446 272.239C127.824 271.975 128.126 271.71 128.542 271.597L129.222 271.559C129.184 271.559 129.335 271.597 129.373 271.597C128.277 271.861 127.71 272.466 126.841 273.033C122.532 275.943 115.767 279.496 111.043 281.272C110.324 281.537 109.531 282.028 108.813 281.613C111.043 281.121 124.346 274.318 125.405 272.769C121.776 273.6 112.706 280.025 106.658 281.461C106.28 281.537 105.411 281.726 105.033 281.764C104.277 281.802 104.769 281.688 103.672 281.613C103.71 280.101 104.277 279.118 104.617 277.682L107.339 267.288C107.754 266.041 107.036 268.006 107.49 266.872L107.679 266.457C107.717 267.969 107.565 268.913 107.376 270.161C107.187 271.483 106.507 272.957 107.679 273.033C108.775 272.731 108.321 273.033 108.624 272.013L109.077 265.058C109.342 260.447 109.531 256.252 110.551 251.906C111.987 251.868 112.743 251.301 113.688 250.772C115.162 249.902 115.54 250.469 117.014 249.827C120.151 248.428 121.739 246.803 125.291 245.216C126.312 244.762 125.896 244.838 126.614 244.271C127.03 243.969 127.446 243.78 127.899 243.553L132.888 240.265C133.757 239.622 134.665 239.206 135.458 238.564C139.2 235.54 143.206 232.857 146.57 229.38L146.835 229.077C148.384 227.603 149.82 226.394 150.803 224.466C149.556 224.806 146.57 229.153 144.756 230.098L144.265 230.249C143.244 230.513 143.093 231.005 142.337 231.723L141.468 232.554C141.165 232.857 141.165 232.894 140.939 233.159L138.406 235.2C138.406 235.2 129.676 241.512 128.239 241.89C129.411 240.038 132.397 239.131 133.644 237.354C132.132 237.657 131.036 238.942 129.789 239.735C126.123 241.965 124.271 244.044 119.887 246.425L117.808 247.446C115.88 248.466 114.633 249.071 112.252 249.033C112.29 248.164 112.365 248.013 112.554 247.332C112.025 247.597 111.647 247.672 111.118 247.899C111.912 244.46 111.95 239.887 111.95 236.183C111.95 235.011 111.685 234.746 111.685 234.18L111.647 221.065C115.162 221.065 116.787 219.931 119.622 218.986L123.931 217.285C124.12 217.209 124.913 216.794 125.216 216.605L128.617 213.997C131.868 210.746 133.795 209.272 137.386 206.778L144.189 201.562C145.134 200.617 144.416 201.298 144.756 200.58L149.102 195.061C147.213 195.553 144.151 201.335 140.939 202.62C138.369 203.641 133.493 207.307 131.754 209.121C130.998 209.877 130.469 210.406 129.638 211.011C129.071 211.427 129.146 211.427 128.466 211.843L125.934 213.354C123.817 214.677 121.285 216.151 118.904 216.907L114.18 218.419C112.706 219.061 113.499 219.477 111.685 219.061L111.95 204.208C111.194 205.077 111.572 206.211 111.383 207.307C111.269 207.912 111.307 207.609 111.118 207.912L111.005 197.367C111.005 196.724 110.816 196.195 110.816 195.061C110.891 195.024 110.929 194.948 110.967 194.948L111.95 194.192C111.761 191.849 110.967 190.148 111.156 187.351L111.043 185.953C110.891 185.537 110.702 185.159 110.627 184.706C110.476 183.874 110.249 182.098 110.249 181.342C111.572 180.472 113.877 179.641 115.54 178.923C116.674 178.431 117.241 178.28 118.337 177.751C124.157 174.765 130.961 172.195 135.798 167.773L136.403 167.244C138.406 165.808 141.581 162.822 143.282 160.97L146.797 157.115C145.512 157.417 141.657 162.028 140.523 162.784C140.901 161.461 141.694 161.953 140.523 161.083C140.296 161.991 140.447 161.348 140.296 161.688L138.595 163.994C136.29 166.375 133.531 167.811 130.809 169.663L127.106 171.931C125.82 172.687 124.309 173.594 123.061 174.198C121.739 174.841 120.529 175.559 119.169 176.277L114.784 177.902C113.688 178.356 111.383 179.036 109.984 179.074L109.606 163.351C109.644 162.104 109.569 163.465 109.531 162.482C109.493 161.802 109.569 161.839 109.531 160.97C109.493 160.365 109.455 159.912 109.493 159.609C109.72 155.981 109.342 154.583 109.417 151.975L109.38 147.364C110.362 146.835 111.836 146.079 112.857 145.701C116.296 144.416 119.584 142.45 122.835 140.787C123.439 140.485 123.855 140.296 124.498 139.88C126.161 138.784 127.975 137.915 129.411 136.554L130.318 135.723C130.998 135.194 131.868 134.438 132.208 133.682L132.472 132.17C132.699 131.528 132.51 132.472 132.813 131.376L126.312 136.857C125.027 137.915 123.439 138.633 122.079 139.502C119.206 141.392 116.069 142.98 112.857 144.265C111.647 144.756 110.929 145.096 109.115 145.096C109.115 142.337 108.926 140.636 108.775 138.293C108.586 135.723 108.888 132.548 108.472 130.016L106.205 108.057C105.865 104.353 105.713 99.9307 105.222 96.4157L102.917 77.8961C101.707 70.6772 100.951 63.2693 99.6283 56.0126C99.2126 53.5559 98.2677 49.8142 98.2677 47.1307L96.2646 37.6819ZM132.888 131.301C132.85 131.301 132.775 131.339 132.813 131.376L132.888 131.301ZM149.178 194.986C149.14 194.986 149.065 195.024 149.102 195.061L149.178 194.986ZM133.644 237.354C133.682 237.392 133.757 237.279 133.757 237.279L133.644 237.354ZM151.672 223.635C150.501 223.975 151.03 223.71 150.879 224.542L151.672 223.635ZM151.672 281.877C151.975 280.517 152.05 281.386 152.428 280.894C152.957 280.101 152.731 280.252 152.504 279.874C152.088 281.046 151.181 281.046 151.672 281.877ZM167.357 222.463C168.151 221.48 168.907 221.631 169.663 220.498C168.869 220.687 168.794 220.876 168.227 221.329L167.924 221.594C166.98 222.387 166.866 222.085 167.357 222.463ZM160.252 182.211C159.496 182.4 159.647 182.06 158.929 184.025C158.589 184.932 158.438 185.613 158.249 186.482L160.252 182.211ZM169.928 162.217C170.23 161.953 169.55 161.197 169.776 161.877C169.814 161.915 169.436 162.709 169.928 162.217ZM169.852 166.45L169.965 166.526C170.003 166.526 169.814 166.45 169.852 166.45ZM169.361 167.093V167.962C169.701 167.433 169.663 167.471 169.361 167.093ZM169.361 169.058C169.663 168.794 168.983 168.038 169.209 168.756C169.209 168.756 168.907 169.55 169.361 169.058ZM167.66 175.068L167.584 174.992C167.584 174.992 167.622 175.106 167.66 175.068ZM167.395 204.208L167.282 204.132C167.282 204.132 167.357 204.246 167.395 204.208ZM165.657 265.89L165.921 266.23L166.791 265.058C166.186 264.151 166.866 265.02 165.657 265.89ZM164.523 258.482H163.654V258.746H164.523V258.482ZM163.956 132.246L163.88 132.132C163.88 132.132 163.918 132.246 163.956 132.246ZM162.217 137.65L162.142 137.575C162.142 137.575 162.217 137.688 162.217 137.65ZM155.679 108.813C156.359 108.85 155.717 108.359 155.679 108.624C155.679 108.624 154.847 108.775 155.679 108.813ZM155.112 99.0992C155.074 100.271 155.225 100.346 155.187 101.254C155.187 103.068 154.961 104.542 155.187 106.129C155.376 107.49 155.15 107.641 155.943 108.246C156.661 106.772 156.321 95.7354 156.057 94.715C155.868 93.9213 155.792 93.8079 155.565 92.9386C155.263 91.6535 155.414 91.9559 154.809 91.0866L154.658 93.3921C154.545 96.189 154.431 93.052 154.961 96.6425C155.112 97.474 155.074 98.2299 155.112 99.0992ZM154.696 120.983C154.243 122.041 154.885 123.628 154.772 125.102C154.734 125.594 154.091 126.35 155.074 127.106L155.112 120.529C154.923 120.718 154.885 120.605 154.696 120.983ZM143.395 90.2551C146.041 89.6504 147.515 87.4205 149.367 85.6441C149.405 85.6063 149.48 85.5685 149.518 85.5307C149.556 85.4929 149.631 85.4173 149.669 85.3795C150.463 84.6992 152.995 82.9606 151.748 81.6756C151.219 81.1465 151.257 81.8268 149.518 83.263C148.573 84.0567 143.622 89.3102 143.395 90.2551ZM135.194 44.0693C135.194 44.0315 135.118 43.9559 135.118 43.9559L135.194 44.0693ZM134.513 45.4299L135.118 44.8252C134.816 44.4094 134.816 44.1827 134.513 45.4299ZM133.946 48.5291L133.871 48.4535C133.871 48.4535 133.946 48.5669 133.946 48.5291ZM133.682 302.173C133.153 301.569 133.682 301.909 132.586 302.249C132.17 302.362 132.019 302.362 131.376 302.438L117.997 306.217C117.354 306.406 116.523 306.671 115.691 306.746C116.485 307.238 116.069 307.049 117.846 306.633C120.189 306.066 122.457 305.877 125.291 304.932C127.106 304.328 128.655 304.365 129.676 303.874C130.583 303.458 130.658 303.08 131.717 302.929C132.359 302.816 131.717 303.156 132.586 302.778C132.737 302.74 133.455 302.287 133.682 302.173ZM130.016 51.7417L129.902 52.8756C130.016 52.9134 130.734 51.4016 130.847 51.137C131.565 49.5874 133.531 47.6598 133.682 45.9213C132.775 47.0551 132.699 46.9039 132.094 48.1134L130.091 51.5528C130.054 51.6283 130.054 51.7039 130.016 51.7417ZM130.809 134.249C130.356 133.644 130.809 133.871 129.865 134.702L129.373 135.08C130.431 134.816 129.978 134.778 130.809 134.249ZM129.865 271.257L129.978 271.332C129.978 271.294 129.827 271.257 129.865 271.257ZM128.277 136.101C128.202 136.176 127.521 136.819 128.277 136.517C128.353 136.517 128.92 135.609 128.277 136.101ZM127.143 136.97C126.992 137.083 126.463 137.613 127.106 137.386C127.181 137.348 127.824 136.479 127.143 136.97ZM124.535 50.8346C124.535 49.3606 124.346 48.9071 123.855 47.811L122.986 45.8079C122.57 44.7874 122.872 45.4677 122.532 45.1276C122.57 46.9795 123.364 49.2472 124.384 50.6835C124.422 50.7213 124.498 50.7969 124.535 50.8346ZM122.532 44.8252C122.835 44.5228 122.117 43.7669 122.381 44.485C122.381 44.5228 122.041 45.3165 122.532 44.8252ZM115.313 307.238L115.427 307.313C115.465 307.276 115.276 307.238 115.313 307.238ZM115.691 24C114.746 24.2268 114.822 24.3402 113.953 25.9654C114.482 25.852 114.671 26.0031 115.351 24.7937C115.389 24.7181 115.616 24.0756 115.691 24ZM111.118 239.055C111.42 238.753 110.702 237.997 110.967 238.715C110.967 238.715 110.627 239.546 111.118 239.055ZM111.118 240.189L111.005 240.113C111.043 240.113 111.08 240.227 111.118 240.189ZM110.816 241.89H111.118V240.491H110.816V241.89ZM110.816 223.635V221.329C110.476 221.858 110.173 222.614 110.816 223.635ZM109.455 234.822L108.964 245.594C109.115 247.71 108.813 248.466 108.813 250.469L110.4 236.107C110.098 232.063 110.476 233.839 110.551 231.345C110.589 229.833 110.967 225.222 110.249 224.202C110.249 228.283 109.946 231.42 109.455 234.822ZM108.472 282.104L108.548 282.18C108.586 282.142 108.397 282.104 108.472 282.104ZM108.246 161.953C108.17 161.839 108.132 161.802 108.132 161.802L108.246 161.953ZM108.208 248.428C108.246 246.879 108.321 248.164 107.981 247.635C107.981 247.786 107.981 248.088 107.943 248.164C107.792 248.693 107.868 248.504 107.679 248.769L107.906 249.109C108.019 249.109 108.208 248.655 108.208 248.428ZM107.679 250.507H107.981V249.6H107.679V250.507ZM107.679 265.058C107.528 265.474 107.225 265.814 107.981 265.928C107.981 264.378 107.981 265.474 107.679 265.058ZM107.414 146.797C107.414 146.797 107.528 146.117 106.772 146.608C106.734 146.646 106.696 147.024 106.545 147.364C107.339 147.175 106.998 147.477 107.414 146.797ZM107.981 160.214H108.548C108.548 157.644 108.586 152.844 108.17 150.879C107.981 149.858 107.717 149.594 108.246 148.498C107.376 148.498 107.225 148.384 106.545 148.233C106.998 149.14 107.981 158.967 107.981 160.214ZM106.809 247.899L106.734 247.824C106.734 247.824 106.809 247.937 106.809 247.899ZM108.246 251.906C108.094 252.586 107.83 253.682 107.754 254.287C107.528 255.95 107.565 255.647 107.15 256.819C106.772 258.028 106.62 260.485 106.431 261.921C105.978 265.172 105.449 267.515 105.373 271.332C106.205 270.236 108.888 257.386 109.039 256.101C109.644 251.414 109.304 252.397 108.246 251.906ZM105.335 341.216C105.298 341.216 105.449 341.291 105.411 341.291L105.335 341.216ZM107.112 22.2614C106.998 20.9008 106.091 19.2756 105.222 18.1795C104.844 17.6882 105.033 17.9528 104.806 17.6882C104.92 18.8976 105.222 19.389 105.713 20.2205L106.734 21.8079C107.225 22.4882 106.734 21.8457 107.112 22.2614ZM105.146 337.02C104.882 336.68 104.957 337.172 104.806 336.189V332.75C105.184 333.279 104.92 332.145 105.146 333.581V337.02ZM104.844 332.447C105.26 331.54 105.26 331.918 104.806 331.011C104.504 331.54 104.542 330.406 104.542 331.616C104.542 333.165 104.504 331.956 104.844 332.447ZM102.728 17.0457L102.69 17.1213C102.765 17.6504 102.236 17.3102 102.841 17.4236C103.597 17.537 102.765 16.8567 102.728 17.0457ZM101.669 15.1181L102.274 16.5543L102.161 15.7984C101.896 15.4961 101.858 15.3827 101.669 15.1181ZM101.102 14.8535L101.443 14.6268C101.443 14.5134 101.216 14.4378 101.291 14.4C101.291 14.4 98.0031 10.0913 96.5291 9.14646C96.6803 9.71339 96.6047 9.48661 96.9071 9.94016C96.9449 10.0157 97.3606 10.5071 97.5118 10.7339L100.384 13.8331C100.422 13.9087 100.498 13.9465 100.535 13.9843C100.762 14.2866 100.913 14.5512 101.102 14.8535ZM100.838 287.055L100.384 286.866C100.422 286.904 100.271 286.98 100.233 287.017C98.4189 288.34 99.0236 287.698 98.0409 291.099L95.1307 300.472C95.9244 299.868 95.3197 300.246 95.6598 299.868C96.4535 298.847 95.7354 299.868 96.4157 298.054C96.9827 296.58 97.285 295.748 97.7764 294.274L100.346 287.962C100.384 287.887 100.498 287.66 100.535 287.584C100.535 287.509 100.611 287.433 100.611 287.395C100.649 287.357 100.724 287.244 100.724 287.206C100.762 287.169 100.8 287.093 100.838 287.055ZM100.838 318.198C98.8724 318.123 96.9449 318.047 95.3953 317.027C96.3402 316.195 99.515 316.157 100.838 316.157V318.198ZM103.143 278.513C103.332 277.833 103.597 277.039 103.672 276.17L102.728 276.321C102.009 276.586 102.501 276.737 101.972 278.173C101.858 278.513 101.669 278.929 101.518 279.42C101.178 280.365 100.989 280.857 100.724 281.802C100.422 282.822 100.384 283.351 99.9685 284.183L101.367 284.787C101.14 284.107 101.405 284.447 100.535 283.88C101.027 282.898 100.498 282.557 101.254 282.028C103.03 280.857 101.367 284.334 103.143 278.513ZM99.0992 62.5512V64.5165C99.3638 64.1764 99.3638 65.1213 99.4394 63.685C99.4772 62.5512 99.2882 62.8157 99.0992 62.5512ZM99.0992 393.865C99.0614 393.865 99.0236 393.789 99.0236 393.751L99.0992 393.865ZM98.8346 394.998C98.3433 395.49 98.6835 394.658 98.6835 394.658C98.3811 393.902 99.137 394.696 98.8346 394.998ZM101.405 319.597C101.027 319.937 101.82 319.672 100.762 320.013L95.9622 319.899C96.378 319.597 96.378 319.446 97.0583 319.446L101.405 319.597ZM96.5291 48.8315H96.8315V47.9622H96.5291V48.8315ZM101.102 314.457C100.46 315.364 101.329 314.872 99.9685 315.024C98.4189 315.25 97.5118 315.024 96.2646 315.326C96.5291 314.532 95.8488 314.948 97.1339 314.457C98.7969 313.814 100.195 314.381 101.102 314.457ZM96.7559 318.652C96.7181 318.652 96.8693 318.728 96.8315 318.728L96.7559 318.652ZM94.8283 303.043C94.9417 302.551 94.6394 302.778 95.3953 301.871L94.8661 301.946C94.1102 303.42 94.715 302.854 94.8283 303.043ZM96 309.317L94.8283 306.444C94.2236 306.898 93.7323 307.805 93.5811 308.636C93.3921 309.657 94.7528 309.317 96 309.317ZM92.2583 314.154C92.5228 314.797 92.0693 314.57 92.8252 314.759C93.3921 314.872 97.663 313.625 100.535 313.587C99.9307 312.756 98.9102 313.096 96.7181 313.474L92.2583 314.154ZM93.9591 323.301C93.9213 322.054 93.6945 321.94 93.6945 320.428C94.8661 320.995 96.9827 320.957 97.9654 320.731V321.298C96.8693 321.411 96.5291 321.751 95.7354 322.205C95.0551 322.658 94.6016 322.885 93.9591 323.301ZM99.4016 311.887C99.4016 311.887 94.6772 311.773 92.9386 312.265L91.389 313.323C93.7701 313.814 96.5291 312.756 100.535 312.756C100.535 311.849 100.422 311.698 100.271 311.017C98.7213 311.584 100.951 311.622 99.4016 311.887ZM93.6945 340.157C93.5055 339.855 93.5811 340.12 93.4299 339.553L93.1654 338.079C93.0898 337.323 93.1654 336.68 93.052 335.924C92.6362 333.014 92.3339 333.43 93.3921 332.75C93.5055 335.471 93.7323 336.454 93.6945 340.157ZM93.3921 353.575C93.3921 354.595 93.5055 354.671 93.1276 355.313C93.1276 354.255 93.0142 354.217 93.3921 353.575ZM92.4472 359.66C92.4094 358.753 92.2961 359.546 92.5606 358.488C92.863 357.43 92.674 356.409 93.1276 355.578C93.3921 356.145 93.1654 357.317 93.1276 358.148C93.0142 359.32 92.8252 359.735 92.8252 361.285L92.4472 359.66ZM92.8252 318.728C95.4709 318.992 93.9213 318.728 96.2646 318.728C96.0378 318.539 96.1512 318.576 95.7732 318.387C94.9039 317.934 94.715 318.123 93.6945 316.989C94.2236 316.044 93.6567 316.498 94.5638 316.157C93.7701 315.628 93.5433 315.817 92.5606 315.591C92.5606 317.178 92.8252 317.291 92.8252 318.728ZM92.8252 367.294C92.8252 368.202 92.7496 369.411 92.2205 370.129C92.2583 369.298 92.3717 367.975 92.8252 367.294ZM92.5606 348.435C93.2409 348.17 92.9386 348.624 93.1276 347.868L92.8252 344.428C92.8252 343.332 92.8252 343.03 92.674 342.047C92.485 340.913 92.7118 340.573 92.2583 339.855C92.2583 343.559 92.5228 344.957 92.5606 348.435ZM92.2583 362.154C92.4472 362.419 92.3717 362.23 92.5228 362.759C92.5606 362.91 92.5606 363.061 92.5606 363.288L92.2583 362.154ZM92.2583 370.998C92.5606 370.696 91.8425 369.978 92.1071 370.658C92.1071 370.696 91.7669 371.49 92.2583 370.998ZM92.2583 304.743L92.863 302.74C91.5024 300.926 92.5228 301.417 91.4268 301.039C91.8425 303.194 91.6913 303.458 92.1449 304.554C92.1827 304.592 92.2205 304.668 92.2583 304.743ZM96.2268 311.131C94.9795 311.32 92.7496 311.357 91.6913 311.887C91.8803 310.261 91.4268 311.32 92.4472 311.093C95.8488 310.375 93.8079 310.791 97.7008 310.715L96.2268 311.131ZM91.9559 366.992C92.2583 366.69 91.5402 365.972 91.8047 366.652C91.8047 366.69 91.5024 367.483 91.9559 366.992ZM91.2 19.0488C91.8425 20.5606 91.8425 20.2205 91.3134 20.5606L91.1244 18.8598C91.1622 18.8976 91.2 18.9732 91.2 19.0488ZM86.4756 304.479C85.9465 302.665 86.5512 302.74 86.5512 302.74C86.8913 304.025 88.9323 306.746 90.5197 306.746C91.1622 306.709 91.1622 306.028 91.6913 306.746C91.6535 306.784 91.6157 306.898 91.6157 306.935L90.5575 309.014H88.252L86.4756 304.479ZM91.1244 319.597C91.1244 317.48 91.389 317.556 91.389 316.157L92.0315 318.085C92.1827 318.69 92.2205 319.181 92.3339 320.088C92.5228 321.298 92.674 322.62 92.863 324.132L93.2409 331.691C93.2031 331.729 93.1276 331.843 93.1276 331.88L92.8252 332.145L91.1244 319.597ZM91.1244 18.5575C91.4268 18.2551 90.7087 17.537 90.9732 18.2173C90.9732 18.2173 90.6331 19.011 91.1244 18.5575ZM90.5575 322.734C90.5197 321.033 89.9528 319.219 89.6126 317.707L88.5165 311.849C88.5921 310.639 88.2898 311.055 89.6882 311.017C89.9528 313.928 89.9528 311.584 89.4236 314.154C90.2551 315.326 90.4063 314.192 90.5575 315.893C89.915 314.986 90.3685 315.326 89.6882 315.024L90.5953 320.995C91.011 323.868 90.9354 322.167 90.5575 322.734ZM91.6913 368.164C91.6157 369.071 90.4441 375.156 90.2173 375.043L89.9906 374.702C90.9732 373.115 90.4819 369.449 91.6913 368.164ZM89.9906 5.74488C89.9528 5.74488 89.8772 5.6315 89.8772 5.6315L89.9906 5.74488ZM92.8252 17.4236L93.1276 18.2551C95.7732 7.14331 96.9071 10.2803 88.8189 6.27402L89.9528 8.0126C89.9906 8.08819 90.2173 8.84409 90.2173 8.88189C91.011 12.0567 91.9559 13.8709 92.8252 17.4236ZM85.115 19.6913C85.0772 19.7291 85.0394 19.6157 85.0394 19.6157L85.115 19.6913ZM84.2457 9.71339C84.7748 8.99528 84.737 8.8063 85.6819 8.54173L84.548 10.5449C84.4346 10.3181 84.5102 10.1669 84.2457 9.71339ZM82.6961 12.3969L83.4142 13.4173C84.2457 12.4346 84.4724 11.9055 83.9433 11.1496C83.3008 10.2425 84.0567 10.885 83.1118 10.5449L82.2047 11.3386C82.5071 12.2457 82.2803 11.6787 82.6961 12.3969ZM81.978 13.115C82.0157 13.1528 81.9024 13.1906 81.9024 13.1906L81.978 13.115ZM79.7102 408.151C79.8236 406.375 80.1638 407.093 80.2772 407.282L79.7102 408.151ZM66.5575 26.5701C68.5984 23.8488 68.5606 22.6016 72.4535 18.4441C72.9827 17.8394 72.9827 17.8016 73.5118 17.1969C74.8724 15.6094 74.5323 15.8362 74.8346 16.2898C72.3024 17.9906 68.9764 24.8693 66.5575 26.5701ZM70.4882 443.452C70.4504 443.452 70.6016 443.528 70.5638 443.528L70.4882 443.452ZM71.6976 452.712C72.0756 450.973 72.8315 449.575 72.8315 448.139C69.9591 448.781 70.4126 448.932 69.052 449.461C68.5606 449.65 67.9559 449.802 67.4268 449.839C66.3307 447.798 67.5024 447.723 68.9386 445.342C69.3921 444.624 69.4677 444.435 69.9969 443.868L69.7701 443.49C69.6567 443.49 69.5055 443.679 69.5433 443.717L68.485 444.624C66.3685 446.476 66.4441 447.269 63.9874 447.269C63.5717 445.228 64.8945 445.455 65.4236 443.528C64.7055 444.019 65.0457 443.83 64.5165 444.359L62.0598 446.476C62.022 446.513 61.9087 446.551 61.8709 446.589C61.8331 446.589 61.7575 446.665 61.6819 446.702L66.4441 449.915C67.6535 450.671 70.337 452.561 71.6976 452.712ZM66.1795 27.0236C66.1417 27.0236 66.2929 27.0992 66.2929 27.137L66.1795 27.0236ZM73.1339 427.843C73.9276 429.506 71.4331 431.169 69.7323 433.89L66.4819 438.879C66.0283 439.521 66.2173 439.143 65.7638 439.937L63.1181 444.132C64.063 444.019 63.6472 444.019 63.9874 443.83C64.0252 443.792 64.1008 443.754 64.1386 443.717C64.2142 443.679 64.252 443.641 64.3276 443.603C64.3654 443.565 64.4031 443.49 64.4787 443.452L67.9181 439.786C68.863 438.841 69.2031 438.236 70.0346 437.329C70.8661 436.46 71.3953 435.288 72.5669 434.986C73.0583 436.044 72.4913 436.649 71.8488 437.405L69.5433 440.239C69.0898 440.806 68.9764 441.033 68.5228 441.524C68.485 441.562 68.4094 441.6 68.3717 441.676L65.6882 445.531C66.7087 445.039 68.6362 443.603 69.5055 442.772C69.8457 442.431 69.9591 442.28 70.337 441.94C70.9039 441.449 72.5669 439.483 73.1339 440.088C73.9276 440.882 71.4709 443.641 70.9417 444.246L70.337 445.039C69.6189 446.098 68.6362 446.967 68.5606 448.403C69.7323 448.101 70.0346 447.496 71.2819 447.118C72.9449 446.665 74.0409 446.74 74.0787 448.328C74.0787 448.365 74.0031 449.083 73.9654 449.197L72.5669 453.846C73.9276 453.317 74.9858 450.557 75.7795 449.348L77.6315 446.098C79.6724 442.243 82.5449 437.896 84.1323 434.003C84.5102 433.096 84.5102 433.058 84.9638 432.227C85.4551 431.357 85.3795 431.433 85.7197 430.45C86.1732 429.241 86.8535 427.994 87.4583 426.746C88.6677 424.29 89.3858 421.833 90.2929 419.301C90.9732 417.524 92.0315 415.483 92.2583 413.556C92.7496 409.172 95.3953 403.994 96.5669 399.307C96.7937 398.4 96.8693 398.362 97.1339 397.304C97.3606 396.435 97.474 396.019 97.7008 395.036C98.0031 393.789 98.6079 392.202 98.7591 390.917C98.8724 390.085 98.7591 389.367 98.9102 388.498C99.6283 383.433 101.254 378.557 101.934 373.266C102.35 370.318 103.446 367.446 103.672 364.422C103.786 362.683 103.559 360.756 103.71 359.017L103.672 350.438C103.483 346.696 103.748 343.635 103.37 340.8C103.143 339.175 103.106 337.852 103.106 335.849C103.106 333.808 102.614 332.787 102.539 331.011C102.425 328.781 102.614 328.29 102.161 326.287C101.82 325.002 101.48 322.885 101.405 321.6C99.5528 321.6 99.137 321.94 97.9276 322.394L95.1307 323.868C95.3953 324.926 95.4331 324.246 95.6598 325.266C94.4882 325.304 94.7528 325.38 93.9969 325.039C93.9591 327.08 94.2236 328.441 94.2614 330.746C95.0173 330.217 95.6976 329.537 96.3402 328.819C96.9827 328.063 97.3984 327.043 98.2677 326.74C97.1339 331.729 93.9591 328.252 94.6394 335.546C94.9795 339.175 95.1307 342.576 95.811 346.318C96.2646 348.737 96.7559 351.269 96.7937 353.839L95.6976 353.877C94.9039 352.101 94.8283 348.132 94.8283 346.167C94.7906 346.205 94.6772 346.318 94.7528 346.356C94.7906 346.394 94.6772 346.507 94.6772 346.545C94.148 348.813 93.9591 361.663 93.9591 363.024C93.9969 365.291 93.6567 375.043 92.5228 376.706C91.6157 378.066 91.8047 376.441 91.0488 377.991L88.8189 386.117C88.5543 386.835 88.4031 387.326 88.1386 388.309L85.3795 397.002C84.3213 399.874 83.3008 402.86 83.074 406.11C81.3354 406.602 81.5244 406.186 80.8063 407.811L74.3055 421.606C73.8898 422.362 73.0961 423.307 72.7937 424.139C72.2268 425.802 72.7181 424.139 72.8693 425.424C73.0205 426.784 70.9039 429.354 70.1102 430.526L67.6913 434.117C67.1244 435.175 66.5197 435.704 65.9528 436.649C65.6504 437.14 65.6126 437.405 65.3102 438.009L63.0047 441.713C62.5134 442.545 60.0945 445.569 60.6992 446.589C60.737 446.589 60.8126 446.627 60.8504 446.702L69.6945 432.416C70.4504 431.244 72.1134 428.523 73.1339 427.843ZM44.2961 293.896C44.5984 294.198 44.863 294.387 45.1276 294.728C44.674 294.614 43.9937 294.161 43.9181 294.123L44.2961 293.896ZM43.4646 293.631C43.4646 293.631 43.4268 293.631 43.4268 293.594C43.3512 293.518 42.7843 293.631 43.389 293.518L43.4646 293.631ZM38.8535 273.902C38.8157 273.94 38.778 273.827 38.778 273.827L38.8535 273.902ZM38.2866 273.335C38.2488 273.373 38.211 273.26 38.211 273.26L38.2866 273.335ZM38.2866 281.31C38.2488 281.348 38.211 281.235 38.211 281.235L38.2866 281.31ZM34.2803 63.1181C33.4866 63.1181 34.2803 62.9291 34.2803 62.9291C34.3559 62.6646 34.9984 63.1181 34.2803 63.1181ZM32.2772 71.4331C32.126 71.2063 32.126 71.2819 32.0126 70.8283C31.9748 70.6016 31.9748 70.1858 32.0126 69.9591C32.2016 70.2614 32.126 69.9969 32.2772 70.5638C32.315 70.7528 32.2772 71.2063 32.2772 71.4331ZM32.0126 71.9622C31.9748 72 31.8992 71.8866 31.8992 71.8866L32.0126 71.9622ZM32.0126 73.0961C31.5213 73.5874 31.8614 72.7937 31.8614 72.7559C31.5969 72.0378 32.2772 72.7937 32.0126 73.0961ZM31.3323 101.291C31.2945 101.291 31.4457 101.367 31.4079 101.367L31.3323 101.291ZM24.6425 248.202C24.6047 248.202 24.6047 248.202 24.5669 248.164L24.6425 248.202ZM24.5669 103.106C24.2646 102.954 21.2031 102.69 19.7291 101.367C20.7496 101.443 21.3165 101.783 22.4504 102.085C24.2268 102.501 24.2268 102.236 24.5669 103.106ZM18.8598 114.52C18.822 114.557 18.7843 114.444 18.7843 114.444L18.8598 114.52ZM18.5575 117.128V115.654C18.7465 115.956 18.7087 115.691 18.822 116.258C18.8598 116.447 18.8598 116.939 18.8598 117.128H18.5575ZM18.8598 117.959C18.822 117.997 18.7843 117.883 18.7843 117.846L18.8598 117.959ZM18.5575 126.236C18.5575 124.913 18.3685 125.065 18.2929 124.195C18.1417 122.91 18.5575 122.91 18.5575 122.23L18.8598 118.526C18.8598 121.474 18.9354 124.12 19.1244 125.972C19.2378 127.143 19.1622 128.731 19.1622 129.94C19.1622 130.62 19.1244 131.263 19.2 131.943C19.3134 133.228 19.8425 132.472 18.8598 133.077C18.8598 132.057 18.6709 130.507 18.7087 130.054C18.9732 126.539 18.5575 129.411 18.5575 126.236ZM17.726 180.775C17.537 181.795 17.537 180.624 17.537 180.586C17.348 179.754 17.8394 180.246 17.726 180.775ZM11.6787 146.835C11.6031 146.57 11.9055 146.608 11.7165 145.625C13.2283 146.683 13.6441 146.683 14.2866 147.666C13.115 147.553 12.3969 147.364 11.6787 146.835ZM11.9055 214.186C11.8677 213.808 12.8126 214.639 12.0189 214.488C11.3764 214.375 11.9055 214.715 11.9055 214.186ZM9.14646 144.227C10.3559 144.491 10.1291 144.491 9.71339 144.794C9.25984 143.698 10.4315 145.474 9.44882 144.529C9.41102 144.491 9.37323 144.416 9.29764 144.378C9.22205 144.378 9.18425 144.265 9.14646 144.227ZM9.14646 223.068C8.7685 221.745 8.08819 222.501 8.84409 221.934C9.67559 223.143 9.29764 222.803 9.14646 223.068ZM8.8063 143.849C8.7685 143.849 8.91969 143.924 8.88189 143.924L8.8063 143.849ZM10.0157 146.23C9.71339 145.209 9.25984 145.172 7.9748 145.096C8.57953 145.928 8.69291 146.117 10.0157 146.23ZM8.27717 221.329C8.27717 221.367 8.20157 221.254 8.20157 221.254L8.27717 221.329ZM108.775 205.228L108.548 205.342C108.737 204.548 108.699 204.359 108.775 203.754C108.813 203.036 108.813 202.394 108.813 201.638C109.417 201.298 109.191 201.978 109.191 200.239L108.737 192.869C108.472 191.017 108.624 188.976 108.548 186.746L108.586 184.176C108.624 184.101 108.624 184.025 108.624 183.987C108.624 183.95 108.586 183.383 108.586 183.307C108.548 182.702 108.548 182.249 108.548 181.644C107.112 181.984 108.057 181.757 106.545 181.644C106.545 179.301 107.263 180.435 108.548 179.641L108.472 174.009C108.321 173.216 108.359 173.669 108.359 172.649C108.359 171.742 108.359 172.12 108.283 171.061C108.208 169.852 108.321 168.567 108.246 167.395L106.923 155.868C106.28 152.655 105.978 149.669 105.978 146.494C103.861 146.494 101.783 146.532 99.8173 145.814C97.5118 144.945 95.5465 144.68 92.5228 143.395C84.5858 139.956 77.9339 134.891 71.4331 129.335C70.8661 128.844 71.0551 129.033 70.5638 128.504C70.2236 128.164 70.1102 128.013 69.7323 127.672C71.0173 128.013 79.3323 135.08 81.4866 136.441L87.8362 140.334C89.4614 141.203 93.2409 143.244 95.0929 143.357C94.2614 142.148 89.6504 139.843 87.9874 137.915L83.1874 133.569C82.2047 132.661 80.0882 130.658 79.9748 129.373C81.3354 129.487 81.5622 130.545 82.4693 131.452C83.3764 132.321 84.0189 133.002 84.8882 133.871L88.2898 137.046C92.2961 140.825 99.8551 145.285 105.411 143.924C105.411 137.461 103.106 123.175 103.106 118.526C104.05 119.206 103.71 119.584 103.937 121.134C104.088 122.532 104.164 122.986 104.277 124.498L105.26 134.06C105.713 137.235 105.524 140.145 106.243 143.093L106.545 143.924C107.906 143.66 107.906 143.169 107.981 141.959C107.981 141.921 107.565 140.069 107.565 140.069C107.036 138.86 107.528 139.691 106.243 139.087C106.885 136.479 106.772 136.554 106.583 133.909C106.469 132.51 106.772 132.813 106.734 131.641L105.902 121.625C105.865 120.189 106.016 118.413 105.222 117.279C104.05 115.654 105.449 118.337 104.806 116.825C104.806 114.406 104.882 111.836 104.617 109.871C104.315 107.528 104.504 105.26 104.126 102.917L102.047 87.4205C101.972 86.3622 102.009 85.1906 101.858 84.0945L100.724 72.6425C100.611 71.9622 100.724 71.7354 100.687 71.1685L99.6283 65.726C99.6283 65.6882 99.5906 65.5748 99.5528 65.537L99.2882 65.1213C99.3638 65.1213 98.3811 65.5748 98.0409 64.7811C97.7386 63.9874 97.852 62.9669 97.852 62.4756C97.852 62.0598 97.8142 61.4173 97.7764 60.5102C97.5874 53.4425 96.9827 52.5732 95.0173 45.5055C94.526 43.7291 93.9969 41.6882 93.4299 40.2142C93.0898 39.2693 92.8252 38.7402 92.5228 37.7197L91.9181 35.3008C91.9181 35.263 91.9559 35.1874 91.9559 35.1118C93.1276 36.5102 93.9591 39.4961 94.4126 41.2346C94.9795 43.2756 95.3197 45.052 96.1512 46.9417C96.189 47.0173 96.3024 47.2819 96.3402 47.3197L96.5291 47.6976C96.5291 44.5606 93.052 27.6283 91.9559 25.3984C91.9181 25.474 91.8425 25.5874 91.8803 25.6252L91.6535 26.4945C91.5402 27.0614 91.5402 27.0992 91.389 27.7039L91.2756 27.1748C91.0866 23.622 92.2205 24.189 90.4441 19.8047C90.1039 18.8976 88.9323 15.5339 89.0835 14.4378C89.0835 14.4 89.0835 14.3244 89.1213 14.2866L90.822 17.6882C90.7843 14.8535 89.348 12.5858 89.0079 9.90236C88.8189 8.61732 89.1213 8.99528 88.252 7.71024C87.4205 8.61732 87.9874 9.44882 87.9874 10.8472L87.1181 8.84409C86.8157 9.97795 85.9843 10.8472 85.4173 11.7165C85.6819 12.8882 85.8709 12.9638 86.2866 13.9465C87.1937 16.1764 88.2898 18.4441 88.8189 20.8252C87.1559 20.2583 86.4756 14.211 84.548 12.8504C83.4142 14.9291 84.6236 15.3071 85.3039 17.537C86.5512 21.8835 85.7953 22.1858 86.4756 24.9071L87.7606 30.1984C89.0079 34.0535 88.1386 32.2772 88.4031 34.3937C88.4787 35.0362 88.6677 35.6787 88.7811 36.0567C90.4441 42.7465 91.5024 49.2094 92.2961 56.2016C92.4094 56.9953 92.8252 59.263 92.8252 59.9811C92.8252 61.9843 93.3921 64.4031 93.3921 66.2551C93.3921 68.7874 93.6945 70.4126 93.6945 73.0961C93.6945 75.5906 93.6945 78.0472 93.6945 80.5417H93.3921C93.3921 78.3496 93.5055 76.0063 93.3165 73.9276C93.2787 73.3228 93.2031 72.2268 93.1654 71.5843L91.3512 53.1402C91.2 52.1953 91.2 51.515 91.0866 50.3055L89.6504 42.8598C88.7433 39.4583 88.4409 34.9606 87.2315 31.8614L86.7402 30.3496C86.3622 28.989 85.8331 27.2126 85.4173 25.7008L84.0567 21.052C83.5654 19.9559 81.6756 17.0079 84.8504 19.1244C84.737 17.6882 83.9433 16.4409 83.4142 15.4205C82.7717 16.1386 82.0913 17.4614 81.7134 18.2929C80.315 21.6567 78.5386 24.6803 77.2157 28.0441C75.6283 32.0504 73.852 35.7543 72.4535 39.874C72.4535 39.9118 72.1512 40.7055 72.1512 40.7433C71.811 41.348 72.0756 41.1591 71.3953 41.4236C72.4535 39.2315 73.2094 36.3591 74.1543 34.1291L79.5591 22.148C79.9748 21.5055 80.0504 21.0898 80.3528 20.3339L81.4866 17.7638C81.8646 17.0079 82.6961 15.9118 82.7717 15.0425C82.8472 14.1732 82.3937 13.9087 81.978 13.4173V15.685C80.9575 14.9291 81.1843 14.2488 80.8441 12.8504C79.1055 13.2283 78.5386 14.589 77.4803 15.7606L76.9512 16.4031C76.9134 16.4409 76.8756 16.5165 76.8378 16.5543L70.6394 24.6425C69.9969 25.3984 69.7323 25.8898 69.6945 27.137C68.4472 27.2126 67.7291 27.515 66.9732 28.422C65.2724 30.463 63.3449 34.1291 61.4173 35.4142L60.3969 34.7339C57.7134 33.0331 56.0126 30.0472 53.9339 27.7417C52.5732 26.2677 53.0268 26.3811 51.137 25.3984C51.137 26.7969 50.948 27.5906 50.8346 29.1024C50.5701 32.2394 49.8142 32.315 50.7213 32.9953C50.7591 33.0331 51.4772 32.5417 51.4772 34.3559L51.137 39.3827C51.0992 41.1591 50.9102 42.0283 50.8346 43.389C50.7591 45.0142 51.2126 49.5118 50.5701 50.8346C49.5874 49.3228 50.6835 38.8535 49.9276 35.7543L49.7764 35.3386C49.7764 35.263 49.7386 35.1874 49.7008 35.1118C49.3606 36.3969 49.3606 35.3386 49.1717 36.8504L48.7181 38.9291C48.5291 40.0252 48.8693 40.9323 48.4157 42.6709C47.6976 45.6567 47.2063 48.5669 47.1307 51.7039C47.0173 56.0882 46.4126 61.115 46.2614 65.3858L46.715 68.674C46.8661 69.2409 46.8283 69.3543 46.8661 69.9591C46.6016 70.0346 46.2614 70.2236 46.2614 70.2236L43.9937 70.2614C43.8047 68.1071 42.7843 68.2583 41.1213 67.6913C39.9496 67.2756 40.5543 67.3512 39.5717 66.6709C31.1811 60.8126 33.7134 65.7638 33.7134 70.526C33.7134 73.7008 32.4661 76.1197 32.7685 79.1811C32.9197 80.7685 32.7685 80.0504 32.5039 81.1843C32.3906 81.6 32.3906 82.1291 32.2394 83.0362C32.0504 84.2079 31.748 86.3622 31.7102 87.685C31.6724 88.4031 31.748 89.2346 31.7102 89.9528C31.6346 91.2 31.4835 91.011 31.4079 92.2583C31.3323 94.2992 31.6724 94.6016 31.7102 96.5291C31.8236 100.724 32.4661 102.765 32.5039 104.05C32.5039 104.126 32.6173 104.58 32.2772 105.109L31.5969 103.521C31.5591 103.446 31.5213 103.37 31.4835 103.332L31.0299 102.652C30.6898 101.858 30.7654 99.1748 30.5764 98.2299L30.2362 99.8929C30.1228 100.611 30.0094 100.8 29.9717 101.707C29.8205 104.655 30.652 102.765 31.1433 104.504C30.6142 104.769 30.0094 104.769 30.0094 104.769L29.1402 105.676C28.0063 105.335 29.0646 105.524 28.1197 105.26C27.5906 105.109 27.2504 105.071 26.7213 104.957C25.3984 104.655 25.3606 104.655 23.7732 104.428C21.7323 104.164 20.1071 103.106 18.2929 103.106C19.1622 106.847 19.011 109.871 19.4268 113.083C19.6535 114.973 20.9008 112.29 20.3339 117.43L20.1449 120.907C20.0693 121.965 20.2205 121.398 20.1827 122.457L19.9937 130.243C19.9937 130.696 20.2583 131.15 20.2961 132.208C20.2961 133.077 20.2205 133.909 20.3339 134.778C20.6362 137.613 20.8252 141.014 21.5433 143.811L22.2992 147.666C21.2409 146.872 21.1654 144.718 20.863 143.357C20.8252 143.433 20.7496 143.509 20.7874 143.546L21.4299 152.504C18.4063 152.277 17.6504 149.367 14.211 148.687L13.1906 148.46C12.8126 148.346 12.0189 148.082 11.7165 147.931C11.8677 149.972 12.548 151.824 12.5858 153.94C13.4929 153.335 12.737 153.487 13.9843 153.373C14.778 155.15 14.9291 156.926 15.3827 158.854L18.6709 172.384C18.9354 173.443 19.3512 174.387 19.4268 175.332C18.6709 174.236 18.1039 171.742 17.6882 170.268L14.8157 159.383C14.5134 157.833 14.1732 155.414 12.8504 154.507C13.2661 156.132 13.4173 157.909 14.0976 159.534C14.1354 159.609 14.1732 159.685 14.211 159.761C14.211 159.798 14.2488 159.874 14.2866 159.95L14.0598 160.29C13.8709 160.365 13.0394 157.002 13.0016 156.699C12.8126 155.717 11.9055 151.975 11.3008 150.917L10.6205 149.669C10.1291 148.384 10.6961 147.099 8.57953 147.099L12.5102 161.991C12.737 162.935 12.737 162.935 13.0772 163.691C13.4551 164.561 13.0772 163.389 13.4173 164.485L14.1732 167.169C14.5134 167.962 14.6268 168.416 14.8157 169.134L16.6299 174.425C17.4992 175.899 16.3654 174.312 17.9906 175.068L17.726 177.071C17.726 178.054 18.3685 179.565 18.5575 180.51C18.4819 181.569 17.537 180.359 17.4236 182.211C17.3102 183.534 17.9906 185.802 18.1795 187.162C18.4441 188.863 18.0283 188.145 18.822 189.317C17.5748 189.014 17.8394 187.729 17.537 186.369L16.5543 181.38C16.1008 179.187 15.2315 179.339 16.5543 177.373C13.0394 175.483 11.0362 177.335 7.67244 176.504C6.4252 176.202 7.40787 176.202 6.27402 176.428C6.19843 176.466 6.00945 176.504 5.93386 176.542L4.57323 176.504C4.95118 177.373 4.64882 176.957 4.0063 177.94C4.72441 179.49 4.8378 180.813 5.25354 182.4C6.19843 186.142 6.95433 190.299 8.57953 193.928C9.6378 196.233 9.67559 198.954 10.885 202.734C11.7543 205.417 12.6236 211.276 14.8535 212.787C13.1906 215.206 16.8567 217.89 13.9843 218.192C13.4929 216.907 14.0976 218.154 13.3039 217.474C13.2661 217.398 13.0772 217.247 13.0016 217.209L9.94016 215.131C9.18425 214.639 7.89921 213.468 6.87874 214.488C6.65197 214.942 6.72756 214.299 6.84094 214.904C7.1811 216.831 8.42835 218.343 9.44882 219.893L13.9087 227.717C14.8157 229.002 15.4583 230.665 16.1764 232.025C16.6677 232.894 17.0457 233.424 17.3858 234.217C18.6709 237.317 20.3339 240.378 22.337 243.024L23.7354 244.989C24.4157 245.934 26.0409 248.239 26.2677 249.335L25.4362 249.638C25.3984 249.676 25.285 249.713 25.2472 249.713L24.8693 249.902C25.3984 251.074 25.7008 250.923 25.4362 252.17C24.189 251.83 24.2268 251.187 23.7354 250.167C21.052 250.431 18.6709 252.132 15.9874 252.17L21.6189 256.857C21.6945 256.857 21.7701 256.932 21.8079 256.932C21.8457 256.97 21.9213 257.046 21.9591 257.046L32.0882 265.512C32.9197 266.117 33.3732 266.494 34.1669 267.175L39.4205 273.033C40.4409 274.318 41.4992 276.057 42.8598 277.077C44.0315 277.946 43.1244 278.324 44.863 279.874L45.9969 280.743L45.3921 281.575C44.2961 280.857 43.9937 279.95 43.1244 279.307L40.5921 279.912C39.3071 279.987 38.8535 279.987 38.5512 281.046H40.8567C40.5543 282.142 40.7055 281.802 39.4205 282.028C37.3795 282.331 34.8094 282.973 33.1465 283.88C34.1669 285.468 37.3417 287.395 38.9291 288.68L47.1307 293.594C47.4709 293.783 47.4331 293.783 47.8488 294.047L58.6961 299.452C61.2283 300.661 63.2315 302.551 65.9906 303.307C67.389 303.723 67.9559 303.685 69.1654 304.403C71.5465 305.839 74.9858 305.613 77.5181 306.935C78.5764 307.502 77.8583 307.465 79.1055 307.616C78.8409 306.369 76.7244 302.816 75.9307 301.38C75.4772 300.624 75.2126 299.868 74.7591 299.074L73.7386 296.995C72.8315 294.765 71.1307 292.46 70.5638 290.192C71.3197 290.721 75.4016 299.528 76.2709 301.002C77.5181 303.156 78.652 305.424 80.315 307.276C81.6756 308.787 83.1118 308.75 85.4173 308.75L80.0882 299.187C79.1811 297.676 78.3496 295.861 77.2913 294.576C76.3465 293.367 74.9102 293.329 74.4189 291.666C73.6252 288.907 76.5732 291.704 77.5181 293.216L83.8299 304.025C84.926 305.802 85.3039 307.654 86.8157 308.75C86.7024 308.145 86.6268 307.805 86.4756 307.087L85.4929 302.362C85.3039 301.228 83.4898 296.315 83.9811 295.824C85.115 294.69 86.0598 299.15 86.8157 300.737L88.2898 303.572C88.7433 304.176 89.0835 304.857 89.915 305.083C89.9906 305.083 90.1795 305.083 90.2551 305.083C90.2551 305.083 90.3685 305.083 90.4063 305.046C91.4646 305.008 91.011 303.798 90.822 302.476C90.7087 301.606 90.1795 300.246 90.822 299.603C91.1244 299.414 90.2551 299.187 91.6535 299.376C92.9008 299.603 92.2583 300.926 93.6945 301.304L96.7181 291.213C96.9827 290.192 97.3606 288.302 97.7008 287.622C96.1512 287.622 95.9622 288.151 94.4882 288.265C92.3717 288.454 90.0661 288.189 87.9874 288.151C86.5512 288.151 85.115 288.189 83.6787 288.189C80.2772 288.189 74.4945 287.66 71.5465 286.337L69.052 285.09C69.0142 285.052 68.9386 285.014 68.9008 284.976L68.2583 284.447C67.6157 284.674 68.3339 285.619 67.3512 284.296C66.6331 283.313 65.7638 283.011 64.7433 282.255C63.2315 281.159 62.022 279.798 60.5858 278.74L60.7748 278.438C60.8126 278.476 62.778 279.836 63.0047 280.025C63.4583 280.365 63.5717 280.517 63.9496 280.781C64.2142 281.008 64.063 280.894 64.4409 281.159L65.3102 281.688C69.4299 284.372 70.3748 285.165 75.7417 286.413L80.8441 287.055C80.8819 287.055 81.6378 287.017 81.6756 287.017L82.3559 286.828C82.3937 286.828 82.5071 286.791 82.5449 286.753C82.5449 286.715 75.6661 284.75 72.3402 283.238C72.189 283.162 71.7732 282.973 71.5465 282.898L69.1276 281.877C69.8457 281.461 71.0173 282.066 71.5087 282.369C72.5669 282.935 72.9449 282.898 73.9654 283.313C75.6283 284.031 77.2535 284.674 79.2189 285.241C81.1843 285.808 82.3937 286.186 84.5858 286.413C85.6819 286.526 86.8913 286.715 87.7228 286.753C88.4409 286.791 88.6677 286.677 89.2724 286.639C91.578 286.375 89.537 287.055 93.9969 286.186C95.1685 285.959 95.3953 286.186 96.189 285.808C98.7969 284.598 98.4567 284.447 99.0614 283.011C99.6283 281.688 100.309 279.723 100.611 278.249C101.178 275.792 101.518 272.92 102.274 270.501C103.975 265.323 105.865 258.104 106.243 253.039C96.4535 253.228 88.0252 253.417 78.6142 249.865C76.8378 249.184 75.0992 248.504 73.2472 247.786C70.1102 246.539 60.5858 242.154 58.2803 240.189C59.074 240.265 72.5291 246.954 75.137 247.861C81.411 250.129 87.6094 252.132 94.2614 252.208C93.5433 251.717 92.5984 251.679 91.7669 251.528C90.9732 251.414 90.1795 251.15 89.3102 250.847C87.7606 250.356 85.9465 250.016 84.2457 249.789L72.3024 246.161C71.5087 245.858 71.1307 245.443 70.3748 244.913L66.4441 242.608C65.6126 242.154 65.1969 241.928 64.4787 241.436C64.1386 241.172 63.9874 241.096 63.6094 240.831L63.3071 240.605C63.2315 240.567 63.1937 240.491 63.1181 240.454C61.8331 239.471 59.8677 238.715 58.8472 237.354C59.8299 237.581 59.9055 238.072 60.9638 238.639L65.2724 241.172C66.1795 241.663 66.7087 241.89 67.5024 242.381L76.989 246.614C78.0094 246.917 78.7654 247.106 79.6724 247.332C80.5417 247.559 81.8268 247.71 82.6205 247.824C85.7197 248.315 88.2898 248.617 91.2378 249.487L99.7039 251.339L104.277 251.036C106.885 250.998 105.865 251.187 106.545 248.202H105.109C105.109 246.123 105.789 243.893 105.751 242.041C105.751 238.904 106.583 235.994 106.469 232.932C106.356 229.795 106.847 226.054 106.809 223.03C107.641 223.672 107.263 225.184 107.225 226.091C107.225 226.696 107.187 226.961 107.187 227.792L106.583 242.759C106.469 244.195 106.545 245.858 106.545 247.332C107.036 246.652 107.074 245.896 107.15 245.065C107.641 240.605 108.548 231.496 108.548 226.772C108.548 225.033 109.266 223.219 108.775 221.14C108.699 220.951 108.586 220.951 108.548 220.195C109.38 220.006 108.964 220.233 109.38 219.628L109.115 205.077C108.548 204.888 109.417 204.888 108.775 205.228ZM5.5937 212.22C5.5937 211.805 6.50079 212.636 5.70709 212.485C5.14016 212.409 5.6315 212.787 5.5937 212.22ZM6.87874 219.628C6.84094 219.591 6.76535 219.515 6.72756 219.477L4.72441 216.076C4.68661 216 4.64882 215.924 4.61102 215.887L4.30866 215.055C5.10236 215.282 5.06457 215.509 5.51811 216.113L7.71024 220.498L6.87874 219.628ZM2.30551 173.367C2.30551 172.384 2.19213 171.364 1.5874 170.872C0.793701 170.23 0.453543 171.175 0 171.628C0.604724 172.535 0.793701 172.12 0.944882 173.48C1.05827 174.274 0.793701 174.198 1.13386 175.332C1.47402 176.428 1.13386 175.408 1.5874 176.353C2.57008 178.583 2.60787 180.699 3.28819 182.967C3.28819 183.005 3.32598 183.08 3.36378 183.156L4.04409 185.65C4.38425 186.482 4.57323 185.764 4.57323 186.784C4.57323 188.712 3.77953 187.162 5.25354 190.11C6.80315 193.247 8.54173 199.899 9.22205 203.263C10.0535 207.42 10.9606 209.688 11.7165 213.052C10.2047 212.712 9.37323 213.052 8.31496 212.183C4.98898 209.386 0.71811 207.42 3.43937 212.485C2.83465 212.787 3.1748 212.712 2.30551 212.787C2.34331 213.543 2.60787 213.883 2.60787 213.959C2.60787 214.715 1.36063 216.227 1.13386 217.058C1.85197 217.398 1.6252 217.587 2.30551 217.096C2.79685 216.718 2.26772 217.172 2.64567 216.605L16.063 235.843C16.7811 237.43 17.726 238.45 18.4819 240L20.674 244.384C21.052 245.178 21.3543 245.783 21.6945 246.501L22.5638 248.769C21.052 248.769 18.6709 249.146 17.3102 249.524C15.3827 250.054 14.9669 250.431 13.1528 250.469C12.0567 250.545 11.0362 250.847 10.2803 251.603C10.5449 252.661 10.3937 252.472 11.2252 252.964C11.6787 253.228 12.3213 253.493 12.8504 253.606C12.4346 254.476 12.5858 254.665 12.5858 255.912C13.6441 255.609 13.4173 255.42 13.7197 254.173C16.063 254.702 17.7638 256.554 19.578 258.028L22.8661 260.447C22.9417 260.485 22.9795 260.523 23.0551 260.561C23.0929 260.598 23.1307 260.674 23.2063 260.712L27.4016 264.491C28.6866 265.55 30.0472 267.25 31.5969 268.309C33.6 269.669 34.8094 271.219 36.0567 273.26C37.2283 275.112 38.8913 276.737 40.5543 278.173C38.2488 278.211 37.5685 279.42 35.8299 280.29L32.7685 281.499C32.0126 281.877 30.6898 281.688 30.1984 283.805C30.0094 284.636 30.1984 284.296 30.274 285.317C32.7685 285.392 30.1228 285.808 32.4661 287.131L36.0567 289.247C38.7402 290.872 41.1969 293.254 43.6913 295.03C45.5811 296.391 47.811 298.091 49.8898 299.15L50.1543 299.301C50.1921 299.301 50.2677 299.339 50.3055 299.376C50.9858 299.83 51.5906 300.321 52.4598 300.85L64.9701 307.2C65.9528 307.578 66.822 308.22 67.6913 307.88C67.3134 307.351 57.6378 302.778 55.8614 301.72C54.2362 300.775 50.5701 299.036 49.1339 297.865L48.6803 297.487C47.2063 296.277 47.3575 296.769 45.1276 294.728C46.4126 294.841 48.9827 296.655 50.0409 297.26C50.6835 297.6 50.9102 297.562 51.4016 297.902C53.5937 299.339 50.2677 299.15 62.2488 303.647C62.8157 303.836 62.9669 303.95 63.5717 304.29L67.5402 305.764C68.5606 306.18 69.1654 306.406 70.1858 306.822L81.0709 310.791C83.0362 311.849 81.6378 311.055 86.8157 311.017L87.1937 313.512C87.3827 314.23 87.3449 314.457 87.4961 315.25L89.9528 333.959C90.4819 337.02 90.2173 340.989 90.7465 343.937C91.1244 345.978 91.1244 345.411 90.8976 347.376C90.7087 349.039 91.8803 351.761 91.9181 353.575C91.9181 354.369 91.5024 356.069 91.4268 357.014C91.389 357.657 91.4268 358.375 91.389 358.98C91.3134 360.227 91.1244 359.622 91.1244 360.454C91.1244 364.989 90.2173 368.844 89.1591 373.039C88.6299 375.194 88.7811 377.613 88.4031 379.994C87.7228 384.227 85.3417 390.047 83.9055 394.356C83.4142 395.83 83.452 395.754 82.8094 396.964C80.9575 400.365 78.8787 407.169 77.8961 409.474L75.5528 414.274C74.0031 417.071 72.5291 419.981 71.4709 423.043C70.2992 426.293 67.6535 429.619 66.0661 432.794C64.9323 435.175 63.3449 437.518 61.7197 439.559L59.4898 442.167C58.5449 443.301 57.222 444.397 56.8441 445.833C54.9921 445.833 53.3669 445.342 51.7039 446.135C52.0819 447.307 53.5181 445.644 56.2772 446.967C55.937 448.176 55.5591 447.723 55.4079 449.235L56.5417 449.537C57.3354 448.97 57.2598 448.668 57.7134 447.836C59.5654 447.874 61.5307 448.857 62.7402 449.65L70.6016 454.904C71.5087 455.66 72.1512 455.433 72.8693 456.076C74.4189 457.436 72 455.698 73.3228 456.491L75.137 456.983L75.5906 456.038C75.9307 454.98 75.6283 455.055 75.6661 454.639C75.6661 453.468 78.274 449.008 78.8787 447.874C79.6346 446.551 80.2394 445.115 81.222 443.906C81.4488 443.641 81.5244 443.565 81.6756 443.339L83.7543 438.765C84.1701 437.972 84.0189 438.236 84.3591 437.329C85.2283 434.948 87.9874 430.375 88.5543 428.976C88.7433 428.447 88.7811 428.031 88.9323 427.389L92.2205 418.356C92.7118 416.92 93.0142 417.222 93.4677 415.635C93.6189 415.106 93.6945 414.652 93.9591 414.123L94.715 412.876C95.4331 411.439 96.0756 407.962 96.4913 406.337L101.745 387.061C102.312 384.869 102.161 384.227 103.294 382.299C103.975 381.128 103.521 381.921 103.483 380.939L105.638 367.257C106.016 365.443 107.414 362.268 106.243 360.454C105.071 362.306 106.167 365.82 104.806 367.861C104.806 362.948 106.318 359.32 106.431 355.465C106.469 354.104 106.431 355.313 106.129 354.293C105.411 351.685 105.865 338.608 105.827 335.622C105.827 335.244 105.6 327.269 105.26 326.589C104.957 326.022 105.222 326.438 104.995 326.438L104.542 326.74C104.504 325.417 104.088 324.813 103.975 323.565C103.861 322.167 103.786 321.638 103.672 320.428C103.483 318.463 102.879 316.762 102.841 314.721C103.635 314.494 103.219 314.835 103.672 314.192C101.707 312.68 103.332 313.814 102.614 312.151C102.236 311.32 102.387 312.605 102.236 311.017L102.652 310.828C102.954 310.715 102.69 310.791 103.03 310.677C104.617 310.186 117.317 308.939 122.457 307.238C125.631 306.18 128.731 306.104 132.17 305.537C135.496 304.97 136.025 303.194 138.18 302.4L142.488 301.002C142.866 300.85 142.828 300.85 143.357 300.699L146.91 299.565C146.948 299.528 147.024 299.528 147.061 299.528C147.137 299.49 147.326 299.49 147.402 299.452C147.666 299.414 147.704 299.452 148.195 299.301C149.443 298.885 150.085 298.469 151.71 298.205C153.26 297.94 154.28 297.676 155.452 297.373C157.191 296.957 159.08 296.731 158.702 294.576C158.665 294.425 158.287 293.405 158.249 293.329C155.15 292.611 150.123 292.838 146.835 292.309C145.663 292.12 144.831 291.704 143.66 291.591L154.62 281.688C155.036 281.272 154.696 281.575 155.263 281.197L157.493 279.156C157.946 278.74 158.211 278.476 158.665 278.06C159.761 277.039 160.517 275.603 161.613 274.696L164.787 271.03C164.976 270.765 165.014 270.69 165.279 270.35C165.317 270.312 165.354 270.236 165.392 270.198L166.186 269.254C167.471 267.553 167.131 267.477 169.209 264.869L173.48 259.162C173.745 258.898 173.82 258.784 174.009 258.557C174.614 257.802 175.71 256.857 176.013 256.063C176.202 255.647 175.975 255.194 176.391 254.929C176.428 254.891 176.504 254.854 176.58 254.816L178.696 253.795C180.094 253.38 180.737 253.871 181.077 252.472C179.074 251.074 178.243 253.002 175.937 253.039C176.957 251.679 177.184 253.342 177.373 251.339C177.033 251.112 177.411 251.187 176.731 251.112C175.446 250.923 174.992 251.981 174.312 252.85L173.631 253.569C172.913 254.06 169.739 254.778 168.567 255.08C166.753 255.609 160.29 258.18 158.816 258.18L162.784 249.033C163.502 247.483 163.88 245.745 164.523 244.195L173.216 226.885C173.896 225.298 175.332 224.542 175.37 222.765L174.728 222.576C174.35 222.501 174.728 222.728 174.236 222.501C174.387 221.707 174.501 221.556 174.879 220.838C175.672 219.439 176.239 218.23 176.239 216.491L177.373 217.625C177.071 216.567 177.071 217.285 176.806 216.189L179.717 214.261C180.888 213.392 181.417 213.165 181.077 211.654C180.208 211.88 180.737 211.691 179.981 212.258L177.071 214.488C175.786 213.506 177.411 213.657 175.068 213.619C175.03 215.849 174.236 215.471 172.8 216.189C171.288 216.983 171.175 217.701 169.361 216.491C167.773 217.587 166.526 218.872 164.523 219.326C164.523 217.625 164.183 217.739 164.523 216.529C166.715 209.235 169.361 202.356 172.309 195.439C172.989 193.776 173.367 192.34 173.556 190.904C173.858 188.939 175.559 184.894 177.033 183.572L177.298 183.307C177.827 182.665 177.562 183.231 177.676 182.211C177.033 181.909 176.504 181.72 175.672 181.644C175.408 182.74 175.408 182.816 174.425 183.269L168.983 185.537C166.677 186.822 164.863 188.409 162.52 189.657C163.162 186.746 165.392 182.929 166.488 179.906L169.512 170.91C169.701 170.306 169.739 170.268 169.928 169.625L172.044 162.066C172.384 160.781 172.157 160.441 172.649 159.194L174.161 154.016C174.576 152.844 175.899 151.03 175.37 149.934C174.652 150.161 174.501 150.387 174.161 151.03L172.309 155.452C171.742 157.417 171.061 159.798 169.928 161.386C170.003 158.816 171.25 155.83 171.855 153.298L173.065 149.631C173.48 148.157 174.085 148.082 174.501 146.23C173.745 145.739 173.405 145.436 172.762 146.154L172.346 147.099C172.309 147.364 172.271 147.628 172.233 148.233C169.512 148.233 166.413 151.181 164.372 152.92L161.688 155.452C161.083 155.943 160.441 156.435 160.365 155.376C160.328 154.772 160.328 155.376 160.403 154.734L161.688 145.965C161.802 144.529 161.991 145.361 162.255 143.66C162.444 142.413 162.52 142.526 162.86 141.43C163.124 140.674 163.2 140.031 163.465 139.2C167.093 128.013 163.502 131.679 164.787 127.672L167.282 120.643C168.831 118.639 166.375 120.151 165.468 120.605C165.43 120.643 165.354 120.68 165.317 120.718L164.976 120.831C164.939 120.831 164.863 120.869 164.787 120.869L163.956 121.096C163.918 121.134 163.88 121.209 163.843 121.247C163.805 121.323 163.767 121.398 163.767 121.436C163.502 121.89 163.767 121.701 163.427 122.306C163.2 122.759 162.557 123.175 162.066 123.515C160.894 124.271 160.025 124.951 158.854 125.707C157.833 126.425 156.85 127.37 155.943 127.937L156.246 121.663C156.359 119.357 156.019 116.901 156.359 114.633L157.115 99.6661C156.926 97.285 157.115 94.8661 156.435 92.5984C154.923 87.3071 154.545 90.3685 154.62 85.9087C154.62 85.4173 154.356 84.2079 154.658 83.263C155.036 82.2803 155.339 82.7717 155.376 81.1087C154.016 80.9575 154.507 80.8441 154.28 79.8236C153.865 78.085 154.091 79.4079 154.243 77.6693C152.088 77.4425 154.62 77.178 152.504 76.5354C151.672 78.3118 152.806 78.8031 150.841 80.315C150.161 80.8441 150.123 80.8063 149.443 81.4488L146.721 83.8677C145.285 84.8504 144.643 87.1937 142.828 87.685C142.791 83.7543 142.715 79.6346 143.509 75.8173C144.416 71.2441 144.869 71.5465 143.395 71.3953C143.395 69.1276 143.093 68.0315 143.169 66.3307L143.244 63.0425C143.244 61.7953 143.433 60.7748 143.093 59.4142C142.791 58.3181 143.093 58.6583 141.959 58.5449C141.732 58.885 141.846 58.5071 141.732 59.1496C141.657 59.7921 142.45 64.6299 142.299 66.8598C142.186 68.2205 142.45 68.485 142.526 69.6945C142.791 74.1543 141.997 77.4803 141.959 81.6756C141.543 81.0709 141.694 80.9197 141.657 80.5417C141.619 80.2016 141.619 79.8614 141.581 79.4835L140.825 67.6535C140.901 65.4992 140.901 65.0835 140.372 63.0047C139.805 60.8504 139.276 55.8236 139.427 53.7071L139.616 51.5906C140.031 48.6803 139.313 45.2409 139.805 42.7087L140.523 40.8189L139.805 40.5165C139.767 40.5165 139.654 40.4787 139.616 40.4787C139.087 40.2898 139.578 40.5921 139.011 40.2898C138.028 39.7606 138.746 39.5339 137.613 39.4205C135.685 39.2315 136.668 40.8945 137.121 41.6882L136.365 42.9354C135.798 43.8047 136.176 43.4646 135.383 43.9937L135.95 41.4236C134.816 41.4992 134.929 41.5748 134.438 42.4441L128.655 52.0819C128.05 52.9512 127.937 52.7622 127.672 53.6693C126.274 52.0819 126.917 51.5528 126.539 49.9654L125.065 46.2992C124.422 45.3165 124.346 44.4094 123.817 43.2756C123.061 41.6126 123.175 39.9118 122.646 38.1354C122.381 37.2283 122.419 37.6441 122.23 37.1528C121.134 34.6583 120.756 32.8441 120.076 30.1606C118.828 25.2472 118.148 26.948 118.261 21.9969C116.334 20.3717 115.88 20.8252 114.142 22.148C112.403 23.4709 112.365 26.948 110.551 28.2709L107.339 20.0315C107.225 19.8425 104.882 13.3417 104.315 15.7228C104.126 16.5165 104.617 16.8189 104.806 17.6882C104.088 17.1591 103.635 16.2142 103.143 15.3827L102.728 14.6646C102.69 14.589 102.539 14.4 102.463 14.3244C102.35 14.1354 102.35 14.1732 102.123 13.8331L97.663 8.27717C96.4157 7.29449 97.0961 5.70709 96.5291 4.57323C94.337 4.7622 96.1512 6.57638 95.5465 6.57638L92.2583 4.8378C90.5197 2.94803 91.3134 2.34331 93.6945 2.57008C93.6945 1.24724 93.4677 1.02047 93.1276 0C91.3134 0.415748 88.7811 2.79685 87.7228 4.27087C86.4756 3.9685 87.3449 3.85512 85.9843 3.70394L86.8535 5.14016C86.5512 5.51811 85.5307 6.34961 85.0394 6.76535L81.0709 9.67559C79.5591 10.4315 78.7654 11.6031 77.4425 12.6236C73.0205 16.063 69.6189 20.485 66.7087 25.285L63.9874 29.4425C63.7606 29.8205 63.6472 30.1606 63.3449 30.5008C62.589 31.4835 62.1354 31.2945 61.6441 32.2016L61.3417 32.7685C61.3039 32.8063 61.1906 33.0331 61.115 33.1087L58.5449 30.5764C58.5071 30.5008 58.4693 30.463 58.4315 30.3874C57.222 28.7622 57.789 28.4598 55.9748 27.137C55.2567 26.5701 55.1055 26.4567 54.5386 25.7008C53.3669 24.0378 51.8173 22.9417 50.0031 21.9969C49.7386 22.4882 49.474 22.8661 49.3606 23.5465L47.0551 38.4378C47.1685 40.7055 46.6016 43.1622 46.2614 45.3543L45.5811 52.0819C45.3165 55.3701 45.3543 59.9055 44.9764 62.4C44.7118 64.063 44.5606 64.9701 44.5606 66.822C40.9323 65.9906 38.2866 63.6094 35.3008 61.5307C34.4315 60.8882 34.0535 60.3591 32.9197 60.2079L32.4283 60.2457C31.4835 60.2457 31.9748 59.9811 31.4457 61.1906C31.0299 62.2488 31.5213 62.0598 31.6346 62.9669C31.8992 64.8189 30.9165 72.6047 30.6142 75.137C30.3874 77.0646 30.6898 79.4079 30.5764 81.411L30.3496 83.9433C30.3496 86.7402 29.4047 88.5921 29.4425 91.6913C29.4425 92.9764 29.1402 96.4913 28.9512 97.474C28.6866 98.7213 28.6866 102.576 27.8929 102.652C27.8551 102.652 27.7795 102.652 27.7417 102.652L27.0614 102.501C26.6835 102.387 26.7969 102.425 26.0409 102.198L22.9795 101.405C21.8079 100.989 19.4268 100.498 18.8598 99.6661C21.9591 99.7039 23.5465 100.724 26.2677 101.367C26.0031 100.346 25.3228 100.082 24.4913 99.7417C22.526 98.9858 21.8457 99.4394 20.1071 99.0236C18.1039 98.5323 19.6157 97.0961 17.4614 96.5669C16.3276 98.0409 17.1969 97.474 16.7433 99.2504C15.9874 102.198 15.6472 100.006 16.6299 104.164C17.0457 105.94 17.0835 109.644 17.0079 111.458L16.9323 114.935C16.9323 115.011 16.9701 115.502 16.9701 115.502L16.8567 117.959C16.7433 119.66 17.0835 121.172 17.1591 122.797C17.2724 125.594 16.7811 126.425 17.0835 128.542L17.348 130.545C17.8016 133.946 18.2929 135.685 18.2929 139.654L18.1039 139.276C18.1039 139.2 18.0661 139.124 18.0283 139.049C17.2724 136.668 16.5921 131.301 16.5543 129.071C15.6472 129.449 16.1386 128.693 16.1764 130.016C16.1764 130.016 16.3276 131.187 16.3276 131.301C16.4409 132.057 16.5165 132.926 16.6677 133.871C17.4236 138.86 18.5953 143.66 18.5575 148.8C17.6126 148.535 17.8016 148.422 17.0079 147.78C16.3276 147.25 16.252 147.137 15.6472 146.57C13.1906 144.34 9.37323 141.392 5.70709 141.354C5.32913 141.921 5.06457 142.224 5.14016 142.866C5.29134 144.151 5.17795 144.076 4.57323 145.361C6.61417 146.457 6.95433 147.704 7.67244 150.009C7.89921 150.69 7.93701 151.068 8.08819 151.861C8.42835 153.713 8.54173 156.132 9.14646 157.909C9.33543 158.589 9.52441 159.156 9.67559 159.723L13.9843 174.501C11.6409 174.501 9.41102 174.917 7.71024 174.501C6.00945 174.085 4.15748 173.329 2.30551 173.367Z" fill="black"/>
<path fill-rule="evenodd" clip-rule="evenodd" d="M80.5417 178.205C79.748 178.205 80.5417 178.054 80.5417 178.054C80.6173 177.751 81.2598 178.205 80.5417 178.205ZM79.9747 177.94L79.8991 177.865C79.8991 177.865 79.9369 177.978 79.9747 177.94ZM79.4078 177.638C79.37 177.676 79.3322 177.562 79.3322 177.562L79.4078 177.638ZM78.8409 177.638C78.8031 177.676 78.7653 177.562 78.7653 177.562L78.8409 177.638ZM75.9684 176.202C74.6834 175.899 70.3747 174.01 69.6944 173.065C70.9795 173.178 73.0204 174.652 74.381 175.257L75.9684 176.202ZM95.6598 181.644C95.7732 180.51 95.5842 180.548 96.0755 180.019C96.6425 179.414 96.2645 180.586 96.718 179.263C96.8692 178.847 96.8314 178.394 96.8314 177.94C93.8834 177.676 95.1684 178.81 93.1275 178.772C87.6472 178.772 86.8535 178.356 82.4692 177.147C79.9747 176.466 74.7212 174.274 72.3401 172.989C69.1653 171.213 66.3684 169.852 63.307 167.773L60.6991 166.11C60.359 165.921 59.981 165.77 59.6787 165.657C60.0188 166.488 59.6409 165.959 60.6614 166.677L66.9354 171.25C67.8425 171.855 69.2031 172.347 69.6944 173.065C68.3338 172.762 67.3133 171.969 66.2551 171.364L56.2771 165.09C56.5039 165.884 56.5795 165.921 58.0157 166.791C58.9228 167.358 59.3763 167.622 60.2456 168.265L64.5543 171.061C65.9527 172.006 67.5779 172.8 69.0897 173.707C72.6425 175.861 75.0991 176.769 78.8031 178.243C79.7102 178.621 80.2015 178.772 81.3354 179.15C83.3007 179.754 90.822 181.758 92.5606 181.682C93.7322 181.606 95.244 181.455 95.6598 181.644Z" fill="black"/>
<path fill-rule="evenodd" clip-rule="evenodd" d="M78.8409 215.66C77.8582 215.546 76.8377 214.904 75.5905 214.299C72.6425 212.863 67.6157 209.461 66.2551 209.348L68.9385 211.238C73.9653 214.677 70.8661 212.976 76.9889 216.038L79.8992 217.436C79.9747 217.436 80.0503 217.474 80.0881 217.512C80.1637 217.55 80.2393 217.55 80.3149 217.587L88.6299 220.687C89.6881 221.216 98.4188 223.105 100.951 222.614C102.501 222.312 105.827 221.594 106.923 220.762L107.263 220.498C107.527 220.157 107.603 219.666 107.679 219.061C106.734 219.742 107.868 219.59 106.885 219.666C106.658 219.666 106.545 219.326 105.449 219.364C103.408 219.439 102.501 221.594 95.5842 220.573C93.1275 220.195 91.3889 219.855 89.159 219.288C83.6031 217.927 74.1543 212.031 68.6362 208.97C67.6535 208.403 64.4787 206.476 63.4204 206.211C63.874 206.853 66.0661 208.063 67.011 208.592L78.3873 215.244C78.8409 215.584 78.5763 215.395 78.8409 215.66Z" fill="black"/>
<path fill-rule="evenodd" clip-rule="evenodd" d="M147.969 103.105C147.931 103.068 148.006 103.03 148.044 103.03L147.969 103.105ZM146.23 98.2299C145.928 97.9275 146.683 97.1716 146.381 97.9275C146.381 97.9275 146.721 98.7212 146.23 98.2299ZM149.367 97.096C149.367 98.948 148.535 99.5905 147.969 100.535C147.477 101.442 146.608 102.992 146.532 103.937L148.233 104.315C148.12 105.562 147.666 106.507 147.364 107.641L146.381 111.231C145.701 113.537 145.058 115.994 144.529 118.224C145.247 117.694 145.096 117.505 145.436 116.561L149.254 105.26C149.632 104.277 149.669 104.088 149.669 102.803L148.233 102.539L150.69 97.1716C151.143 95.5842 149.972 95.433 148.838 95.9621C147.742 96.5291 147.855 97.3228 146.532 97.6629L150.047 93.5055C151.106 92.5228 150.803 93.3165 150.803 91.3889C148.913 91.5779 149.556 91.9936 148.498 93.6566C146.986 95.9621 146.797 95.6598 145.209 97.8141L143.282 100.422C142.564 101.291 142.564 100.838 142.526 102.236C143.698 101.972 143.66 102.047 144.454 101.329C145.096 100.762 145.474 100.271 145.928 99.6661L148.233 97.6629C148.498 97.5118 148.233 97.6251 148.762 97.3606C148.913 97.285 149.216 97.1716 149.367 97.096Z" fill="black"/>
<path fill-rule="evenodd" clip-rule="evenodd" d="M26.8724 148.233C26.8346 143.244 25.1716 129.827 24.8315 123.402C24.7937 122.154 23.9244 116.976 24.5669 115.956C24.6425 117.014 25.096 117.581 25.285 118.45L26.5701 130.507C27.3638 129.902 26.4945 127.03 26.5323 123.666L26.1543 119.017C26.2299 118.035 26.1921 115.767 25.6252 114.86C24.9071 113.764 25.1338 114.52 24 114.822C24 113.046 23.7354 112.403 23.811 111.383C23.8488 110.4 23.9622 109.039 23.4331 107.943C21.9968 107.981 21.959 108.095 22.2236 109.077C23.1307 112.101 24.5291 124.12 24.6425 127.786C24.7181 129.184 24.7181 131.112 24.9827 132.964C25.2472 134.891 25.3606 136.592 25.5496 138.558C25.5874 139.276 25.663 141.543 26.0031 143.358C26.8346 148.195 25.2472 147.817 26.8724 148.233Z" fill="black"/>
<path fill-rule="evenodd" clip-rule="evenodd" d="M73.4363 411.553C74.6079 410.91 74.1922 411.137 74.7969 409.814C75.0993 409.172 75.4016 408.454 75.704 407.849C76.3087 406.564 76.7623 405.241 77.4804 403.918C78.1985 402.52 78.5008 401.462 79.2945 400.025L80.5796 397.039C81.8646 394.583 87.9875 380.636 86.8158 379.502C85.8331 378.52 85.4552 379.654 85.3796 380.674C85.2284 383.509 84.7371 384.718 83.6788 387.591C83.4142 388.347 83.3008 388.876 82.9229 389.669L73.4363 411.553Z" fill="black"/>
<path fill-rule="evenodd" clip-rule="evenodd" d="M18.293 216.491L12.2835 192.794C11.3387 188.712 9.78905 185.046 8.50401 181.455C8.12606 180.397 8.16385 179.868 7.44574 179.376C6.34968 179.641 6.65204 179.868 6.00952 180.775C7.89929 181.795 7.89929 183.685 8.42842 185.462C9.07094 187.578 8.65519 184.176 9.97803 187.956C10.2804 188.787 10.4694 189.09 10.7717 190.035C11.0741 190.942 11.1497 191.584 11.4898 192.454C11.7544 193.285 12.019 193.852 12.2079 194.835L17.6127 215.433C18.0284 216.68 17.2725 216.076 18.293 216.491Z" fill="black"/>
<path fill-rule="evenodd" clip-rule="evenodd" d="M115.994 110.513C116.523 109.606 115.578 105.26 115.691 103.105C115.805 99.9307 115.389 98.9858 115.389 97.096C114.142 96.4157 114.104 96.2646 113.953 94.526C113.915 93.3921 113.31 89.2724 112.819 88.252C110.513 88.4409 111.874 89.7638 112.554 92.2205C113.31 94.9039 112.441 93.6567 114.028 97.8897C114.935 100.384 114.822 108.548 115.994 110.513Z" fill="black"/>
<path fill-rule="evenodd" clip-rule="evenodd" d="M124.535 277.606C123.175 277.72 123.326 278.589 119.811 280.327C116.145 282.142 112.176 283.616 108.51 285.581C107.943 285.883 100.913 289.398 102.652 290.041C103.181 290.23 103.332 289.89 103.748 289.398C104.957 288.075 104.164 288.718 106.129 287.471C108.019 286.299 111.723 284.825 113.575 283.767L122.948 280.025C124.309 279.458 125.291 279.345 124.535 277.606Z" fill="black"/>
<path fill-rule="evenodd" clip-rule="evenodd" d="M35.7165 82.8095C35.7165 83.5276 35.7165 84.0567 35.7921 84.737C35.9055 85.9087 35.8677 85.0772 35.7543 86.2866L35.9055 91.5024C35.9055 92.0315 35.7543 92.1449 35.7543 92.863C35.6409 95.8866 35.7921 95.2063 36.2834 95.3953L36.3212 90.8599C36.3968 89.6882 36.5102 72.189 36.0945 71.3197C35.7165 70.526 35.3386 70.6016 34.8472 70.526C34.1669 72.0378 35.7165 75.9685 35.7165 79.9748L35.7543 82.6583C35.7543 82.6961 35.7165 82.7717 35.7165 82.8095Z" fill="black"/>
<path fill-rule="evenodd" clip-rule="evenodd" d="M92.4472 400.063C91.9559 401.083 90.2551 403.918 90.5575 404.712L92.5228 401.235C92.7118 400.857 92.9386 400.517 93.1276 400.139L95.1685 395.036C95.3953 394.28 95.7732 392.957 95.9622 392.126C96.1512 391.143 96.2646 390.085 96.4913 389.254C96.7559 388.309 97.9654 384 96.5291 384C95.0173 384 95.7732 387.175 95.7732 387.364C95.7732 389.367 95.0551 393.146 94.337 394.809C93.8835 395.943 93.6945 397.38 92.4472 400.063Z" fill="black"/>
<path fill-rule="evenodd" clip-rule="evenodd" d="M89.3857 65.1212L86.7401 53.5181C86.0975 51.6283 84.2834 44.9764 83.4897 43.6157C82.9983 42.7464 82.7338 42.8976 82.2802 42.822C81.6755 44.0315 82.8849 44.9386 83.981 47.9622C84.6613 49.7764 85.4172 51.7795 85.9841 53.6693C86.3243 54.8409 86.6645 55.1055 87.0046 56.3905L88.7054 63.8362C89.0456 65.4614 88.5164 64.7433 89.3857 65.1212Z" fill="black"/>
<path fill-rule="evenodd" clip-rule="evenodd" d="M166.526 226.469L166.261 226.809C165.808 227.641 164.485 230.967 163.162 233.121L158.664 240.34C158.324 240.907 158.362 240.794 158.06 241.474L156.812 243.628C158.135 243.288 158.173 242.23 159.08 240.756L161.008 238.11C161.046 238.035 161.197 237.846 161.235 237.77L167.282 227.754C167.698 226.734 167.433 226.734 166.526 226.469Z" fill="black"/>
<path fill-rule="evenodd" clip-rule="evenodd" d="M17.159 199.635C17.4236 198.992 16.1008 195.439 15.7606 194.419L14.2488 189.128C13.9464 188.221 13.8708 187.654 13.4929 186.746L12.6992 184.63C12.3212 183.421 12.4724 183.383 11.7165 182.513C10.8472 182.702 11.263 182.589 10.5826 183.08C10.6204 183.307 13.1149 187.616 14.022 191.055L16.1385 197.48C16.5165 198.841 16.1385 198.917 17.159 199.635Z" fill="black"/>
<path fill-rule="evenodd" clip-rule="evenodd" d="M109.682 67.956C109.946 67.3512 108.321 59.1497 108.208 58.6205C108.057 58.0158 107.868 56.7686 107.754 56.1638C107.528 55.0678 107.225 54.463 107.15 53.6693C106.885 51.5906 107.036 50.1166 105.676 49.1339C104.995 50.1922 104.995 49.7008 105.449 51.0237C105.6 51.4394 105.676 51.6662 105.827 52.1197C107.565 57.2599 107.981 61.7197 109.266 66.6709L109.682 67.956Z" fill="black"/>
<path fill-rule="evenodd" clip-rule="evenodd" d="M151.975 152.202C153.109 151.332 156.208 139.994 157.72 136.554C158.4 134.967 159.761 133.946 159.118 133.304C158.022 132.208 157.455 134.778 157.077 135.647L151.975 152.202Z" fill="black"/>
<path fill-rule="evenodd" clip-rule="evenodd" d="M105.109 294.728C104.731 294.539 105.335 294.69 104.466 294.539C102.879 294.274 102.69 294.841 102.69 293.972C102.728 293.594 104.202 292.46 104.58 292.195C105.033 291.931 105.26 291.855 105.676 291.591C106.205 291.288 106.243 291.175 106.923 290.835L115.465 286.828C116.636 286.375 118.715 285.959 119.395 285.014C118.488 284.636 118.035 285.052 116.976 285.468C115.956 285.921 115.54 286.11 114.558 286.488L102.728 292.649C102.69 292.687 102.614 292.724 102.539 292.762L102.236 293.027C101.972 293.254 102.123 293.065 101.821 293.443C101.48 293.896 101.632 293.556 101.405 294.161C101.821 294.765 101.972 294.879 102.841 295.03C103.521 295.106 104.542 295.106 105.109 294.728Z" fill="black"/>
<path fill-rule="evenodd" clip-rule="evenodd" d="M24.8694 241.323C25.4741 240.794 24.9828 240.756 24.1135 238.639L19.6914 227.641C18.482 225.298 18.7088 225.033 18.104 224.088C17.4615 223.181 16.8946 222.199 16.2899 222.765C15.5339 223.484 16.63 224.353 17.0458 224.844C18.9355 227.15 22.7906 236.032 23.7355 238.715L24.8694 241.323Z" fill="black"/>
<path fill-rule="evenodd" clip-rule="evenodd" d="M103.105 246.199C102.803 245.027 103.068 245.405 101.707 245.291C99.0991 245.065 96.9826 243.969 94.4881 243.099C93.7322 242.797 93.5054 242.608 92.7873 242.381L92.1826 242.23C91.2377 241.776 90.8976 241.436 89.3857 241.058C90.255 242.306 94.2991 243.893 95.7353 244.422C97.4739 245.102 101.556 247.181 103.105 246.199Z" fill="black"/>
<path fill-rule="evenodd" clip-rule="evenodd" d="M96.5291 104.542L95.9622 97.096C95.8866 96 95.2063 89.1212 94.5638 89.1212H93.959C93.3921 90.1417 93.9968 90.4818 94.5638 93.3543C94.9795 95.3952 95.9244 103.143 96.5291 104.542Z" fill="black"/>
<path fill-rule="evenodd" clip-rule="evenodd" d="M13.7196 109.379C13.7196 110.362 13.4173 109.228 13.7196 111.647L15.9495 127.71C16.1385 128.088 16.1385 128.013 16.2897 128.239L14.211 110.589C14.0598 109.228 14.7023 106.318 14.2865 105.373C12.2078 105.6 13.7196 108.094 13.7196 109.379Z" fill="black"/>
<path fill-rule="evenodd" clip-rule="evenodd" d="M100.838 351.307C101.027 349.606 100.649 344.542 100.384 342.803L98.5323 332.145C98.1544 330.784 97.8898 330.444 96.8315 330.747C96.9827 332.107 96.8315 331.087 97.2473 331.767C98.3811 333.695 98.6835 336.34 99.2126 338.608L99.8552 342.576C100.006 343.559 100.158 343.824 100.271 344.731L100.535 352.139L100.838 351.307Z" fill="black"/>
<path fill-rule="evenodd" clip-rule="evenodd" d="M39.4204 141.354L38.9291 118.224C37.4929 118.942 37.9464 118.261 38.5511 123.402C38.6645 124.384 38.5133 125.556 38.5511 126.539C38.6267 127.824 38.8535 128.05 38.8535 129.638C38.8535 130.734 38.8535 131.679 38.9291 132.737C39.0047 133.644 38.9669 132.926 38.8913 133.946C38.7401 136.101 38.9669 136.063 39.0425 137.688C39.0803 138.217 39.0425 137.613 39.0803 138.293C39.1559 139.238 38.9291 140.598 39.4204 141.354Z" fill="black"/>
<path fill-rule="evenodd" clip-rule="evenodd" d="M76.8 428.447L77.367 427.54C77.4048 427.465 77.4804 427.427 77.5182 427.389C78.8032 425.839 79.3701 424.328 80.0882 423.08L81.1087 421.002C81.4489 420.321 81.7134 419.83 82.0914 419.074L84.5481 412.422C83.83 412.498 83.7922 412.044 83.1497 413.896C81.8646 417.487 82.2048 417.6 80.2394 421.228L79.4079 423.269C79.2567 423.647 79.1434 424.176 78.9544 424.517L76.8 428.447Z" fill="black"/>
<path fill-rule="evenodd" clip-rule="evenodd" d="M83.1119 430.11C82.4316 429.354 82.5072 430.942 81.1087 433.55L78.5009 437.518C78.4631 437.594 78.3497 437.82 78.3119 437.896C78.2741 437.934 78.2363 438.009 78.1985 438.047L75.515 442.243C75.4772 442.318 75.3261 442.469 75.2883 442.545C74.7969 443.301 75.0237 442.734 74.8347 443.565C75.5528 443.339 75.4772 443.339 76.1953 442.318C76.6867 441.676 76.8001 441.26 77.2914 440.58C79.1434 437.82 81.1087 435.175 82.167 432C82.3182 431.471 82.356 431.32 82.545 430.98L83.1119 430.11Z" fill="black"/>
<path fill-rule="evenodd" clip-rule="evenodd" d="M69.1275 196.195C68.9007 195.401 69.2408 195.855 68.4471 195.175L65.8015 192.642C65.159 191.773 63.3448 189.657 62.2865 189.354C62.2865 190.45 62.1353 190.148 63.3826 191.698C64.1385 192.642 64.592 192.718 65.5747 193.776L69.1275 196.195Z" fill="black"/>
<path fill-rule="evenodd" clip-rule="evenodd" d="M30.8409 256.176L30.9543 256.101C30.9165 256.101 30.8787 256.214 30.8409 256.176ZM34.5826 263.622C34.318 262.526 33.7889 262.148 33.3354 261.165C33.1086 260.712 32.9952 260.372 32.7684 259.956L32.0503 258.671C30.3873 255.08 31.9369 256.592 30.9543 254.967C29.8582 253.228 28.8377 253.493 29.6314 255.383L30.0472 256.441C30.0472 256.479 30.085 256.554 30.1228 256.63C30.1606 256.668 30.1983 256.743 30.2361 256.819C30.5385 257.424 30.3117 257.046 30.6519 257.537L33.7511 262.715C33.7889 262.791 33.8267 262.866 33.8267 262.904L34.5826 263.622Z" fill="black"/>
<path fill-rule="evenodd" clip-rule="evenodd" d="M53.1403 221.631C53.1025 220.686 53.1781 221.102 52.9135 220.422C52.8757 220.346 52.8379 220.309 52.8001 220.233L52.3088 219.288C51.893 218.532 51.5529 218.192 51.0237 217.474C50.4946 216.794 50.1544 216.34 49.6631 215.66C48.6426 214.337 48.9072 214.261 48.0001 213.921C47.3198 215.282 47.7733 215.282 48.6426 216.113C50.1167 217.549 52.271 220.573 52.7245 221.027L53.1403 221.631Z" fill="black"/>
<path fill-rule="evenodd" clip-rule="evenodd" d="M65.1213 107.641C64.7055 106.205 63.4205 106.356 61.0016 104.617C60.0567 103.975 60.2079 104.277 59.1118 104.542C59.2252 105.751 59.4898 105.713 61.6441 106.583C62.589 106.961 63.8362 107.641 65.1213 107.641Z" fill="black"/>
<path fill-rule="evenodd" clip-rule="evenodd" d="M42.2928 208.479C42.5574 207.194 42.3306 207.723 41.4614 206.438C40.781 205.455 40.7432 204.926 40.2897 203.906H38.8535C38.5511 205.039 38.3999 205.039 40.2141 206.854C41.0834 207.761 41.159 207.874 42.2928 208.479Z" fill="black"/>
<path fill-rule="evenodd" clip-rule="evenodd" d="M103.068 300.208L107.225 297.449C108.283 296.806 108.321 296.731 109.228 296.013L109.909 295.559C110.551 295.068 110.74 294.879 110.778 293.934C108.586 293.253 110.06 293.745 108.246 293.896L108.624 294.085C109.228 294.501 109.19 294.274 109.379 295.03C108.472 295.294 109.19 294.879 108.472 295.559C106.545 297.411 107.036 296.39 104.995 298.356L103.068 300.208Z" fill="black"/>
<path fill-rule="evenodd" clip-rule="evenodd" d="M103.672 241.323C103.521 240.076 103.068 240.264 99.4015 240.189C98.759 240.189 92.5984 239.282 91.9937 239.622L97.5118 240.642C99.5527 241.02 101.82 240.907 103.672 241.323Z" fill="black"/>
<path fill-rule="evenodd" clip-rule="evenodd" d="M81.7134 428.41C82.2426 427.767 82.4693 427.087 82.9985 426.293C83.3386 425.802 83.452 425.65 83.641 425.235L85.4552 421.909C85.9465 420.926 86.3244 420.284 85.4174 419.565C84.737 422.362 83.5654 422.136 84.2835 423.572C82.9229 423.912 83.4898 424.214 82.5827 425.877C82.2426 426.52 81.1465 427.956 81.7134 428.41Z" fill="black"/>
<path fill-rule="evenodd" clip-rule="evenodd" d="M112.252 79.4078C112.214 78.0094 112.101 75.4015 110.816 74.5322C110.438 74.759 110.513 74.6834 109.984 74.8346L111.345 78.5763C111.723 79.4078 111.194 78.8409 112.252 79.4078Z" fill="black"/>
<path fill-rule="evenodd" clip-rule="evenodd" d="M57.411 186.482C57.0708 185.273 56.6173 185.424 55.7858 184.706C54.6141 183.685 55.2944 183.572 53.707 183.912C54.085 185.537 55.8992 186.482 57.411 186.482Z" fill="black"/>
<path fill-rule="evenodd" clip-rule="evenodd" d="M28.5732 117.392C28.5732 113.802 29.1401 111.458 29.1401 108.246L28.2708 114.255C28.2708 115.691 27.8551 116.863 28.5732 117.392Z" fill="black"/>
<path fill-rule="evenodd" clip-rule="evenodd" d="M54.5386 46.5638L54.8409 38.8535C53.8582 39.5716 54.6142 39.0803 54.463 41.4614C54.463 41.8393 54.3874 42.1417 54.3496 42.5952C54.1984 44.0693 54.5008 43.6157 54.3118 44.863C53.9716 46.8661 53.9338 46.0346 54.5386 46.5638Z" fill="black"/>
<path fill-rule="evenodd" clip-rule="evenodd" d="M89.9528 405.846C89.4992 405.279 89.8016 405.543 89.2725 406.564C88.7811 407.509 88.1764 407.887 87.6851 409.852C87.7229 409.776 87.7229 409.701 87.8362 409.701L88.4788 408.907C89.3481 407.622 88.1764 409.361 88.7433 408C89.4236 406.45 88.9701 408.529 89.8772 406.035C89.8772 405.997 89.915 405.921 89.9528 405.846Z" fill="black"/>
<path fill-rule="evenodd" clip-rule="evenodd" d="M54.274 53.1024V48.8315H53.9717V53.1024H54.274Z" fill="black"/>
<path fill-rule="evenodd" clip-rule="evenodd" d="M50.5701 57.4111L50.6457 52.3843C50.6834 52.1575 50.7212 52.1197 50.6457 51.8174C50.3433 50.4567 50.6834 51.704 50.2677 51.0992L50.5701 57.4111Z" fill="black"/>
<path fill-rule="evenodd" clip-rule="evenodd" d="M35.9811 98.5322C36.737 97.8519 35.9811 98.8724 36.1322 96.7936C36.2456 95.4708 36.0567 95.7732 35.7165 95.6598C35.7165 96.2267 35.5653 98.1921 35.9811 98.5322Z" fill="black"/>
<path fill-rule="evenodd" clip-rule="evenodd" d="M89.6883 69.3921C89.9906 68.9008 89.9906 70.1102 89.9528 68.5606C89.9528 67.8425 89.6505 66.5575 89.1213 65.9528C89.3481 67.0488 89.6883 68.1071 89.6883 69.3921Z" fill="black"/>
<path fill-rule="evenodd" clip-rule="evenodd" d="M50.5701 63.1182C50.5701 61.8331 50.7968 59.4142 50.2677 58.5449L50.4567 62.9292C50.4567 62.967 50.5323 63.0426 50.5701 63.1182Z" fill="black"/>
<path fill-rule="evenodd" clip-rule="evenodd" d="M50.57 66.5575V63.3827C50.0787 64.1764 50.2677 65.348 50.2677 66.5575H50.57Z" fill="black"/>
<path fill-rule="evenodd" clip-rule="evenodd" d="M35.9811 107.112V104.239C35.9433 104.315 35.8299 104.391 35.8677 104.428L35.6787 105.373C35.6787 105.865 35.7165 106.583 35.7165 107.112H35.9811Z" fill="black"/>
<path fill-rule="evenodd" clip-rule="evenodd" d="M69.392 288.189C69.392 287.282 69.5432 287.622 69.2031 286.942L68.5605 286.186C68.6739 286.602 68.7117 286.866 68.8629 287.282L69.392 288.189Z" fill="black"/>
<path fill-rule="evenodd" clip-rule="evenodd" d="M18.5574 218.457C18.5574 217.965 18.633 217.928 18.4818 217.436C18.1795 216.567 18.1795 216.983 17.9905 216.756C18.0283 217.663 17.9905 218.041 18.5574 218.457Z" fill="black"/>
<path fill-rule="evenodd" clip-rule="evenodd" d="M81.6756 428.712C81.1087 428.901 81.3354 428.674 80.9575 429.09C80.5417 429.506 80.7685 429.279 80.5417 429.846C81.7512 429.506 81.1465 429.695 81.6756 428.712Z" fill="black"/>
<path fill-rule="evenodd" clip-rule="evenodd" d="M70.5637 289.89C70.4126 288.756 70.4504 288.983 69.6945 288.454C69.9212 289.474 69.8456 289.398 70.5637 289.89Z" fill="black"/>
<path fill-rule="evenodd" clip-rule="evenodd" d="M108.246 209.348H107.981V211.351C108.246 210.898 108.132 211.88 108.246 210.482C108.283 210.255 108.246 209.651 108.246 209.348Z" fill="black"/>
<path fill-rule="evenodd" clip-rule="evenodd" d="M35.9811 103.672L36.0189 101.669C35.7543 102.047 35.7921 101.594 35.6787 102.501C35.6787 102.765 35.7165 103.37 35.7165 103.672H35.9811Z" fill="black"/>
<path fill-rule="evenodd" clip-rule="evenodd" d="M107.981 212.22C107.943 212.258 107.792 212.334 107.868 212.372L107.679 213.317C107.641 213.732 107.679 214.337 107.679 214.791L107.981 213.657C108.019 213.241 107.981 212.636 107.981 212.22Z" fill="black"/>
<path fill-rule="evenodd" clip-rule="evenodd" d="M54.274 48.2646L54.5385 47.1307C53.9338 47.3575 54.2362 46.7906 54.0472 47.4709C53.7448 48.567 54.2362 48.189 54.274 48.2646Z" fill="black"/>
<path fill-rule="evenodd" clip-rule="evenodd" d="M54.274 54.8409V53.4047H53.9717V54.8409H54.274Z" fill="black"/>
<path fill-rule="evenodd" clip-rule="evenodd" d="M14.7024 163.956C14.8536 162.973 14.8158 162.709 14.2866 161.953L14.7024 163.956Z" fill="black"/>
<path fill-rule="evenodd" clip-rule="evenodd" d="M89.1212 239.32V239.055H87.9873V239.32H89.1212Z" fill="black"/>
<path fill-rule="evenodd" clip-rule="evenodd" d="M35.9811 100.535V99.4016H35.7166V100.535H35.9811Z" fill="black"/>
<path fill-rule="evenodd" clip-rule="evenodd" d="M107.679 217.625L107.414 215.055C107.414 216.113 107.187 216.869 107.679 217.625Z" fill="black"/>
<path fill-rule="evenodd" clip-rule="evenodd" d="M35.9811 110.249C35.9811 109.228 36.1323 109.191 35.7165 108.51C35.7165 108.624 35.6787 109.342 35.7165 109.38L35.9811 110.249Z" fill="black"/>
<path fill-rule="evenodd" clip-rule="evenodd" d="M39.7228 144.794C39.5716 143.32 39.9874 144.264 39.1559 143.962C39.3827 144.453 39.3071 144.491 39.7228 144.794Z" fill="black"/>
<path fill-rule="evenodd" clip-rule="evenodd" d="M68.8252 281.613L68.2583 281.046C67.6913 281.461 68.1449 281.613 68.8252 281.613Z" fill="black"/>
<path fill-rule="evenodd" clip-rule="evenodd" d="M107.452 221.367C107.225 221.556 107.187 221.405 106.998 221.82C106.734 222.501 106.885 221.934 106.847 222.765L107.452 221.367Z" fill="black"/>
<path fill-rule="evenodd" clip-rule="evenodd" d="M91.389 239.32C89.8772 239.32 91.011 239.32 90.5575 239.622C91.8803 239.622 91.0866 239.622 91.389 239.32Z" fill="black"/>
<path fill-rule="evenodd" clip-rule="evenodd" d="M85.4174 413.858C85.7197 413.783 86.0599 413.216 85.4552 413.443C85.2284 413.556 84.6615 413.972 85.4174 413.858Z" fill="black"/>
<path fill-rule="evenodd" clip-rule="evenodd" d="M71.6976 42.2551C72 41.9527 71.2819 41.2346 71.5464 41.9149C71.5464 41.9527 71.2063 42.7464 71.6976 42.2551Z" fill="black"/>
<path fill-rule="evenodd" clip-rule="evenodd" d="M100.535 353.008C101.027 353.499 100.687 352.668 100.687 352.668C100.951 351.987 100.233 352.706 100.535 353.008Z" fill="black"/>
<path fill-rule="evenodd" clip-rule="evenodd" d="M50.5701 58.2425C50.8724 57.9779 50.1543 57.222 50.4189 57.9401C50.4189 57.9401 50.0787 58.7338 50.5701 58.2425Z" fill="black"/>
<path fill-rule="evenodd" clip-rule="evenodd" d="M159.95 302.173C160.441 302.665 160.101 301.833 160.101 301.833C160.365 301.153 159.647 301.871 159.95 302.173Z" fill="black"/>
<path fill-rule="evenodd" clip-rule="evenodd" d="M68.2582 285.883C68.5606 285.581 67.8425 284.863 68.107 285.543C68.107 285.581 67.8047 286.375 68.2582 285.883Z" fill="black"/>
<path fill-rule="evenodd" clip-rule="evenodd" d="M89.9905 70.2614C90.255 69.959 89.5747 69.2031 89.8393 69.9213C89.8393 69.9213 89.4991 70.7527 89.9905 70.2614Z" fill="black"/>
<path fill-rule="evenodd" clip-rule="evenodd" d="M20.296 153.373C20.5606 153.071 19.8803 152.315 20.1448 153.033C20.1448 153.033 19.8047 153.865 20.296 153.373Z" fill="black"/>
<path fill-rule="evenodd" clip-rule="evenodd" d="M35.9811 108.246C36.2835 107.943 35.5654 107.225 35.8299 107.906C35.8299 107.906 35.5276 108.737 35.9811 108.246Z" fill="black"/>
<path fill-rule="evenodd" clip-rule="evenodd" d="M14.2866 161.083C14.589 160.781 13.8709 160.063 14.1354 160.743C14.1354 160.743 13.7953 161.575 14.2866 161.083Z" fill="black"/>
<path fill-rule="evenodd" clip-rule="evenodd" d="M39.4204 142.224C39.685 141.959 39.0047 141.203 39.2692 141.921C39.2692 141.921 38.9291 142.715 39.4204 142.224Z" fill="black"/>
<path fill-rule="evenodd" clip-rule="evenodd" d="M87.1181 411.251C87.3826 410.948 86.7401 410.23 86.9669 410.948C86.9669 410.948 86.6645 411.704 87.1181 411.251Z" fill="black"/>
<path fill-rule="evenodd" clip-rule="evenodd" d="M39.9873 153.071C40.2519 152.769 39.6094 152.05 39.8361 152.731C39.8361 152.769 39.5716 153.487 39.9873 153.071Z" fill="black"/>
<path fill-rule="evenodd" clip-rule="evenodd" d="M156.51 244.762C156.548 244.649 156.661 244.422 156.661 244.384C156.624 243.855 156.737 244.271 156.51 243.931C156.472 243.968 156.359 244.044 156.397 244.082L156.51 244.762Z" fill="black"/>
<path fill-rule="evenodd" clip-rule="evenodd" d="M86.5512 411.855C87.2693 411.855 86.6268 411.364 86.5512 411.666C86.5512 411.666 85.7197 411.855 86.5512 411.855Z" fill="black"/>
<path fill-rule="evenodd" clip-rule="evenodd" d="M73.3984 412.686V411.855C73.3607 411.893 73.2095 412.006 73.2851 412.006C73.3607 412.044 73.2095 412.157 73.2095 412.195C73.2473 412.762 73.2095 412.384 73.3984 412.686Z" fill="black"/>
<path fill-rule="evenodd" clip-rule="evenodd" d="M39.7229 145.928V145.096C39.6851 145.134 39.5339 145.247 39.5717 145.247L39.7229 145.928Z" fill="black"/>
<path fill-rule="evenodd" clip-rule="evenodd" d="M107.414 218.759L107.112 217.927C107.187 218.192 107.225 218.646 107.414 218.759Z" fill="black"/>
<path fill-rule="evenodd" clip-rule="evenodd" d="M56.8441 239.32H56.8819C56.4661 238.904 56.4661 238.98 56.8441 239.32Z" fill="black"/>
<path fill-rule="evenodd" clip-rule="evenodd" d="M145.399 200.768C145.399 200.768 145.247 200.693 145.285 200.693C145.285 200.693 145.361 200.806 145.399 200.768Z" fill="black"/>
<path fill-rule="evenodd" clip-rule="evenodd" d="M160.214 301.039C160.252 301.077 160.327 300.964 160.327 300.964L160.214 301.039Z" fill="black"/>
<path fill-rule="evenodd" clip-rule="evenodd" d="M76.5354 428.976L76.4598 428.901C76.4598 428.901 76.5354 429.014 76.5354 428.976Z" fill="black"/>
<path fill-rule="evenodd" clip-rule="evenodd" d="M36.0189 101.102L35.9055 101.027C35.9055 101.027 35.9811 101.14 36.0189 101.102Z" fill="black"/>
<path fill-rule="evenodd" clip-rule="evenodd" d="M39.9875 153.638L39.9119 153.562C39.9119 153.562 39.9497 153.676 39.9875 153.638Z" fill="black"/>
<path fill-rule="evenodd" clip-rule="evenodd" d="M145.965 200.504L145.852 200.428C145.89 200.428 145.928 200.542 145.965 200.504Z" fill="black"/>
<path fill-rule="evenodd" clip-rule="evenodd" d="M39.7228 148.498L39.6094 148.422C39.6094 148.422 39.685 148.536 39.7228 148.498Z" fill="black"/>
<path fill-rule="evenodd" clip-rule="evenodd" d="M89.6881 239.32L89.6125 239.244C89.6125 239.244 89.6503 239.358 89.6881 239.32Z" fill="black"/>
<path fill-rule="evenodd" clip-rule="evenodd" d="M50.5701 67.3889L50.4567 67.3134C50.4945 67.3134 50.5323 67.4267 50.5701 67.3889Z" fill="black"/>
<path fill-rule="evenodd" clip-rule="evenodd" d="M39.4204 143.66L39.3448 143.584C39.3448 143.584 39.3826 143.698 39.4204 143.66Z" fill="black"/>
<path fill-rule="evenodd" clip-rule="evenodd" d="M80.2772 430.715L80.1638 430.602C80.2016 430.602 80.2394 430.715 80.2772 430.715Z" fill="black"/>
<path fill-rule="evenodd" clip-rule="evenodd" d="M67.6913 280.743L67.6157 280.668C67.6157 280.668 67.6535 280.781 67.6913 280.743Z" fill="black"/>
<path fill-rule="evenodd" clip-rule="evenodd" d="M39.7228 147.364L39.6094 147.288C39.6094 147.288 39.685 147.401 39.7228 147.364Z" fill="black"/>
<path fill-rule="evenodd" clip-rule="evenodd" d="M108.813 206.211L108.737 206.135C108.737 206.135 108.813 206.249 108.813 206.211Z" fill="black"/>
<path fill-rule="evenodd" clip-rule="evenodd" d="M85.9843 412.989L85.9087 412.913C85.9087 412.913 85.9465 413.027 85.9843 412.989Z" fill="black"/>
<path fill-rule="evenodd" clip-rule="evenodd" d="M108.548 208.214L108.435 208.101C108.472 208.139 108.51 208.214 108.548 208.214Z" fill="black"/>
<path fill-rule="evenodd" clip-rule="evenodd" d="M63.4205 434.986L63.3071 434.91C63.3449 434.91 63.3827 435.024 63.4205 434.986Z" fill="black"/>
<path fill-rule="evenodd" clip-rule="evenodd" d="M108.548 206.778L108.435 206.702C108.472 206.702 108.51 206.816 108.548 206.778Z" fill="black"/>
<path fill-rule="evenodd" clip-rule="evenodd" d="M134.513 236.75L134.438 236.674C134.438 236.674 134.476 236.787 134.513 236.75Z" fill="black"/>
<path fill-rule="evenodd" clip-rule="evenodd" d="M109.38 245.027L109.304 244.951C109.304 244.951 109.342 245.065 109.38 245.027Z" fill="black"/>
<path fill-rule="evenodd" clip-rule="evenodd" d="M108.548 207.345C108.586 207.307 108.397 207.269 108.472 207.269L108.435 207.231L108.548 207.345Z" fill="black"/>
<path fill-rule="evenodd" clip-rule="evenodd" d="M88.2519 11.4142C88.2897 11.3764 88.1385 11.3386 88.1763 11.3386L88.1385 11.3008L88.2519 11.4142Z" fill="black"/>
<path fill-rule="evenodd" clip-rule="evenodd" d="M71.4331 42.8221C71.4709 42.8221 71.2819 42.7465 71.3197 42.7465L71.4331 42.8221Z" fill="black"/>
<path fill-rule="evenodd" clip-rule="evenodd" d="M56.2771 239.055C56.3149 239.017 56.1638 238.979 56.2016 238.979L56.2771 239.055Z" fill="black"/>
<path fill-rule="evenodd" clip-rule="evenodd" d="M39.7228 146.495C39.7228 146.495 39.5717 146.419 39.6095 146.419L39.7228 146.495Z" fill="black"/>
<path fill-rule="evenodd" clip-rule="evenodd" d="M90.255 405.279C90.2928 405.241 90.1417 405.203 90.1795 405.203L90.255 405.279Z" fill="black"/>
<path fill-rule="evenodd" clip-rule="evenodd" d="M55.4079 164.787L55.2567 164.674C55.2945 164.674 55.3701 164.75 55.4079 164.787Z" fill="black"/>
<path fill-rule="evenodd" clip-rule="evenodd" d="M57.7134 239.924C58.5827 240.794 56.8063 239.017 57.7134 239.924Z" fill="black"/>
<path fill-rule="evenodd" clip-rule="evenodd" d="M73.1339 35.6031C70.4882 33.9401 66.2173 36.0945 62.3622 40.6299C58.4693 45.1275 55.0299 52.0441 52.0441 60.8504C49.0961 69.6567 46.5638 80.3527 46.337 86.3244C46.1102 92.2583 48.1134 93.4677 50.3811 91.6157C52.6488 89.7638 55.1433 84.8882 56.504 78.5764C57.9024 72.2646 58.1291 64.5543 61.4551 59.2252C64.7811 53.9338 71.2063 51.0992 73.9654 46.9417C76.6866 42.7464 75.7417 37.3039 73.1339 35.6031Z" fill="#86E3AB"/>
<path fill-rule="evenodd" clip-rule="evenodd" d="M39.4582 110.778C38.022 108.586 35.8676 113.915 33.8645 121.474C31.8235 129.033 29.9338 138.784 30.3873 144.265C30.8786 149.745 33.7133 150.954 36.0944 148.271C38.4755 145.587 40.4031 139.049 40.97 130.885C41.5747 122.721 40.8566 112.97 39.4582 110.778Z" fill="#86E3AB"/>
<path fill-rule="evenodd" clip-rule="evenodd" d="M122.948 67.7291C124.46 72.3779 127.748 79.4078 129.487 81.6C131.263 83.7543 131.49 81.0708 129.978 76.422C128.466 71.7354 125.178 65.0834 123.439 62.8913C121.663 60.737 121.436 63.0425 122.948 67.7291Z" fill="#86E3AB"/>
</svg>
