<svg width="144" height="537" viewBox="0 0 144 537" fill="none" xmlns="http://www.w3.org/2000/svg">
<path fill-rule="evenodd" clip-rule="evenodd" d="M71.9806 2.97075C76.3649 5.16288 83.0924 11.1345 89.7066 17.6353C96.283 24.1361 102.708 31.166 109.7 41.2574C116.655 51.3109 124.176 64.4259 129.392 78.4101C134.607 92.4322 137.518 107.361 139.445 123.991C141.373 140.659 142.355 159.065 141.108 177.509C139.861 195.953 136.384 214.435 131.47 234.089C126.557 253.78 120.207 274.605 112.422 292.747C104.636 310.851 95.4515 326.272 90.8027 335.191C86.1539 344.111 86.0783 346.568 86.1917 351.783C86.305 356.999 86.6452 364.974 87.1365 372.306C87.6657 379.638 88.3838 386.29 87.968 394.719C87.5523 403.147 85.9649 413.352 82.5255 430.624C79.0484 447.897 73.7192 472.275 70.3176 487.166C66.9161 502.02 65.4798 507.349 65.1019 513.396C64.7617 519.481 65.4798 526.246 65.7822 529.459C66.0846 532.672 65.9712 532.331 62.7586 531.349C59.546 530.404 53.2342 528.816 50.0594 528.023C46.9224 527.229 46.9224 527.229 48.7365 521.484C50.5507 515.701 54.2169 504.174 56.7869 494.423C59.3948 484.634 60.9822 476.583 62.9098 468.306C64.8373 459.991 67.1806 451.412 69.5995 441.094C72.0184 430.813 74.5885 418.794 75.9113 407.153C77.2342 395.512 77.3476 384.249 76.5161 375.254C75.6468 366.259 73.7948 359.531 69.4861 351.33C65.2153 343.166 58.4499 333.49 53.1964 326.649C47.9428 319.846 44.1633 315.84 39.6657 308.508C35.168 301.175 29.9523 290.479 24.8499 277.856C19.7476 265.27 14.7964 250.719 11.3948 237.679C7.99323 224.64 6.17906 213.112 4.78063 201.396C3.3822 189.679 2.39953 177.812 2.47512 166.284C2.5885 154.719 3.72236 143.531 4.44047 135.027C5.15858 126.561 5.49874 120.779 7.76646 111.33C10.072 101.919 14.305 88.8038 18.9539 75.9912C23.6405 63.1786 28.7428 50.7062 33.7696 41.1062C38.7964 31.544 43.7476 24.8542 48.7365 19.1849C53.7255 13.4778 58.6767 8.75343 62.1539 5.57863C65.631 2.40382 67.6342 0.778627 71.9806 2.97075Z" fill="#BED573"/>
<path fill-rule="evenodd" clip-rule="evenodd" d="M141.184 163.676L141.297 163.601C141.259 163.601 141.222 163.714 141.184 163.676ZM68.3901 344.035L66.5759 343.43C66.5759 343.506 66.6893 343.582 66.7649 343.619L68.0877 345.471L69.2594 344.338C69.8641 344.716 70.1287 344.942 70.5444 345.66L71.3381 347.777C71.5649 348.382 71.9429 349.062 72.1318 349.591L73.6058 352.199C74.1728 353.408 74.324 356.886 74.7019 358.36L77.6877 373.705C78.8594 376.426 79.0484 376.426 78.935 379.638C78.8972 380.999 79.0862 379.336 79.0862 380.734L77.3476 410.819C77.1586 412.898 76.8562 413.541 76.6295 415.619L75.3822 422.196C74.9287 423.632 74.7775 425.295 74.2106 426.58C73.5303 428.016 73.4547 429.112 73.0389 430.662C72.7366 431.834 72.5854 431.72 72.5854 433.119L68.4279 454.927C67.9366 457.308 67.6342 460.634 66.8405 462.939L61.5869 483.613C61.3602 484.747 61.0578 485.163 60.9822 485.956C60.7555 488.224 59.924 490.945 59.3948 493.1L57.1649 500.772C56.2578 503.456 56.2578 505.232 55.124 507.727C54.7082 508.634 55.0106 507.689 54.6704 508.785L52.894 514.87L54.0657 515.739L54.7082 514.038C54.9728 513.169 54.935 512.942 55.5397 512.262C55.9555 513.245 54.9728 514.794 54.9728 516.344C55.5775 516.873 55.8799 517.44 56.9759 517.516C57.694 516.079 56.9759 514.908 58.4499 513.736C58.4499 514.038 58.4877 514.568 58.4499 514.87L58.2232 515.55C58.2232 515.588 58.1854 515.701 58.1476 515.777L59.924 516.646C60.4531 516.986 61.0956 517.402 61.6625 517.78L64.8373 520.426C64.9885 520.086 65.1397 519.443 64.9507 519.103C64.6862 518.46 64.1948 518.385 63.6279 517.856C63.0988 517.402 63.0232 517.251 62.4184 516.76C61.6247 516.155 61.5869 516.268 61.0578 515.475C62.7586 514.568 63.4767 516.042 64.8373 516.949C64.8751 514.303 65.0263 514.643 63.4011 512.867C63.4767 512.829 63.5145 512.791 63.6279 512.791L64.8751 512.564L65.0641 506.593C65.2531 504.59 66.3114 501.717 66.3492 500.621C66.4247 498.202 67.1051 493.289 67.861 490.794L69.2594 484.898C69.524 483.953 69.7507 483.046 70.0531 481.912C70.3555 480.854 70.7334 480.023 70.8846 479.191C71.1114 478.133 71.2247 477.755 71.3381 476.47C70.3177 477.226 69.2594 480.741 68.6925 482.026H68.1255C68.1255 482.026 66.7271 491.399 65.7444 489.245C64.9129 487.544 67.6342 481.345 68.3901 479.078C68.6169 478.36 68.8436 477.906 69.1838 477.264L70.0531 475.827C70.1665 475.525 70.431 474.693 70.6578 474.051C72.3586 469.478 73.9838 464.791 74.9665 460.029L78.9728 439.544C79.1618 438.561 79.3507 438.145 79.4641 437.427L86.1161 402.353C86.4184 400.842 87.2877 392.451 87.061 391.393C86.7586 389.919 86.3806 390.448 86.5696 389.654C86.7586 388.823 86.5696 389.541 86.9476 388.974L87.2121 388.596C87.5901 387.916 87.4389 386.253 87.4389 385.761C87.4767 382.095 87.4011 379.941 86.9854 376.653L85.8893 369.925C85.6247 368.111 85.6625 366.183 85.2846 364.331C85.2846 364.256 85.209 363.991 85.1712 363.916C85.1712 363.84 85.1334 363.764 85.0956 363.689L85.3224 369.623C85.2846 370.416 85.3224 371.361 85.3224 372.268C85.3224 372.646 85.3224 373.213 85.3602 373.667L85.5869 382.057C85.8137 384.514 86.1161 383.871 85.1712 384.249L84.831 377.182C84.831 376.464 84.8688 377.522 84.831 376.577L84.6421 372.608C84.6043 371.437 84.6043 370.341 84.5287 369.282C84.4909 368.602 84.5665 368.905 84.4909 368.073L84.0751 355.412C84.0751 352.804 84.5287 351.934 84.0751 350.196C83.1681 350.838 83.0925 352.426 82.8279 353.56C82.1854 356.281 82.1098 356.583 82.9791 359.153C83.0169 359.267 83.1681 359.985 82.9035 360.363C80.598 358.662 81.9586 354.013 82.5255 351.821C83.6216 347.55 84.0751 350.045 81.1271 344.451C78.935 340.331 78.9728 346.416 78.0279 337.043C77.8767 335.305 78.0657 336.212 77.4988 334.927L77.3098 333.944C77.3098 333.906 77.3476 333.83 77.3476 333.793L77.461 333.453C77.9145 331.298 77.1586 330.467 76.2515 329.219C77.0074 328.123 76.8184 326.649 76.6295 325.364C76.3649 323.626 75.1555 316.142 75.3444 314.593C75.3822 313.988 75.231 314.366 75.7224 313.761C75.6846 314.933 75.8358 315.424 76.0247 316.369C76.6295 319.279 77.7255 326.763 77.7255 328.917C78.7838 329.03 78.9728 329.182 79.7287 329.56C80.4468 329.9 81.0515 330.051 81.5051 330.656L82.0342 329.068C82.1098 328.123 82.072 327.368 82.2232 326.423L84.4153 313.194C84.6799 312.325 84.2263 312.665 85.0578 312.325C84.6043 313.194 84.6799 315.424 84.4909 316.445C83.6216 320.413 82.6767 326.271 82.6767 330.391C82.6767 331.109 83.0547 331.26 83.4704 331.601L84.9822 332.432C85.2468 331.374 86.1917 330.202 86.7586 329.257L88.6484 325.856C88.9129 325.402 88.8751 325.553 89.1019 325.175L89.3287 324.797C89.3665 324.722 89.4799 324.495 89.5177 324.419C89.9334 323.739 90.198 323.399 90.5003 322.794L91.4074 321.056C93.2972 317.087 95.6783 313.497 97.6436 309.528C98.2862 308.243 98.3618 306.92 99.8736 306.542C100.629 307.638 100.554 308.205 99.7602 309.075L98.135 311.191C98.0972 311.267 98.0594 311.305 98.0216 311.38L95.7161 314.895C95.2625 315.538 95.0736 315.84 94.6956 316.482C94.2799 317.125 94.0909 317.541 93.7507 318.183C91.1429 323.21 87.8547 328.01 85.2846 332.999L88.4972 337.081C89.1019 335.834 88.7995 335.493 89.0263 334.624C89.2909 333.566 90.009 333.264 90.5381 332.432L98.0216 318.07C99.231 315.916 99.7224 313.232 101.31 311.456L107.092 300.949C107.357 300.419 107.433 300.268 107.659 299.777L108.151 298.794C108.151 298.719 108.226 298.643 108.226 298.605C108.264 298.568 108.302 298.454 108.34 298.416C108 297.396 107.47 298.114 107.47 296.942C107.47 295.771 108.302 296.073 108.944 296.375C108.982 293.994 109.852 293.692 110.607 293.238C111.93 292.52 118.204 275.626 118.885 273.963L121.719 265.761C122.551 262.927 122.891 259.79 123.836 257.068L126.33 248.527C127.2 244.558 128.56 241.723 129.656 238.133C129.959 237.112 129.883 236.697 130.148 235.714C130.412 234.769 130.715 234.882 130.866 233.824C130.979 233.068 130.903 231.708 130.903 230.914C132.907 229.175 133.209 225.358 134.192 221.692C134.985 218.819 135.174 215.229 135.968 212.394C136.611 210.051 137.329 208.123 137.329 205.629C137.329 203.286 138.085 202.379 138.425 200.262C138.84 197.541 139.407 191.002 138.84 188.432L138.576 189.075C138.576 189.112 138.387 189.717 138.387 189.755L129.807 232.766C129.581 234.391 129.959 235.109 128.863 235.601C128.9 232.879 131.055 220.974 131.546 218.744L133.511 210.542C133.927 209.144 134.116 207.821 134.418 206.46L136.27 199.242C136.27 199.166 136.27 198.675 136.308 198.637C136.384 197.39 136.724 195.689 136.951 194.139C137.442 190.964 137.366 187.979 137.707 184.69C137.82 183.708 139.37 168.816 140.05 167.796H139.407H139.294C139.294 167.796 139.218 167.796 139.181 167.758C139.256 166.851 139.521 166.246 139.559 165.49L140.315 162.24C141.978 159.292 140.503 154.757 140.503 151.544C140.503 150.523 140.844 150.297 140.088 149.73C140.05 150.75 140.012 151.166 139.672 151.96C139.596 152.111 139.256 152.602 139.218 152.678C138.765 153.169 139.143 153.018 138.349 153.207C140.315 149.39 140.088 144.438 139.748 140.168C139.407 135.859 138.349 123.16 136.497 119.871C135.855 118.662 135.741 116.697 137.064 118.397C137.896 119.38 136.951 119.04 138.085 119.456C137.253 117.717 137.178 112.35 136.875 109.931C136.308 105.812 134.985 102.334 134.343 98.2148L133.587 95.1911C132.793 92.1675 130.828 84.9108 129.845 82.6431L128.409 79.1282C127.88 78.2211 127.729 77.503 127.275 76.4825C127.162 76.2935 126.784 75.5754 126.67 75.3486C126.141 74.4793 126.217 75.0463 125.952 74.0258L126.784 73.988C128.069 74.7061 125.612 74.0258 127.426 74.5927C126.708 71.6825 124.894 69.4904 123.685 66.9959L120.963 61.8557C120.472 60.9864 120.359 59.8148 119.792 58.9455C119.225 58.114 118.733 57.9628 118.318 56.7911L117.864 55.6573C117.826 55.5439 117.6 55.1282 117.562 55.0526L108.907 41.0305C108.529 40.5392 108.378 40.4636 108 39.9345C106.148 37.2888 104.636 37.0998 104.182 35.8526L104.296 35.1345C104.371 34.1896 103.351 33.1313 102.708 32.4132L97.0011 25.8746C96.283 25.1943 96.0562 25.1943 95.3003 24.4006L94.7334 23.7959C94.6956 23.7581 94.62 23.6825 94.5822 23.6447L81.7318 11.7392L85.7003 16.5014C88.4972 19.4872 91.1051 22.7754 94.2421 25.4211C95.2625 26.3282 94.8468 25.5345 95.1869 26.5171C93.9019 26.177 92.5035 24.8919 91.6342 23.947L90.2358 22.473C90.198 22.4352 90.1224 22.3596 90.0846 22.3219L80.1444 10.9833C79.6531 10.4541 79.6153 10.4919 79.1995 9.88721C78.2547 10.8699 76.9318 12.3817 76.5917 13.6667C77.3854 14.8762 78.4058 15.6321 79.0484 17.0305L80.1444 18.8447C80.3334 19.1093 80.5602 19.525 80.6736 19.7896C81.4673 21.3392 80.6736 20.8856 79.8799 19.6762C79.5397 19.147 79.6909 19.336 79.2751 18.8447L75.9869 15.1407C73.9838 17.3329 75.2688 18.0132 75.9869 20.3565L80.9003 38.4226C79.8043 37.6289 78.1035 30.0321 77.6877 28.2557L75.5334 20.2431C75.1177 19.1093 74.7775 18.7691 74.5507 17.7486C72.8877 18.9581 68.8814 28.0667 68.957 30.2211C69.0326 31.8085 69.8641 34.303 69.2216 35.4746C68.8058 34.7187 67.8232 23.3423 67.8232 21.7927C66.7649 22.5864 67.3696 22.8132 66.3869 23.5691C66.8783 21.6037 67.7476 21.9061 67.3696 19.714C67.1051 18.2778 67.2562 16.9549 66.7271 15.6699C66.5381 15.2163 66.5759 15.3675 66.3869 15.103C66.1602 15.4431 65.7066 15.8967 65.631 16.388C65.4043 17.5974 66.7649 18.1644 65.4043 22.5486L62.5318 34.303C62.1161 36.3439 61.6625 39.4431 61.7003 41.8998C61.6247 41.862 61.4358 41.7864 61.4736 41.7864L60.7932 41.5974C60.7555 43.6762 59.3948 47.8337 59.0925 50.0636C58.3366 55.8085 58.7523 56.2242 58.4499 59.8904L58.072 64.5014C57.8452 65.5219 57.694 65.0683 57.5429 66.6179L57.2405 70.9644C57.1271 72.325 56.7869 72.4762 56.7492 73.7612L56.2578 77.2762C55.5775 79.8841 55.9555 82.3408 55.6153 85.062C54.8972 90.3911 55.1995 88.6526 55.2751 93.7171C55.2751 96.2116 53.9523 104.375 54.1791 106.643L53.0452 135.33C52.9696 136.728 52.894 137.068 52.8562 138.164C52.8562 138.996 53.0452 139.752 53.0452 141.415C53.083 144.968 52.6673 149.541 53.0452 153.018C53.1208 153.698 53.2342 153.812 53.3854 154.643C54.557 160.69 53.3476 165.15 53.5744 171.386L54.557 181.478C54.8594 182.952 54.9728 184.312 55.3129 185.673C54.3681 185.257 54.2169 183.065 54.1413 182.158L53.9523 182.574C53.1586 184.917 52.3649 198.561 52.3649 200.791C52.3649 205.553 52.6673 205.175 53.0074 209.408L54.0657 221.465C54.2547 222.864 54.4814 222.448 54.6326 224.073C54.8216 225.698 54.8972 227.89 55.1618 229.364C55.3129 230.347 55.6531 231.216 55.6531 231.708L57.883 247.582L60.1129 255.254C60.1129 259.223 60.6421 263.569 61.9271 267.122C63.4389 271.355 62.7586 274.832 63.5901 279.67C63.8169 281.068 64.0814 282.391 64.4216 283.752C64.9885 285.944 66.198 299.248 66.7271 300.949L69.0326 313.723C69.2972 314.895 69.335 316.445 69.5618 317.579C70.5066 322.303 71.3003 327.141 72.5854 331.714C72.9255 332.848 73.3035 333.793 73.5681 334.775C74.5129 338.215 75.7602 341.352 76.5161 344.905C75.3444 343.997 74.0972 338.782 73.5681 337.119L73.0389 335.871C73.0389 338.706 74.0594 341.163 74.6641 343.619C74.8909 344.602 74.8153 344.564 75.1555 345.434C75.6468 346.756 76.2893 348.155 76.2137 349.591C76.1381 350.99 76.2137 350.007 75.9492 350.46C74.6263 349.478 73.8326 345.434 73.0389 343.771C71.4515 340.293 70.62 334.397 69.5995 330.618L66.5381 317.427C66.0846 315.311 64.346 311.418 65.5555 309.679C66.7271 311.947 67.7854 319.468 68.4279 322.794C68.5413 323.361 68.5035 323.286 68.6547 323.739L68.9948 324.533C68.9948 321.925 67.9744 318.523 67.5964 315.802C67.3696 314.177 66.9539 312.627 66.7649 311.342C65.8956 305.522 64.2704 299.815 63.3633 294.145C62.4184 288.249 61.5869 280.048 60.3019 274.53C59.4704 270.788 57.2027 257.56 57.2027 254.649C55.5775 254.498 56.031 253.78 55.7665 252.571C55.6909 252.268 55.6531 252.079 55.6153 251.928L54.6704 241.761C54.3303 239.078 54.6704 236.357 54.1413 233.597C54.1035 233.446 54.0279 232.993 53.9901 232.879L53.7633 232.237C53.3476 232.955 53.7255 233.938 53.7633 234.845C53.7633 236.583 53.7255 237.301 53.461 238.624C52.4027 237.944 52.6295 237.226 52.5917 236.016L51.6846 220.331C51.6468 219.538 51.6846 219.916 51.6846 219.462C51.6846 217.912 51.2688 216.892 51.1555 215.04C51.1177 214.246 51.0421 213.679 50.9665 213.226C50.5129 210.353 50.7775 208.993 50.7397 206.914L50.8153 204.155C51.0421 201.282 50.9287 195.197 50.4751 192.514C50.2106 190.775 49.757 189.188 49.757 187.412C51.2688 186.996 50.5885 185.786 50.6641 183.897L50.7397 172.785C50.7397 170.026 50.3618 166.435 50.5885 163.676C50.7019 162.467 50.3995 161.975 50.3995 160.615C50.324 156.986 50.2484 154.19 49.7192 150.864C49.6058 150.183 49.1523 148.294 49.1523 147.916C49.1523 147.802 48.8877 147.311 49.6058 147.122C50.1728 146.971 50.4373 147.311 50.5885 147.613C50.6641 147.764 50.8909 149.012 50.9287 149.049C50.9287 149.238 51.0043 149.616 51.0421 149.805C51.231 150.41 51.0421 150.032 51.3066 150.448C51.3066 146.328 50.7397 143.418 50.9665 139.298C51.0421 137.975 51.0043 137.295 50.8909 136.086L51.8358 117.906C51.8736 117.301 51.8358 117.528 51.8736 116.621C51.9114 116.016 51.9869 115.601 52.0625 115.071C52.4405 112.69 51.9869 110.234 52.1381 108.722C52.2893 107.512 52.4783 106.53 52.5539 105.585C52.6673 103.997 52.2893 103.733 52.2515 102.372C52.1381 100.18 52.4783 101.087 52.894 99.9911C53.272 99.0085 53.9145 83.1722 54.0279 79.9974C54.2169 75.1974 54.4058 71.4179 55.124 67.0715C55.5397 64.2368 56.6736 61.1376 56.598 58.2274C56.5224 54.1077 57.3161 46.5864 58.2232 42.5045C59.1303 38.4604 59.1303 33.2825 60.6043 29.4274C61.5492 26.9329 61.7381 23.8715 62.3051 21.2258C61.7381 21.8683 61.2846 22.6998 60.5665 22.9644C60.8688 22.3596 61.02 22.0573 61.398 21.4526C62.5318 19.7518 62.872 17.862 63.4389 15.9345C63.8547 14.536 64.0814 13.6667 64.4972 12.0415C64.7995 10.8321 65.7444 9.35807 64.9507 8.11083C64.3082 9.47146 65.6688 9.20689 64.3838 10.7565C63.6657 11.6636 64.2704 10.3407 63.6279 11.7392C63.5901 11.8148 63.1366 13.1754 63.0988 13.2888C62.5696 15.2163 62.6074 18.1644 61.7381 19.147C60.4909 19.0715 60.831 18.8069 60.2641 18.0132C59.4704 21.2636 59.5838 20.8856 60.1507 23.9848C60.4531 25.6478 60.3019 25.2321 60.3397 26.7817C60.3775 27.8778 60.831 28.6337 59.0925 28.7848C58.6011 27.7266 58.5633 25.988 57.9208 25.0053C55.8799 29.1628 58.3366 31.5061 59.0925 33.4337L57.9208 33.7738L57.3161 32.262C57.1271 31.7329 57.0137 31.0148 56.7492 30.4856C55.6531 31.8085 55.2373 36.0793 54.7838 37.8557L54.4058 38.9518C53.9901 37.8935 55.0484 35.0589 55.3885 33.5093C55.8043 31.5817 56.5224 29.8431 56.1822 28.1801H55.6153C55.2373 29.6919 54.4058 31.3171 53.7633 32.7533C53.3476 33.6226 53.0074 34.2274 53.1586 35.0211C53.3098 35.9659 53.9145 35.21 52.6673 37.1754C51.9869 38.2337 51.3066 38.8762 50.8531 40.0478C50.2862 41.4841 49.4169 45.6037 48.8499 46.5108C48.3586 45.4526 49.0011 43.714 49.4547 42.7313C48.5098 43.1093 48.6988 43.8652 48.0562 44.8478C47.5649 45.6415 47.3003 46.2841 46.5444 46.8132C46.62 45.6793 49.8704 40.01 50.6641 38.6872L55.5397 27.2352C55.6153 26.1392 54.746 25.3455 54.4436 24.0982C53.3854 24.2872 54.0279 24.325 52.9696 24.0982C52.6673 25.4589 52.6295 25.0431 51.9114 25.9502C50.7397 27.3486 49.7948 30.1077 48.3208 31.0904C48.661 29.9187 48.2452 31.1659 48.661 30.2589C49.2279 29.0116 53.8389 22.5864 52.5917 22.0195C51.1932 21.3392 53.0452 23.947 51.0421 20.5455C50.8153 20.1675 50.8531 20.2431 50.6641 20.0163C49.3791 20.8856 45.5995 26.1392 44.2767 27.9156L41.6688 31.9974C39.2499 35.1722 36.2641 39.5187 34.5633 43.2226C32.5602 47.5313 31.5019 48.514 29.9145 51.9911C28.8184 54.41 27.5334 56.8667 26.4373 59.2856C25.8704 60.4951 25.5303 61.8557 24.9255 63.0274C24.661 63.5565 24.8121 63.1785 24.5476 63.7833C23.3003 66.7691 22.8468 69.9817 21.7129 72.9297C21.4106 73.6856 21.1838 74.0636 20.8814 74.9707C19.294 79.8085 16.9885 85.3644 15.1366 90.24L14.0027 94.3597C13.7759 95.3423 13.5114 95.5691 13.3602 96.325C11.9995 102.712 9.9586 109.327 8.93813 115.79C8.63577 117.679 8.3712 118.662 8.03104 120.136C7.65309 121.95 7.31293 122.819 7.01057 124.634L5.80112 131.323C5.57435 132.268 5.68774 132.684 5.57435 133.705C5.1964 137.333 5.00742 139.034 5.00742 143.38C4.51608 142.549 4.85624 141.944 4.44049 140.999C3.91136 141.49 4.17592 142.889 4.13813 143.645C4.06254 144.968 3.98695 144.741 4.02474 145.837L3.64679 155.928C3.64679 156.571 3.87356 157.364 3.76018 158.423C2.7775 165.679 4.06254 176.262 4.06254 183.557C4.06254 185.446 4.55388 184.993 5.00742 186.391C5.34758 187.336 5.1586 188.432 5.1964 189.642C5.38537 192.779 6.97278 205.138 7.99325 209.257C9.92081 217.157 10.2232 224.753 11.9995 232.577L14.3051 241.61C15.1743 244.634 16.2326 247.657 16.8373 250.719C16.9129 251.097 16.9507 251.777 17.1019 252.457L18.5381 256.879C19.2562 258.58 19.3696 260.961 19.9744 262.7L20.1255 263.116C20.1255 263.191 20.1633 263.267 20.2011 263.342L23.6405 274.719L28.4027 285.679C28.894 286.662 29.083 287.796 29.4988 288.665C29.8767 289.459 30.4058 289.95 30.7838 291.122C31.8043 294.032 33.1271 296.602 34.6011 299.248C34.9413 299.853 34.9791 299.815 35.2436 300.344C35.546 300.797 35.6594 301.1 35.9995 301.629L43.1429 312.816C44.0121 313.875 44.3145 314.933 45.2216 315.991C47.1492 318.221 45.9019 315.197 48.4342 318.599C50.2106 320.942 52.0247 322.87 53.4232 325.516C53.7633 326.158 53.8389 326.423 54.1035 326.876C54.935 328.123 54.2925 327.179 54.9728 327.745L57.3161 330.089C57.3539 330.127 57.4295 330.202 57.4673 330.24L60.9822 334.549C61.1712 334.813 61.1712 334.738 61.5114 335.191C63.8547 338.253 62.9854 339.311 67.5208 342.864C68.2767 343.43 68.1255 342.977 68.3901 344.035ZM53.5366 43.6006L53.8011 43.0337C53.5366 43.7896 53.7633 43.2604 53.5366 43.6006ZM44.7681 50.5927L44.6925 50.2526C44.7303 49.3833 45.2594 48.9297 45.8641 47.8715L46.5444 46.8132C46.3932 48.136 46.2421 47.7959 45.7507 48.6274C45.2216 49.4967 45.6373 48.8163 45.2972 49.6478C45.0326 50.2526 45.2594 49.988 44.7681 50.5927ZM52.4027 26.4415C52.6295 25.4589 52.894 24.8919 53.5744 24.4006C53.3476 25.1943 52.894 25.8746 52.4027 26.4415ZM45.9775 34.8699C46.2421 33.8494 45.9019 34.7943 46.3932 33.8116C46.9602 32.7156 47.3759 31.7329 48.3208 31.0904C48.0562 32.2242 46.7334 34.303 45.9775 34.8699ZM139.521 132.268C139.483 132.231 139.559 132.193 139.596 132.193L139.521 132.268ZM139.256 129.358C138.954 129.056 139.634 128.3 139.407 129.018C139.407 129.018 139.71 129.849 139.256 129.358ZM138.538 188.168L138.652 188.054C138.652 188.092 138.576 188.205 138.538 188.168ZM2.05939 171.878C2.02159 171.84 1.9838 171.727 1.946 171.689L1.53026 170.366C1.34128 169.27 1.60585 169.572 1.1901 168.665C-0.964233 169.157 0.434193 169.61 0.585374 171.575C0.736555 173.049 1.07671 174.977 1.30348 176.716L2.55073 187.071C3.5712 193.005 2.85309 191.191 2.89089 193.383L4.62947 205.931C5.08301 208.501 4.3649 207.368 4.21372 209.144L4.55388 210.24C4.55388 210.278 4.59167 210.353 4.62947 210.391L4.81844 211.714C4.85624 212.016 4.93183 212.47 5.00742 212.772C5.46096 215.116 4.85624 216.892 5.12081 219.084C5.34758 220.936 5.1586 223.808 5.1586 225.736L5.87671 236.357C5.87671 236.394 6.06569 236.923 6.10348 236.999L6.29246 237.377C6.29246 235.752 6.02789 235.525 5.9901 233.9L5.83892 226.19C5.83892 226.114 5.80112 225.774 5.80112 225.585L6.02789 221.087C6.10348 219.575 5.72553 218.631 6.14128 217.157L8.22002 229.175C8.06884 230.158 7.91766 229.327 7.91766 230.309C7.91766 232.577 10.1098 237.604 10.3743 240.59C10.9791 240.779 10.1098 240.741 10.7145 240.438C11.357 240.06 10.261 240.098 10.9413 240.287C11.8106 244.18 13.6247 247.657 14.4562 251.361C14.7586 252.722 14.4562 253.1 14.5696 253.969C14.8342 255.783 15.5523 257.673 16.2704 259.412C17.3665 262.019 18.009 264.703 19.1429 267.273L23.0736 277.931C23.5649 279.179 25.1523 281.597 24.5476 282.845C23.9429 282.58 24.094 282.202 23.6405 281.938C23.5649 281.862 23.4893 281.219 22.809 281.9C22.0909 282.618 23.0358 283.336 23.4137 283.979L38.683 309.982C38.7208 310.057 38.7586 310.133 38.7964 310.171L42.3492 315.953C43.483 318.032 44.957 319.846 46.2799 321.623L48.4342 324.382C49.2657 325.138 48.2074 324.155 49.0767 324.797C50.4373 325.78 51.7224 329.03 52.7807 330.542C54.8972 333.528 56.4846 337.005 59.0547 339.689C59.6594 340.369 60.2263 340.407 60.7555 340.482L61.0956 340.52C61.5869 340.86 62.683 342.259 63.1744 342.864C63.8169 343.657 64.4216 344.413 65.1397 345.245L66.3114 346.379C67.2562 347.512 67.9366 349.251 68.6547 350.46C69.2216 351.405 69.6373 352.426 70.0909 353.371L71.4515 356.356C74.7019 362.064 73.0767 362.744 74.0972 365.314C74.6263 366.561 75.3066 373.175 75.7224 375.368C76.9696 381.717 76.3649 380.697 76.5161 385.799C76.5917 387.424 77.272 391.922 76.5161 393.623C76.0247 394.719 76.5539 393.547 76.0247 394.303C75.4956 395.021 75.4578 397.78 75.0799 399.179C73.7192 404.545 72.8121 407.607 71.6783 413.276C71.3003 415.053 70.5822 417.093 70.5822 420.004C71.4515 419.323 71.3003 418.87 71.5271 417.471C72.2074 413.654 73.7192 405.83 75.0043 402.316C75.609 400.69 75.6468 401.938 76.1381 399.632C76.3271 399.897 76.4405 399.745 76.5917 400.577L75.798 408.325C75.5334 409.912 74.8909 411.311 74.7019 412.785C74.5885 413.805 74.5507 414.448 74.4373 415.166C74.2484 416.3 74.135 416.564 74.3618 417.093C73.3413 417.093 73.2657 416.905 72.3208 416.829C71.9806 417.509 71.7539 418.076 71.7161 419.134C74.0216 419.097 71.8673 418.908 73.757 417.698C73.6814 420.949 71.6405 424.048 71.5649 427.336L68.8436 441.32C68.6547 442.719 68.3901 444.495 67.7476 445.742C67.7476 445.78 67.672 445.856 67.672 445.893L67.1429 447.481C67.1429 447.519 67.0673 447.594 67.0673 447.632C66.9161 447.972 66.9539 447.632 66.9161 448.161C66.8783 448.237 66.9161 448.501 66.9161 448.615C67.1429 452.281 65.4421 456.06 64.6862 459.613C64.4216 461.049 63.8925 462.826 63.4767 464.224C63.0232 465.585 62.6074 467.134 62.1539 468.722C61.0578 472.539 57.6184 486.07 56.3334 489.169C55.8799 490.227 55.5397 490.152 55.8799 491.021C56.7114 490.719 56.3334 491.134 56.8247 489.887L59.3948 481.156C59.4704 480.968 59.6594 480.779 59.5838 480.741C59.5082 480.703 59.6216 480.59 59.6594 480.552C59.6972 481.95 59.3192 483.046 59.0925 484.331C58.9035 485.579 58.6767 486.448 58.4499 487.733L55.124 500.734C54.7082 502.095 53.9901 505.875 53.1964 507.008L54.2169 501.037C54.935 497.219 55.8421 496.917 53.5366 497.106C53.1208 501.83 52.0625 507.386 50.9665 512.035C49.5303 518.045 50.9665 516.608 48.5476 517.78C48.9255 519.33 49.3035 519.027 48.7366 520.539L47.9429 523.601C47.4515 524.923 47.8295 525.453 47.0736 525.906C46.0531 526.511 44.2767 526.057 43.0295 525.982C42.3492 525.944 40.535 525.642 40.8751 526.586C41.1397 527.342 45.3728 527.04 46.4688 528.552C46.5066 528.627 46.5444 528.703 46.5822 528.741L47.0736 529.686C47.9051 529.534 48.3586 529.081 48.8121 528.552C48.8121 530.328 48.3964 530.177 49.6814 530.29V528.249L57.5051 530.064C58.2988 530.29 58.8279 530.404 59.735 530.782C66.009 533.314 64.4972 531.538 64.6484 534.41C64.724 535.317 64.6862 535.884 65.4043 536.451V532.936C66.2358 533.39 69.0704 535.695 69.9775 534.901C71.6405 533.39 68.1633 532.86 67.1806 531.462C66.0468 529.95 66.6137 529.572 67.7476 528.59C67.483 527.645 67.1429 528.136 67.0295 527.191C67.0295 527.191 67.2184 525.226 67.2184 525.15L66.8783 517.516C68.2011 517.78 67.3696 517.705 67.7476 517.516C67.7098 515.399 67.1051 516.344 66.8783 514.605C66.4247 510.523 68.0877 507.5 68.0121 505.799C67.9366 504.476 66.9917 505.043 67.4452 503.267C67.7098 502.284 67.9744 501.415 68.0499 500.319C68.4279 496.237 69.4106 492.268 70.5066 488.451C70.7712 487.506 70.5066 486.75 70.6956 485.768L72.7744 477.377C73.1145 476.281 73.1523 475.79 73.4547 474.505C73.946 472.312 74.2106 474.202 74.5507 472.123L75.1932 468.986C76.0247 467.097 75.9492 461.276 77.6877 457.194C78.7838 454.511 78.935 451.487 79.6531 448.69L81.6562 439.884C82.2988 437.276 82.5633 434.782 83.2814 432.779C83.4704 432.249 83.546 431.834 83.5838 431.342L86.0405 419.21C86.3429 417.963 86.1161 414.864 86.494 412.974C86.9854 410.706 86.7964 408.287 87.1744 406.057C87.6279 403.601 88.0814 402.693 88.0814 399.67C88.0436 397.062 88.4216 396.117 88.7618 393.358C88.9129 392.073 88.6862 391.884 88.9507 390.372C89.5555 386.933 90.0846 383.871 89.5555 380.168C89.3287 378.618 90.5003 375.972 88.3838 375.821C88.4216 372.419 87.7413 368.678 87.1366 365.465C86.3806 361.497 86.9854 353.824 87.5523 349.893C87.8169 348.117 87.9303 346.076 88.157 344.338C88.7995 339.727 90.9539 335.418 93.2972 331.449L97.946 323.853C98.7775 322.794 98.6263 321.963 99.0043 321.131L100.1 319.015C100.252 318.712 100.403 318.334 100.516 317.994C101.045 316.634 101.612 316.218 102.103 314.895L106.185 306.164C106.488 305.56 106.903 303.67 107.47 304.539C106.715 305.408 106.412 306.92 105.959 307.979C105.845 308.243 105.694 308.583 105.543 308.999L104.371 312.212C104.333 312.249 104.296 312.363 104.258 312.401C104.031 313.119 103.918 312.476 104.296 313.232C105.052 312.665 107.092 306.656 107.584 305.219L108.264 303.216C108.302 303.179 108.415 302.952 108.415 302.914C108.604 302.536 108.604 302.46 108.793 302.082L110.834 298.605C111.25 297.925 111.515 297.32 111.817 296.678L112.837 295.015C114.538 292.218 118.242 282.353 119.263 279.027L123.08 268.86C123.949 265.383 124.856 261.566 126.141 258.24L129.807 245.616C130.261 243.197 130.639 240.816 131.508 238.851C132.34 236.961 132.718 234.618 133.36 232.501L135.023 225.774C135.288 224.942 135.363 224.905 135.628 223.733C135.968 222.41 136.497 220.823 136.686 219.235C137.102 215.645 137.102 217.875 138.085 215.72L139.974 207.065C140.126 204.911 140.466 201.358 140.239 197.503C139.974 193.081 140.995 191.116 141.033 189.037C141.033 188.394 140.655 187.563 140.579 186.694C140.39 184.01 140.881 182.687 140.881 179.437L141.259 179.21C141.335 179.172 141.411 179.134 141.448 179.097L141.826 178.87C142.204 178.568 142.204 178.643 142.393 178.114C142.469 177.925 142.62 176.64 142.62 175.96L143.036 164.13C143.074 161.295 143.414 158.423 143.074 155.399C142.771 152.527 143.263 149.881 142.885 147.084L140.466 121.157C140.277 119.947 140.239 119.569 140.012 118.397C139.748 117.264 139.748 116.886 139.748 116.205C139.71 113.371 138.614 110.46 138.274 107.626L140.844 116.999C141.222 118.662 141.978 126.145 143.036 127.317C142.998 125.541 142.393 123.122 142.091 121.308C141.033 115.374 139.823 110.763 138.425 104.867C137.82 102.297 136.8 99.9911 136.422 97.2699C135.93 93.6793 132.982 85.2888 132.907 84.1927L133.171 84.5329C134.229 86.1203 134.645 88.6148 136.119 89.7486C135.666 87.8211 132.604 81.5093 131.735 79.3171C131.244 78.1455 130.715 77.2384 130.223 75.8778C129.807 74.5927 129.581 73.0809 129.165 71.9848C126.822 66.1266 126.859 66.9959 124.403 62.1959C122.437 58.3785 120.17 55.0904 118.015 51.4242L116.541 47.947C116.088 47.04 116.315 47.1911 115.71 46.473C115.634 46.3974 115.445 46.2463 115.407 46.1707L114.538 44.999C114.16 44.4321 114.009 44.1675 113.631 43.6006L99.231 24.2494C97.6814 22.6998 96.1318 21.188 94.1287 20.0163C91.861 18.6557 92.7303 18.6557 90.9917 17.3329C88.6484 15.5187 86.7964 12.5329 83.4326 10.0384C80.7492 7.99744 80.3334 7.27933 78.2547 5.61634C77.3098 4.82264 76.1003 4.59587 75.0799 3.83996C74.5885 3.42421 74.2106 2.85729 73.7948 2.51713L70.2799 0.211616C69.1082 -0.355313 69.524 0.400592 68.0121 0.362797C67.5208 0.362797 66.7271 0.287207 66.1224 0.249411C65.2531 2.10138 64.6106 3.23524 62.7208 4.14232C61.2468 4.82264 56.7869 10.0762 55.3885 11.9282C53.7255 14.1581 53.7633 13.44 52.4783 15.1407C52.1759 15.5187 51.8358 15.8589 51.5334 16.199C51.4578 16.2746 51.42 16.3124 51.3822 16.3502C51.3444 16.4258 51.2688 16.4636 51.231 16.5014L50.6641 17.1061C49.7948 15.5187 51.231 18.5423 50.5507 16.7282C50.5129 16.577 50.5507 16.5014 50.3618 16.2368C49.946 15.6699 50.324 15.8967 49.4925 15.6699C48.6232 16.3124 49.0389 16.388 48.472 17.5596L42.3114 27.0841C41.82 28.0289 41.5177 28.8982 40.535 29.1628C39.7035 29.3896 39.7035 29.0494 38.683 30.7502L35.1303 37.6667C34.9791 38.0447 34.8279 38.3848 34.6767 38.6872L23.8295 58.114C23.2625 59.21 19.2184 67.4494 19.294 68.5077L21.5618 64.3124C21.8263 63.6699 22.2043 62.536 22.5444 62.1203C22.9602 61.5911 22.62 62.0069 22.9224 61.8179L24.094 61.0242L16.7618 80.7911C15.9303 82.0762 15.6657 80.9045 14.872 82.6809C14.0783 84.4951 13.8137 87.1408 13.3224 88.9927L9.24049 105.736C9.01372 106.454 8.90033 105.925 8.86254 107.286C8.25781 106.303 8.97592 104.602 8.29561 103.468C6.82159 103.544 7.16175 103.128 7.16175 104.451C7.16175 104.489 7.31293 105.169 7.31293 105.207C7.38852 105.585 7.38852 105.585 7.42632 106.114C7.46411 107.739 4.66726 125.805 4.47829 129.963C4.32711 132.986 3.38222 131.89 3.00427 132.873L2.51293 144.287C2.58852 147.462 1.64364 145.723 1.22789 147.424C0.77435 151.09 1.946 152.149 2.09718 153.547L2.05939 171.878ZM138.122 106.076C137.631 106.53 137.971 105.736 137.971 105.736C137.707 104.98 138.425 105.736 138.122 106.076ZM137.82 104.905C137.782 104.942 137.744 104.829 137.744 104.829L137.82 104.905ZM132.907 83.9282C132.415 84.4195 132.755 83.588 132.755 83.588C132.491 82.8321 133.209 83.6258 132.907 83.9282ZM96.5854 321.887C96.5476 321.887 96.6988 321.925 96.661 321.963L96.5854 321.887ZM96.283 322.454C96.2452 322.454 96.3964 322.53 96.3586 322.568L96.283 322.454ZM95.1869 324.571C95.1869 324.608 95.1114 324.495 95.1114 324.495L95.1869 324.571ZM86.4562 346.379C85.9649 346.908 86.2673 346.076 86.2673 346.038C85.9649 345.32 86.7586 346.076 86.4562 346.379ZM85.3602 355.601C85.3602 356.092 85.2468 357.226 85.2468 358.322C84.1885 357.566 84.831 355.979 84.8688 355.336L85.1712 350.12C85.2846 348.873 84.9066 350.347 85.209 348.986C85.4736 347.89 85.5492 347.323 86.1539 346.681C86.1917 351.368 85.7003 350.196 85.5492 353.106L85.3602 355.601ZM84.3775 349.024C84.3775 347.777 84.3775 348.042 84.6799 347.55L84.3775 349.024ZM82.4877 432.854C81.9964 433.345 82.3366 432.514 82.3366 432.514C82.072 431.758 82.7901 432.552 82.4877 432.854ZM81.3161 436.634C81.1271 436.331 81.1649 436.671 81.1271 436.105L81.3161 436.634ZM84.1129 347.55C83.3948 347.323 83.6972 347.475 83.3192 346.908C83.1303 346.643 80.2956 341.087 80.031 339.953C80.8247 340.18 82.7523 340.936 83.2814 341.39L85.2846 344.073L84.1507 345.585C83.5082 346.719 83.8484 346.341 84.1129 347.55ZM85.8515 342.032C84.6421 341.579 81.5429 338.064 80.6358 337.043L78.1413 332.281C77.9901 331.449 78.0279 330.958 77.9523 330.089C79.5019 330.127 78.6326 330.051 79.6531 330.505C82.7901 331.903 81.883 331.412 82.3744 333.604L83.2058 332.508L84.1129 332.999C83.9618 335.04 82.5633 335.04 82.3744 337.081C82.9791 336.854 82.7901 336.892 83.2058 336.438L84.7177 333.868C87.5145 335.796 87.5145 337.799 87.2121 338.404C87.1744 338.479 87.1366 338.555 87.1366 338.593C86.872 339.16 86.8342 339.084 86.6452 339.613C86.2673 340.482 86.1917 341.314 85.8515 342.032ZM81.5051 339.424C81.2027 339.349 79.8421 338.857 79.5775 338.706C78.746 338.253 78.8594 337.912 78.935 336.703L81.5051 339.424ZM76.1003 416.262C75.609 416.716 75.9492 415.922 75.9492 415.922C75.7224 415.204 76.4027 415.96 76.1003 416.262ZM75.8358 417.698C75.3066 418.19 75.6468 417.358 75.6468 417.358C75.3444 416.602 76.1381 417.396 75.8358 417.698ZM74.9287 421.175C74.9665 420.419 75.0421 420.079 75.1555 419.664L75.5334 418.568C75.5334 419.55 75.4578 420.382 74.9287 421.175ZM74.9287 421.78C74.8909 421.818 74.8531 421.705 74.8531 421.667L74.9287 421.78ZM75.1177 6.41004C74.7397 5.99429 74.5885 6.33445 74.2484 5.50295L75.1177 6.41004ZM74.2484 14.8384C72.7744 11.7392 73.3413 12.0415 76.0247 8.14862C77.1586 8.41319 77.2342 8.45099 78.0657 9.01792L77.272 10.8699C76.9318 11.5502 76.7429 11.9282 76.4027 12.6085C75.8358 13.7423 74.9287 14.8384 74.8531 16.01L74.2484 14.8384ZM72.7744 334.738C73.0389 335.116 73.1145 335.078 72.7744 335.607V334.738ZM72.472 9.925C71.9429 8.45099 71.9429 9.24469 71.9429 7.5439C72.8121 7.31713 72.5854 7.5439 72.8121 6.67461C73.6814 7.09036 73.6058 6.82579 74.5507 7.58169L73.0767 11.3612C73.0389 11.2856 73.0011 11.21 72.9633 11.1722L72.6988 10.5675C72.5098 10.1896 72.5854 10.2652 72.472 9.925ZM71.8673 355.412C71.8295 355.412 71.7539 355.298 71.7539 355.298L71.8673 355.412ZM70.431 331.827C70.2799 331.525 70.0531 331.563 70.431 330.958V331.827ZM70.1665 330.656C69.8641 330.24 69.8641 331.298 69.8641 329.786C70.1665 330.202 70.1665 329.106 70.1665 330.656ZM71.2625 354.24C70.5822 353.711 70.62 353.333 70.2421 352.35C69.8641 351.443 69.6373 351.216 69.2594 350.46C70.0531 350.649 69.7507 350.347 70.2421 351.216L71.2247 353.295C71.5271 354.164 71.7161 353.182 71.2625 354.24ZM67.8232 18.6179C67.5586 15.0274 66.6893 14.4604 67.8232 12.7596L69.7507 10.0384C70.809 8.71555 70.0531 9.05571 71.0736 8.71555L70.2043 10.4541C70.8468 10.2652 70.4688 10.4541 70.8846 10.0006L71.3759 9.32028C71.5271 10.1896 72.1318 11.4368 72.5098 12.2305C71.8295 13.251 71.1114 14.2337 70.7712 15.6699C71.5649 15.1785 72.2452 14.1581 72.5098 13.0998C73.3791 13.7045 73.1145 13.8179 73.6058 14.914C75.0043 18.1266 73.0767 17.7864 70.62 23.7203C70.3177 24.4762 70.1287 24.7785 69.7885 25.4967C69.0704 27.0463 69.2594 26.8195 68.6925 27.0463C68.6925 25.6856 67.9366 21.4526 68.2389 20.5077C68.3523 20.1675 69.3728 18.4667 69.6373 18.051C70.1287 17.2951 70.5066 16.6904 70.7712 15.6699C69.8641 16.01 70.62 15.103 69.2972 17.7486C68.9192 18.5045 68.5413 19.2982 67.8232 19.7896V18.6179ZM67.0673 5.125C66.4247 3.65099 66.6515 3.27303 67.294 2.59272C67.9744 4.02894 67.4074 4.10453 67.294 5.50295L67.0673 5.125ZM70.5822 4.40689C67.9744 3.34862 71.3003 6.52343 69.7885 8.90453L66.9539 12.7974C66.3869 11.2478 68.8814 4.74705 69.5995 3.19744C70.8846 3.31083 72.1696 3.68878 72.5476 4.63366L71.8673 4.86044C71.2625 4.89823 70.6578 4.44469 70.5822 4.40689ZM65.82 459.046C65.3287 459.5 65.7066 458.706 65.6688 458.668C65.4421 457.95 66.1602 458.706 65.82 459.046ZM66.2736 14.4226C66.2736 14.7628 66.1602 14.8762 66.0468 14.8762L65.7822 14.536C66.1602 14.0825 66.0846 15.1407 66.1224 13.9313C66.3114 14.2715 66.2358 13.8935 66.2736 14.4226ZM64.6484 462.486C64.724 461.73 64.9885 460.445 65.2531 459.878C65.2909 459.953 66.0468 459.651 64.9885 461.956C64.7995 462.372 64.8373 462.259 64.6484 462.486ZM59.9995 13.3644C59.0547 13.0242 59.8484 13.7423 59.0547 12.5707C58.7901 12.1927 58.7145 11.9659 58.5255 11.588L65.2909 4.29351L64.0814 6.93918C63.6279 7.69508 63.2121 8.26201 62.7208 9.09351C62.0783 10.1518 60.2263 12.4573 59.9995 13.3644ZM63.3255 468.155C63.1366 469.1 63.5145 469.78 62.5318 472.501C62.5318 472.539 62.5318 472.615 62.494 472.653C62.2673 473.219 62.5696 473.068 61.7381 473.257C61.7759 470.952 62.6074 470.007 62.872 468.608C63.0988 467.55 63.2499 467.21 63.4767 466.265C63.7791 465.245 63.7035 464.98 64.3838 464.262L63.3255 468.155ZM63.4389 341.692C63.4011 341.73 63.3633 341.616 63.3633 341.616L63.4389 341.692ZM62.3806 10.4163L62.494 10.6809L62.3429 11.3234C62.1161 10.9833 62.1917 11.3612 62.1539 10.8321C62.1539 10.4541 62.2673 10.3785 62.3806 10.4163ZM61.3224 529.459C60.4909 529.459 61.3602 529.27 61.3602 529.27C61.4358 528.968 62.1161 529.459 61.3224 529.459ZM62.3051 25.0053C62.2673 25.0431 62.2295 24.9297 62.1917 24.8919L62.3051 25.0053ZM61.8137 276.495C61.3224 276.986 61.6625 276.155 61.6625 276.155C61.398 275.437 62.1161 276.193 61.8137 276.495ZM64.8373 529.459C63.9681 529.043 63.7791 529.119 62.9098 528.476C59.8106 526.133 60.6043 525.301 61.0578 523.336C62.3806 524.205 62.4184 524.886 63.4389 525.868C64.1192 526.549 64.4216 526.397 64.724 527.229C64.9507 527.909 64.8373 528.741 64.8373 529.459ZM61.2468 272.716C61.5492 273.207 61.5869 271.997 61.5492 273.547C61.5114 274.794 61.5869 273.623 61.2468 274.152V272.716ZM61.4358 17.1439C61.1334 16.6526 61.0956 17.8242 61.1712 16.3124C61.2468 15.5187 61.6247 15.6699 61.7381 14.2337C62.1161 14.8006 62.0405 13.4778 62.0027 15.0274L61.4358 17.1439ZM61.1712 12.7596C61.1334 12.7974 61.0578 12.6841 61.0578 12.6841L61.1712 12.7596ZM59.9618 480.249C59.4704 480.741 59.8106 479.909 59.8106 479.909C59.546 479.191 60.2641 479.947 59.9618 480.249ZM60.8688 13.3644C60.2263 14.6494 60.9066 13.8935 59.9995 14.2337C60.5665 13.0998 59.9618 13.6667 60.8688 13.3644ZM60.4909 14.725C60.4531 14.725 60.6043 14.8006 60.5665 14.8006L60.4909 14.725ZM59.6594 339.084C59.2058 338.404 59.0169 338.026 58.4121 337.383C56.1822 335.04 54.935 332.016 53.083 329.333L51.231 325.969C54.2169 329.295 55.9177 333.188 58.8657 337.27L59.5082 338.366C59.924 338.971 60.2641 338.555 59.6594 339.084ZM63.4767 23.8337C63.4767 28.2179 61.0578 37.5911 60.1129 42.051L59.4704 44.0163C59.3948 44.0541 59.3948 44.1675 59.357 44.2053C59.3948 42.9581 59.7728 42.3156 59.8862 41.2573L62.6074 26.2148C62.9476 25.0431 62.7208 24.703 63.4767 23.8337ZM59.6216 45.0746C59.1303 45.5659 59.5082 44.7345 59.4704 44.7345C59.2436 44.0163 59.9618 44.7722 59.6216 45.0746ZM60.4909 521.03C59.4326 519.443 57.883 519.67 57.883 517.478C58.6767 517.553 58.7901 517.629 59.4704 517.931C59.4704 517.931 60.5665 518.498 60.6421 518.536C61.4358 519.027 62.0783 519.556 62.7208 520.199C65.1019 522.505 64.8373 521.295 64.8373 525.679C64.7995 525.642 64.724 525.566 64.724 525.528L64.4216 525.188C64.3838 525.15 64.346 525.075 64.3082 525.037L62.5696 523.26C60.7555 521.56 61.4358 522.467 61.6625 520.123C61.02 520.199 61.02 520.237 60.4909 521.03ZM58.6011 16.7282C58.4877 15.7077 58.7901 15.7833 59.3948 15.4053C59.9995 16.577 59.4326 16.9171 59.3948 18.3156C58.9035 17.9376 58.7145 17.5596 58.6011 16.7282ZM58.6389 256.388C58.9035 256.804 58.9791 255.745 58.9413 257.257C58.9035 257.938 58.8657 257.522 58.6389 257.862V256.388ZM59.3948 25.2699C59.0169 24.7785 59.4326 25.6478 59.0547 24.7407C59.0169 24.6652 58.9413 24.4006 58.9035 24.2872C58.4121 22.5864 58.4499 22.5108 59.0925 21.7927C59.3948 23.1533 59.3948 23.5691 59.3948 25.2699ZM58.3744 254.649C58.5633 254.99 58.5633 254.612 58.6011 255.254C58.6767 256.464 58.7145 255.292 58.3744 255.821V254.649ZM59.5838 524.772C58.7145 524.545 58.3366 523.979 56.9759 523.034C56.9759 522.164 56.9759 521.938 57.1271 521.144L57.6184 519.783L60.1885 522.164C59.9995 523.034 59.6972 523.865 59.5838 524.772ZM57.9586 13.3644C58.6011 13.5911 58.2232 13.3266 58.6767 13.8179C58.8657 14.0069 59.0169 14.3848 59.1303 14.4982L58.2232 15.4053C58.2232 14.1581 58.3744 14.1959 57.9586 13.3644ZM57.5429 17.8998C57.6562 17.7864 57.883 17.5974 57.8074 17.5974C57.7696 17.5596 57.883 17.4841 57.9586 17.4085L58.1476 17.7864C58.6389 18.9581 58.7145 19.903 58.2232 20.9234C57.3539 19.9407 57.9586 20.0541 57.0893 18.2778C57.4295 18.051 57.1271 18.3156 57.5429 17.8998ZM57.5051 251.739C57.0137 252.231 57.3539 251.399 57.3539 251.399C57.0515 250.643 57.8074 251.437 57.5051 251.739ZM59.0169 527.116C58.0342 526.586 57.6562 526.549 56.3712 526.549C56.9381 525.377 56.1822 525.415 56.9759 524.205C58.072 525.83 58.9791 524.961 59.0169 527.116ZM57.3539 25.0053C57.0515 26.177 57.2783 26.4415 56.4846 27.0085C56.5602 25.9502 56.7492 25.6856 57.3539 25.0053ZM56.7869 17.4085C56.6358 15.4809 56.22 15.4431 55.6153 14.4982C56.22 13.4022 56.031 13.7801 57.0893 13.062C57.8074 16.199 58.0342 14.4604 57.3539 17.4085H56.7869ZM56.3334 248.527V250.001C55.8799 249.547 56.1066 248.905 56.3334 248.527ZM56.3334 250.568C56.5602 250.908 56.409 250.341 56.7114 251.399L56.9003 254.082L56.3334 250.568ZM56.7492 27.6132C56.7492 27.651 56.6736 27.5376 56.6736 27.5376L56.7492 27.6132ZM55.7287 24.8541C54.8594 23.1533 54.5948 22.6998 55.4641 21.6415L56.7869 19.7518C56.8247 21.377 57.6562 21.7927 57.5051 22.851C57.4295 23.4557 56.598 24.514 56.4846 25.8746L55.7287 24.8541ZM55.8043 68.6589C55.9177 67.3738 55.8043 68.1675 56.1066 67.7896L55.8043 68.6589ZM55.8421 69.5282C55.8043 70.6242 55.9177 70.6242 55.5019 71.2667C55.5019 70.9644 55.5019 70.3974 55.5397 70.1329C55.6531 69.4526 55.5775 69.9061 55.8421 69.5282ZM55.5397 521.862C55.3129 520.993 55.3885 521.219 54.746 520.615C54.4436 520.35 54.557 520.501 54.2547 520.237C54.2169 520.161 54.0657 519.972 53.9523 519.972C53.8389 519.934 53.8389 519.859 53.8011 519.821C54.0657 519.254 54.2169 518.498 54.3681 517.78C55.2751 518.007 55.7287 518.498 56.409 518.952C56.409 520.464 56.1444 520.615 56.1066 521.862H55.5397ZM55.2373 73.0053C55.2373 72.5896 55.1995 72.6274 55.3129 72.2116L55.5019 71.8337L55.2373 73.0053ZM55.5019 526.246C54.0657 526.246 53.9901 526.171 52.894 525.944C52.894 521.938 52.7807 524.281 53.4988 521.295C54.6704 521.597 54.8216 522.353 55.7287 523.034L55.5019 526.246ZM51.8358 18.2778L53.2342 16.7659C53.8011 16.1234 54.0657 15.8211 54.746 15.3675C55.3507 16.3124 55.2373 15.7833 55.7287 17.0305C57.0137 20.2053 55.9555 19.6762 55.1995 20.2053C54.0657 20.9612 54.8216 20.7722 53.8767 21.4904L51.8358 18.2778ZM53.2342 508.18C52.7051 508.671 53.083 507.84 53.083 507.84C52.8184 507.122 53.5366 507.878 53.2342 508.18ZM51.7602 518.082C51.9869 517.553 52.1003 517.138 52.3649 516.571L53.4988 516.911C53.4988 518.309 53.461 518.196 53.1586 519.292L51.7602 518.082ZM52.3649 510.788L52.2137 510.675C52.2137 510.675 52.2515 510.712 52.3649 510.788ZM51.231 520.464C53.5744 519.027 52.4027 522.429 52.2893 522.996C52.1003 523.941 51.9492 524.999 51.7224 525.944L49.6436 525.906C49.7192 524.281 49.9082 521.295 51.231 520.464ZM51.798 187.412L51.3444 177.547C51.3066 176.678 51.609 175.997 51.4578 174.448C51.3066 173.276 51.1555 163.449 51.5334 162.316C51.6846 161.862 51.6468 162.051 51.8358 161.786L52.2137 168.703C52.3649 169.912 52.3271 170.593 52.2137 171.349C52.0247 172.747 52.3649 173.012 52.4027 174.297L51.798 187.412ZM51.798 187.979C51.7602 188.016 51.7224 187.903 51.7224 187.903L51.798 187.979ZM51.4578 160.842C51.42 160.842 51.5712 160.879 51.5712 160.917L51.4578 160.842ZM51.3822 188.848C51.3444 188.432 52.3271 189.301 51.4956 189.15C50.8531 189.037 51.42 189.415 51.3822 188.848ZM51.3066 151.317C50.7775 151.808 51.1177 150.977 51.1177 150.977C50.8531 150.259 51.609 151.015 51.3066 151.317ZM48.9255 324.193C48.8877 324.23 48.8499 324.117 48.8499 324.117L48.9255 324.193ZM28.7807 53.7675C28.7429 53.7675 28.7051 53.6541 28.6673 53.6541L28.7807 53.7675ZM28.4783 54.3345C28.4405 54.3722 28.4027 54.2589 28.4027 54.2589L28.4783 54.3345ZM28.1759 54.9014C28.1381 54.9392 28.1003 54.8258 28.1003 54.8258L28.1759 54.9014ZM26.2862 55.0526C26.1728 55.0526 26.1728 55.1659 26.135 55.2037C26.6263 53.0872 26.9287 53.8809 27.0043 54.0321L26.5129 54.7124C26.4373 54.8258 26.4751 54.977 26.2862 55.0526ZM23.9051 59.3234L25.5681 56.3376C25.4169 56.9045 24.1318 59.588 24.0562 59.6258L23.9051 59.3234ZM23.4137 60.6463C23.3759 60.6463 23.5271 60.6841 23.5271 60.7219L23.4137 60.6463ZM15.0232 249.925C14.5318 250.379 14.8342 249.585 14.8342 249.585C14.5696 248.867 15.3255 249.623 15.0232 249.925ZM14.4184 248.186C14.3806 248.186 14.3429 248.073 14.3429 248.073L14.4184 248.186ZM12.9822 242.366C12.9444 242.366 12.9066 242.253 12.9066 242.253L12.9822 242.366ZM12.6799 241.194C12.1885 241.648 12.5287 240.854 12.5287 240.854C12.2641 240.098 13.02 240.892 12.6799 241.194ZM12.4153 240.287C11.924 240.779 12.2641 239.985 12.2641 239.985C11.9995 239.267 12.7177 240.023 12.4153 240.287ZM11.1681 238.171C11.1303 238.171 11.2814 238.246 11.2436 238.284L11.1681 238.171ZM10.7523 237.15L10.6767 237.075C10.6011 237.037 9.69403 237.037 10.6389 236.999V237.037L10.7523 237.112V237.15ZM7.76648 223.431C7.80427 223.468 7.87986 223.544 7.87986 223.582L9.08931 229.402C9.01372 229.44 8.93813 229.478 8.86254 229.516L7.76648 223.431ZM8.56018 108.457C8.10663 108.949 8.409 108.117 8.409 108.079C8.14443 107.323 8.90033 108.117 8.56018 108.457ZM8.3712 214.095C8.10663 213.679 8.10663 214.738 8.06884 213.226C8.409 213.642 8.409 212.583 8.3712 214.095ZM8.10663 211.79C7.5775 212.281 7.95545 211.449 7.91766 211.449C7.65309 210.731 8.409 211.487 8.10663 211.79ZM8.10663 212.659C7.61529 213.15 7.91766 212.319 7.91766 212.319C7.69089 211.601 8.3712 212.357 8.10663 212.659ZM7.80427 210.316C7.27514 210.807 7.65309 209.975 7.65309 209.975C7.38852 209.257 8.10663 210.013 7.80427 210.316ZM7.76648 222.259C7.76648 222.297 7.69089 222.183 7.69089 222.183L7.76648 222.259ZM7.76648 222.826C7.76648 222.864 7.69089 222.75 7.69089 222.75L7.76648 222.826ZM7.23734 208.577C7.50191 208.955 7.5775 208.917 7.23734 209.446V208.577ZM7.12396 207.934C7.12396 207.972 7.12396 208.086 7.04837 208.123C6.97278 208.123 6.97278 208.237 6.93498 208.275V207.368L7.12396 207.934ZM4.66726 139.185C4.62947 139.185 4.78065 139.26 4.74285 139.298L4.66726 139.185ZM4.74285 140.734C4.44049 140.319 4.4027 141.415 4.44049 139.865C4.70506 140.205 4.70506 139.298 4.74285 140.734ZM3.49561 188.47L3.34443 188.357C3.38222 188.357 3.38222 188.394 3.49561 188.47ZM2.8153 182.574C2.7775 182.574 2.96648 182.612 2.92868 182.649L2.8153 182.574ZM2.55073 179.928C2.51293 179.928 2.66411 180.004 2.62632 180.042L2.55073 179.928ZM2.36175 173.616C2.32396 173.654 2.24837 173.541 2.24837 173.541L2.36175 173.616ZM2.05939 172.747C2.02159 172.785 1.9838 172.671 1.9838 172.671L2.05939 172.747Z" fill="black"/>
<path fill-rule="evenodd" clip-rule="evenodd" d="M90.8783 187.563C90.8405 187.563 90.7649 187.525 90.8027 187.487L90.8783 187.563ZM89.6311 188.923C89.5933 188.961 89.5555 188.848 89.5555 188.848L89.6311 188.923ZM88.7618 189.793C88.724 189.831 88.6862 189.717 88.6862 189.717L88.7618 189.793ZM68.0499 208.69C69.4862 208.69 70.4311 208.539 71.4515 208.01L73.3413 206.687C73.5303 206.498 73.5303 206.498 73.7948 206.271C75.4578 204.76 78.2547 202.53 79.6909 200.829L82.7523 197.768C83.1303 197.352 82.7901 197.654 83.1681 197.314C85.2846 195.5 85.3224 195.009 86.2673 194.29C88.3082 192.741 88.157 192.627 89.2153 191.116C89.6688 190.511 89.2531 191.002 89.7444 190.511C89.8956 190.36 90.198 190.133 90.198 190.095C90.2358 190.057 90.3114 189.982 90.3492 189.944L100.176 179.701C100.478 179.286 100.743 178.832 101.007 178.454L101.574 177.32C101.234 177.849 101.31 177.66 100.894 178.076C100.856 178.114 100.818 178.19 100.743 178.227C100.705 178.265 100.667 178.341 100.629 178.379L91.1051 187.487C91.3696 186.353 99.9492 177.736 99.9114 177.547L99.5712 177.32C98.324 179.172 97.757 179.172 96.7744 180.344C96.3586 180.797 96.3586 180.873 95.9807 181.289L91.3696 185.975C91.3318 186.051 91.2562 186.089 91.2185 186.127L90.0846 187.336C90.0468 187.412 90.009 187.449 89.9712 187.525L76.9696 201.018C76.9318 201.056 76.8562 201.094 76.8185 201.169C75.1555 203.134 71.6783 206.158 69.524 206.649C69.6751 204.722 69.6751 205.364 69.524 203.437C67.9366 203.475 68.6925 203.323 68.1633 204.42C66.6893 207.368 67.861 206.385 68.0499 208.69Z" fill="black"/>
<path fill-rule="evenodd" clip-rule="evenodd" d="M107.508 273.698C106.11 274.076 105.165 275.739 104.069 276.608C100.894 279.179 100.818 280.237 97.4547 282.505L94.2043 285.377C89.7066 289.119 90.5003 287.72 88.3082 289.081C84.3019 291.5 86.5696 289.988 84.1507 291.046C78.0657 293.73 81.4673 292.558 77.1964 292.52C75.0421 295.771 76.5161 295.431 79.7287 294.939C81.0893 294.75 85.7381 292.974 87.0988 292.256C87.4389 292.105 87.4767 292.067 87.8169 291.802C91.5964 289.081 91.294 290.668 93.5996 288.552C96.7744 285.679 98.1728 285.528 100.592 283.336C101.121 282.807 101.121 282.769 101.688 282.391C102.368 281.975 102.255 282.202 102.935 281.597L111.515 273.887C111.93 273.471 112.157 273.282 112.573 272.867C113.631 271.771 113.064 271.997 113.064 271.922C112.762 271.846 113.291 271.431 112.346 272.338L111.779 272.98C110.91 273.887 110.91 273.66 109.927 274.341C108.755 275.172 107.735 276.117 106.563 277.062C105.921 277.591 105.429 278.007 104.787 278.498L101.31 281.144C100.554 281.597 100.289 281.9 99.3444 282.089C100.063 281.068 106.526 275.097 107.508 273.698Z" fill="black"/>
<path fill-rule="evenodd" clip-rule="evenodd" d="M93.7885 148.785C93.7507 148.785 93.7129 148.671 93.7129 148.671L93.7885 148.785ZM94.0531 148.482C94.4688 147.084 95.6405 146.593 96.3964 145.572L103.124 138.013C103.464 137.597 103.691 137.824 103.124 137.446C102.557 138.278 101.99 138.693 101.272 139.638L90.5003 150.712C89.9712 151.166 89.8578 151.166 89.3665 151.619C88.6484 152.186 88.1192 152.829 87.4389 153.471L78.746 160.804C76.3649 162.429 72.8122 165.377 71.2247 164.319C70.2421 163.676 71.6405 162.882 69.9397 162.429C68.0877 163.978 70.3177 167.758 73.9838 165.906C74.5507 165.641 75.1177 165.415 75.6468 164.961C78.5192 162.504 76.9318 163.865 79.8421 161.9L84.0751 158.574C86.2673 156.193 85.3224 157.553 86.7208 156.268L89.1397 154C94.8468 149.276 96.472 148.218 102.368 142.813C102.859 142.36 103.124 142.246 103.615 141.717C105.883 139.487 108.982 136.615 110.418 133.969C109.625 134.234 109.511 134.536 109.247 134.838C107.206 137.333 107.319 136.463 106.337 137.749C105.694 138.542 105.278 138.92 104.522 139.714L103.011 141.112C100.932 143.04 101.801 141.868 99.4578 144.249L94.0531 148.482Z" fill="black"/>
<path fill-rule="evenodd" clip-rule="evenodd" d="M36.6421 179.815C36.2641 179.21 36.1885 179.21 35.735 178.681L36.6421 179.815ZM32.3334 173.692C32.2956 173.73 32.2578 173.616 32.22 173.616L32.3334 173.692ZM32.031 173.087C31.9932 173.125 31.9554 173.012 31.9554 173.012L32.031 173.087ZM22.7334 157.364C22.431 156.041 21.2594 153.093 21.9019 151.846C23.0358 152.338 21.7885 151.241 22.9224 154.303C23.2625 155.21 23.3759 155.777 23.7539 156.684C24.7366 159.216 25.6436 161.257 27.0799 163.487C27.4956 164.167 27.798 164.848 28.2137 165.566C31.7665 171.802 32.22 170.63 33.883 173.314C34.7901 174.826 34.6011 174.07 35.546 175.09L39.7413 180.835C40.9885 182.158 42.5003 182.989 41.3287 184.766C40.6484 184.577 40.5728 184.615 40.157 184.199C39.4767 183.481 40.3082 184.35 39.8169 183.67C38.9098 182.347 36.9444 181.893 33.9208 177.32C27.9114 168.174 27.4578 167.947 21.8641 157.364H22.7334Z" fill="black"/>
<path fill-rule="evenodd" clip-rule="evenodd" d="M96.6232 231.821L96.5476 231.745C96.5854 231.708 96.6232 231.821 96.6232 231.821ZM96.2452 232.312C96.2074 232.275 96.3208 232.237 96.3208 232.237L96.2452 232.312ZM100.025 230.007C98.6641 230.385 97.9082 231.292 96.9633 231.443C95.9807 231.632 91.7854 236.545 90.387 238.095C87.6657 241.194 85.9649 243.727 82.7145 246.75C80.0689 249.169 79.7665 248.753 78.1413 250.567C78.0657 250.643 77.8011 250.945 77.6878 251.021C74.513 254.158 75.4956 253.515 71.7539 255.594C71.7161 255.594 71.6405 255.632 71.5649 255.67L70.7712 256.35C70.2799 257.371 71.4515 258.089 72.0563 258.467C73.0011 257.938 73.4925 257.673 74.2862 256.955C76.8185 254.687 79.2752 252.155 81.6563 250.341L93.2594 237.188C93.8641 236.47 94.2043 235.903 94.8468 235.298C95.3004 234.845 95.3759 234.882 95.8295 234.504L96.4342 233.938C97.4925 232.955 98.8153 231.934 99.7224 230.574C99.8736 230.309 99.8736 230.498 100.025 230.007Z" fill="black"/>
<path fill-rule="evenodd" clip-rule="evenodd" d="M31.0862 211.525C31.0484 211.563 31.0106 211.449 31.0106 211.449L31.0862 211.525ZM29.9145 210.958C29.6122 210.618 30.3681 209.862 30.0657 210.618C30.0657 210.618 30.4059 211.412 29.9145 210.958ZM20.6547 195.197C20.2767 196.142 21.7507 198.901 22.3177 199.846C22.3555 199.884 22.3933 199.96 22.3933 199.96L27.0799 206.801C28.1003 208.048 29.0452 209.03 29.9145 210.353C28.5539 210.013 29.6122 210.164 27.7602 208.464L23.9429 203.853C23.3003 202.832 22.8846 202.038 22.3555 201.018C21.8641 200.035 21.2972 199.468 20.8437 198.486C20.3145 197.352 19.9744 196.52 19.483 195.5C18.4248 193.421 17.7444 191.947 17.1397 189.377C16.2326 190.057 16.9129 190.246 17.3287 191.569C17.7822 193.043 17.3665 192.816 17.8956 194.139C18.5759 195.991 19.2563 197.616 20.05 199.279C20.4279 200.035 20.8437 200.678 21.2972 201.509L23.2248 204.533C23.2626 204.571 23.3381 204.646 23.3759 204.684L37.209 218.782C39.061 220.256 41.9334 223.43 43.2185 223.922C44.5791 224.413 45.4862 224.149 44.4279 222.977C43.2563 221.654 36.3775 216.212 34.6767 214.322C33.0137 212.47 27.4578 206.385 26.2106 204.495C21.8641 198.032 23.5271 200.186 20.7303 195.386C20.7303 195.349 20.6925 195.273 20.6547 195.197Z" fill="black"/>
<path fill-rule="evenodd" clip-rule="evenodd" d="M31.2751 111.367C29.8011 110.876 30.2547 108.797 29.083 107.323C28.5539 106.681 28.9318 107.928 28.3649 106.189C27.5712 103.619 26.0972 101.314 26.0594 99.4241L27.3066 102.259C27.8358 103.43 28.1759 104.262 28.6673 105.282C29.1208 106.189 29.5366 107.248 29.9901 108.306L31.2751 111.367ZM25.4925 99.4619L24.6232 97.6855C24.5854 103.128 28.9696 110.801 31.7665 115.26L35.2058 120.249C37.1334 122.895 38.4562 126.788 40.724 125.843C42.3114 125.163 40.4216 124.445 39.5145 122.971C39.0232 122.177 34.1476 116.092 33.5806 114.882C33.2783 114.202 33.0893 113.56 32.7492 112.841C31.5019 110.347 30.5948 107.739 29.3476 105.169C28.8562 104.149 26.5507 98.8194 26.2106 98.895C25.7192 98.9706 26.5129 98.6304 25.946 99.0462C24.094 100.331 27.2688 98.706 25.4925 99.4619Z" fill="black"/>
<path fill-rule="evenodd" clip-rule="evenodd" d="M81.3539 106.265C81.5807 105.66 81.4673 105.963 81.7696 105.509L83.1303 104.224C82.8279 105.245 82.1098 105.774 81.3539 106.265ZM81.0515 106.832C81.0515 106.87 80.9759 106.756 80.9759 106.756L81.0515 106.832ZM83.1303 104.224C84.1885 102.561 84.9444 102.108 86.1539 100.558L92.0499 92.7722C91.4452 93.4903 91.1051 93.7549 90.4625 94.3974C89.7444 95.1155 89.631 95.4179 89.0263 96.136C85.02 100.747 81.2405 105.358 76.9318 109.667L74.4373 112.161C72.094 114.769 71.5649 115.412 69.9775 114.391C70.1665 112.728 71.2625 112.879 71.1869 112.577L70.8468 112.35C70.1287 113.371 70.7334 112.501 69.9019 113.144L68.3523 115.071C67.7854 116.281 68.5413 116.583 69.524 116.886L70.1287 117.075C70.7334 117.15 70.3555 117.226 71.2625 116.848C72.0562 116.545 71.7161 116.734 72.2452 116.356L89.9712 99.462C90.0468 99.4242 90.0846 99.3486 90.1224 99.3108L92.8436 96.7785C93.0704 96.5517 93.2972 96.2872 93.524 96.0226C94.3177 95.1533 94.2043 95.4179 94.7712 94.3596C93.6751 94.4352 92.3523 95.758 91.483 96.5895C90.5003 97.5344 89.8578 98.2147 88.8373 99.1596L86.6452 101.352C85.9271 102.032 83.9618 103.997 83.1303 104.224Z" fill="black"/>
<path fill-rule="evenodd" clip-rule="evenodd" d="M25.7571 250.227C25.5681 250.719 25.7193 250.076 25.7949 250.605L25.9082 251.172C26.1728 252.382 26.4752 254.12 27.2311 255.141L29.7256 258.769C31.4263 261.112 33.6185 264.325 35.6216 266.29C35.6594 266.328 35.6972 266.404 35.735 266.441L50.4752 280.804C51.1933 281.408 54.2547 284.13 55.2374 284.205C56.1823 284.281 56.0689 284.092 55.6909 283.26C55.6909 283.185 55.6153 283.109 55.6153 283.034C54.7838 281.56 50.7019 279.065 49.3035 277.629C45.7886 273.963 45.0326 274.908 43.7854 272.942L42.9539 271.771C41.8956 270.75 42.2358 271.695 40.6862 269.919L36.7177 265.761C34.9791 263.834 31.5775 259.903 30.3303 257.9C28.9697 255.821 27.4956 253.818 26.513 251.512L25.7571 250.227Z" fill="black"/>
<path fill-rule="evenodd" clip-rule="evenodd" d="M20.8436 85.7424C20.8059 79.733 24.3208 68.0542 26.5507 62.3093C27.4578 59.966 26.7397 60.9487 27.609 59.6259C28.7807 57.9251 29.4988 55.9975 30.5948 54.1456C31.1618 53.2007 31.5775 52.5582 32.1444 51.6133L40.2326 40.4259C40.6484 39.3676 40.4594 39.8211 39.8547 38.9141C38.5696 39.2542 38.5696 39.8211 38.0405 40.9172L33.5051 48.0227C32.9381 48.8542 32.4468 49.4967 32.0311 50.3282C29.5744 55.3928 28.7807 55.0526 25.5681 63.0652C24.7744 64.9928 24.094 66.6936 23.4515 68.8101C22.8468 70.7755 22.5066 72.5519 21.9397 74.8952C21.8263 75.4621 21.6751 75.6889 21.524 76.218C20.9192 78.4479 20.1255 83.5125 20.7681 85.5534C20.7681 85.5912 20.8059 85.7046 20.8436 85.7424Z" fill="black"/>
<path fill-rule="evenodd" clip-rule="evenodd" d="M132.377 101.616C132.113 100.747 131.924 100.067 131.584 99.1974C128.56 91.0336 126.746 82.7943 124.365 74.4415C123.609 71.7202 122.777 66.6179 122.097 65.3328C122.059 65.295 121.946 65.0683 121.908 64.9927C120.812 65.2572 120.207 65.6352 120.283 66.6935C120.359 67.6005 121.341 67.9785 122.211 71.0399C122.475 71.9848 122.664 72.6273 123.004 73.4588L127.615 89.5218C127.766 90.0509 132.453 104.716 132.944 104.338L132.377 101.616Z" fill="black"/>
<path fill-rule="evenodd" clip-rule="evenodd" d="M114.614 62.0825C113.971 59.5503 112.535 57.3959 111.326 55.166L107.811 48.8164C105.807 45.1881 104.711 44.281 103.804 42.6558L96.4342 32.5266C96.094 32.0731 96.2452 32.2621 96.0562 32.0353C96.0184 31.9975 95.9806 31.9219 95.905 31.8841C95.8673 31.8463 95.8295 31.7707 95.7917 31.7329C95.7539 31.6951 95.6783 31.6195 95.6405 31.5818L94.0153 29.4274C93.2972 29.4274 92.8436 29.3896 92.2767 30.0321C92.6547 31.544 92.8058 30.2211 94.0153 31.7329L97.5302 36.1172C97.568 36.155 97.6436 36.1928 97.6814 36.2684C97.7192 36.3062 97.757 36.344 97.7948 36.3818L105.921 47.229L113.291 60.1928C113.82 61.5156 113.48 61.7424 114.614 62.0825Z" fill="black"/>
<path fill-rule="evenodd" clip-rule="evenodd" d="M36.1507 295.96C37.4358 295.09 36.9444 295.355 35.0169 291.009C34.7145 290.328 34.3366 289.799 33.9964 289.119C33.3539 287.796 33.1271 286.549 32.4846 285.377C32.1066 284.621 31.8799 284.47 31.5397 283.714L26.5885 269.73C26.4374 269.087 26.2106 268.256 26.0594 267.651C25.6814 265.988 25.9082 266.895 26.0216 265.383C25.1901 265.157 25.6059 265.383 25.1523 264.816C24.5476 265.119 24.472 265.194 23.7161 265.346C23.9429 266.253 24.1318 266.366 24.4342 267.235L26.4752 273.358C27.9114 276.873 29.3854 281.786 31.0484 284.772C31.6909 285.982 32.2956 287.191 32.8626 288.514C34.072 291.424 35.6972 293.957 36.1507 295.96Z" fill="black"/>
<path fill-rule="evenodd" clip-rule="evenodd" d="M113.933 281.257C114.122 280.955 113.971 281.219 114.236 280.69C114.425 280.275 114.349 280.426 114.463 280.048C114.689 279.481 114.614 279.519 114.765 278.914L121.001 259.487C121.303 258.391 121.53 258.315 121.946 257.219L125.348 247.808C126.822 244.218 126.595 241.875 125.159 243.197C124.44 243.878 124.894 243.122 124.743 244.293C123.911 250.87 123.269 250.53 121.19 256.766L116.39 271.166C115.785 272.942 115.445 274.303 114.954 276.193C114.614 277.44 114.463 277.326 114.198 278.612C114.009 279.556 113.933 280.086 113.933 281.257Z" fill="black"/>
<path fill-rule="evenodd" clip-rule="evenodd" d="M68.1255 471.519L69.9019 461.919C70.2043 457.988 72.1318 452.621 72.9255 448.917C73.4925 446.158 74.8531 443.097 74.5885 441.849C72.5854 442.001 72.8499 443.626 71.8295 448.123C70.5822 453.755 68.3145 461.843 68.1633 467.475C68.1255 468.797 67.7476 469.667 67.861 470.649C68.0121 471.821 67.4074 470.347 68.1255 471.519Z" fill="black"/>
<path fill-rule="evenodd" clip-rule="evenodd" d="M121.568 230.309C123.042 229.667 122.4 230.65 123.155 228.684L125.839 218.857L126.368 212.508C126.292 212.47 126.292 212.357 126.255 212.281C125.234 212.848 125.348 212.546 125.196 214.057L122.891 225.812C122.475 227.21 121.681 229.062 121.568 230.309Z" fill="black"/>
<path fill-rule="evenodd" clip-rule="evenodd" d="M132.755 175.922C132.755 178.87 132 185.257 131.622 188.243L131.811 189.868C132.34 188.848 132.113 188.205 132.34 187.223L133.398 179.475C133.776 176.715 135.023 170.366 134.041 168.816C133.511 168.06 133.776 168.363 132.453 168.325C132.491 170.328 132.642 169.837 132.793 170.328C133.625 172.671 132.755 175.582 132.755 175.922Z" fill="black"/>
<path fill-rule="evenodd" clip-rule="evenodd" d="M41.5933 46.5109C39.9681 45.4905 39.4011 47.5314 37.9271 49.5345C37.02 50.744 34.3744 56.6023 33.0515 58.9078L29.0452 68.0164C29.7633 67.1471 30.8972 64.5393 31.5775 63.292L35.3948 56.0353C35.4326 55.9597 35.546 55.733 35.5838 55.6196L40.4972 47.7582C41.4043 46.8889 41.1775 47.9093 41.5933 46.5109Z" fill="black"/>
<path fill-rule="evenodd" clip-rule="evenodd" d="M60.1885 511.09C60.3397 510.75 61.1712 506.933 60.7554 505.837L60.6043 505.497C60.3019 504.287 60.5665 502.775 60.7554 501.982C60.9822 500.848 60.8688 500.545 61.2846 499.374C61.7003 498.127 62.1539 498.051 62.1539 496.615C62.1917 494.763 63.8925 489.358 64.6106 487.846C63.4011 488.149 63.4767 489.056 62.6452 491.664C60.1129 499.752 60.9066 499.714 59.5082 505.761C59.1303 507.235 59.0169 508.067 59.357 509.919C59.546 511.128 59.4704 510.826 60.1885 511.09Z" fill="black"/>
<path fill-rule="evenodd" clip-rule="evenodd" d="M63.4011 66.3155C64.1948 65.0305 64.5728 57.2824 66.0468 53.2761C66.3491 52.4824 66.5003 52.5958 66.6137 51.4998C65.631 51.4998 65.2531 51.6887 64.9129 52.7092C64.724 53.2761 64.4216 54.9013 64.346 55.3549L63.7035 61.0998C63.6657 62.3848 64.2326 60.7596 63.4767 62.9139L63.2121 65.5974C63.2121 65.8242 63.1743 66.1265 63.4011 66.3155Z" fill="black"/>
<path fill-rule="evenodd" clip-rule="evenodd" d="M67.3696 102.108C68.0877 100.785 67.8988 99.5753 68.0499 98.4414L68.2767 94.2839C68.2767 93.7926 68.9192 92.8477 68.2389 90.2399C67.9366 88.9926 68.0877 89.5973 67.4074 89.3328C66.9539 91.2225 67.2184 94.4729 67.3696 96.3627C67.5208 97.8745 66.9917 97.7989 67.1429 99.4997C67.2562 100.634 67.294 99.6509 67.1807 100.823C67.1807 101.389 66.9917 101.465 67.3696 102.108Z" fill="black"/>
<path fill-rule="evenodd" clip-rule="evenodd" d="M130.79 124.671C130.79 125.881 131.092 126.523 131.092 128.186C131.092 129.282 131.017 130.567 131.092 131.664C131.13 132.722 131.244 132.646 131.281 133.364C131.319 134.271 131.244 133.1 131.281 133.931C131.281 133.969 131.319 134.385 131.357 134.612C131.395 136.426 130.715 136.123 131.659 137.219C131.659 134.536 131.886 135.897 131.773 132.797L132.264 127.884C132.302 127.166 132.151 126.486 132.113 126.032C132.037 124.898 132.982 124.029 131.092 123.5C130.903 124.331 130.79 123.991 130.79 124.671Z" fill="black"/>
<path fill-rule="evenodd" clip-rule="evenodd" d="M26.5507 153.887C26.4752 152.867 25.946 151.506 25.6059 150.448L24.5098 146.895C24.0563 145.686 23.8673 144.968 23.5649 143.456L22.7712 139.601C21.0326 139.79 22.0153 139.827 22.6578 142.927C23.0736 144.892 25.2657 152.942 26.5507 153.887Z" fill="black"/>
<path fill-rule="evenodd" clip-rule="evenodd" d="M39.8925 175.733C40.0814 175.43 40.0059 175.733 40.0437 175.279V167.04C40.157 165.415 40.7618 164.47 39.3255 163.525C38.1917 164.81 38.9476 164.394 39.061 166.397L39.2877 172.558C39.3633 173.503 39.1744 174.145 39.4767 174.977C39.8547 176.111 39.5901 175.317 39.8925 175.733Z" fill="black"/>
<path fill-rule="evenodd" clip-rule="evenodd" d="M54.1413 321.018C54.6704 319.922 53.8389 319.733 52.9696 318.145L48.5098 310.36C47.9807 309.528 48.4342 309.49 46.9224 309.377C46.9602 311.342 47.1492 310.019 48.5476 312.401L54.1413 321.018Z" fill="black"/>
<path fill-rule="evenodd" clip-rule="evenodd" d="M61.4358 320.149C61.02 318.297 58.8279 314.517 58.1098 312.174C57.6185 310.662 57.9586 310.398 56.22 310.246C56.22 312.363 57.1649 313.043 58.45 315.575C59.0169 316.747 60.4531 319.468 61.4358 320.149Z" fill="black"/>
<path fill-rule="evenodd" clip-rule="evenodd" d="M66.0468 39.2541C66.2358 38.9896 66.198 39.2919 66.2358 38.8006L65.8578 33.5093C65.7444 32.1108 65.7066 31.4683 65.9712 30.1077C66.198 28.8226 66.4625 27.5754 66.0846 26.7439C65.2153 27.0085 65.6688 26.8573 64.9129 27.3486C65.4043 29.503 64.9885 31.5817 65.2531 33.9628C65.3287 34.4919 65.3287 34.8699 65.3665 35.1344C65.7066 37.44 65.6688 38.6494 66.0468 39.2541Z" fill="black"/>
<path fill-rule="evenodd" clip-rule="evenodd" d="M63.061 79.9975L63.2877 76.8983C63.0232 76.1424 63.1365 76.4448 62.494 76.218C62.0027 77.2007 61.8893 80.9424 62.0027 81.8117C62.1917 83.1723 61.7759 82.9078 61.7003 84.1172C61.6247 85.2511 61.8137 84.0416 61.8137 85.4023L61.2846 88.7283C61.5491 88.4637 61.4358 89.0684 61.7759 88.0479C62.2673 86.6117 61.8515 84.8353 62.2673 83.5881L63.061 79.9975Z" fill="black"/>
<path fill-rule="evenodd" clip-rule="evenodd" d="M42.2736 304.69C42.5759 304.086 42.6893 304.086 42.3114 303.254C41.2909 301.1 41.4043 300.797 40.2326 300.042L39.3255 300.835C39.6657 301.327 39.7035 301.327 39.9681 301.742L40.9885 303.367C41.7066 304.615 41.2531 304.161 42.2736 304.69Z" fill="black"/>
<path fill-rule="evenodd" clip-rule="evenodd" d="M133.36 152.64C132.226 152.338 131.319 152.149 131.508 153.887C131.584 154.832 131.659 155.097 131.584 156.117C131.47 157.138 131.017 156.949 132.189 157.289L133.36 152.64Z" fill="black"/>
<path fill-rule="evenodd" clip-rule="evenodd" d="M19.1428 69.1501C18.198 69.4903 18.6893 69.2635 17.5554 71.947L16.3838 74.895C16.346 74.9328 16.346 75.0084 16.346 75.0462L14.683 79.2793C14.4184 80.1108 14.2673 79.9974 14.1539 81.0935C14.872 80.5643 16.3082 76.3312 16.7617 75.2352L19.1428 69.1501Z" fill="black"/>
<path fill-rule="evenodd" clip-rule="evenodd" d="M124.327 194.857C124.441 194.555 124.781 193.648 124.932 193.156C125.234 192.287 125.045 192.098 125.423 191.267L123.987 191.607C123.76 192.136 123.836 192.438 123.76 193.119C123.231 198.032 121.984 197.427 123.382 198.032C123.382 197.503 123.458 197.389 123.496 196.936C123.836 194.252 123.571 196.596 124.327 194.857Z" fill="black"/>
<path fill-rule="evenodd" clip-rule="evenodd" d="M128.636 199.468C129.278 199.128 129.089 199.846 129.581 198.675L130.11 196.898C130.715 195.613 130.563 196.974 130.677 195.424L129.203 194.555C128.825 196.142 129.014 197.881 128.636 199.468Z" fill="black"/>
<path fill-rule="evenodd" clip-rule="evenodd" d="M68.3145 80.6022C69.3728 79.8841 68.9948 80.2621 68.9192 79.166C68.8436 77.881 69.0704 77.7676 68.6169 76.8227C68.2389 76.8605 67.3318 76.2936 67.4074 78.5613C67.483 79.9597 67.8987 80.1865 68.0121 80.3376L68.3145 80.6022Z" fill="black"/>
<path fill-rule="evenodd" clip-rule="evenodd" d="M87.6279 29.125C87.5145 27.8022 86.683 26.9707 85.9649 25.2321C85.4736 24.0982 85.7759 24.4384 85.02 24.1738C84.7932 24.4762 84.7554 24.0982 84.7554 24.7786C84.7177 25.799 85.4736 26.2526 86.5318 28.1801C87.0988 29.1628 86.6074 28.5959 87.6279 29.125Z" fill="black"/>
<path fill-rule="evenodd" clip-rule="evenodd" d="M36.4153 169.346C36.3775 167.947 35.735 167.002 36.1129 166.133C35.1302 165.906 35.3192 166.095 34.6767 165.831C34.4877 167.872 34.4877 169.157 36.4153 169.346Z" fill="black"/>
<path fill-rule="evenodd" clip-rule="evenodd" d="M51.798 43.6006C50.6641 43.714 50.8531 43.4116 49.8704 46.3596L48.8877 49.4589C50.2106 47.2667 50.8531 47.3423 51.798 43.6006Z" fill="black"/>
<path fill-rule="evenodd" clip-rule="evenodd" d="M68.05 69.8304C68.6169 69.4147 68.7303 69.2635 68.9948 68.432C69.5618 66.5044 67.2941 66.9958 67.2563 68.3564C67.2563 69.0367 67.5208 69.4903 68.05 69.8304Z" fill="black"/>
<path fill-rule="evenodd" clip-rule="evenodd" d="M32.3334 162.051C32.5602 161.673 32.6358 161.749 32.6358 161.182C32.6358 159.141 32.4468 159.368 30.8972 159.708C30.935 161.182 31.1618 161.711 32.3334 162.051Z" fill="black"/>
<path fill-rule="evenodd" clip-rule="evenodd" d="M61.7003 42.1643C60.9444 42.4667 61.1712 41.5596 61.0578 43.2982C61.02 43.8651 61.0956 44.7344 61.0956 45.3769C61.2846 45.0745 61.209 45.3013 61.3602 44.7722L61.7003 42.1643Z" fill="black"/>
<path fill-rule="evenodd" clip-rule="evenodd" d="M4.70507 152.375V148.596H4.44051L4.40271 152.375H4.70507Z" fill="black"/>
<path fill-rule="evenodd" clip-rule="evenodd" d="M44.768 37.2511L45.9775 35.1724C44.8058 35.9283 45.4862 35.8149 44.5035 36.9109L44.768 37.2511Z" fill="black"/>
<path fill-rule="evenodd" clip-rule="evenodd" d="M11.2437 243.235C10.8279 241.459 11.0925 241.761 10.3744 241.459C10.5633 241.875 10.5255 241.95 10.6767 242.328C10.7145 242.366 10.7145 242.442 10.7523 242.517C10.7901 242.593 10.8279 242.668 10.8657 242.706C11.0547 243.084 11.0547 243.009 11.2437 243.235Z" fill="black"/>
<path fill-rule="evenodd" clip-rule="evenodd" d="M46.2799 39.5187L46.5445 38.0825C46.5067 38.1203 46.2043 38.1581 46.0531 38.7628C45.7886 40.1235 46.0531 39.1786 46.2799 39.5187Z" fill="black"/>
<path fill-rule="evenodd" clip-rule="evenodd" d="M45.9775 40.6902C45.8263 40.4635 45.4484 39.7454 45.3728 41.8619L45.8641 40.8792C45.9019 40.8414 45.9397 40.728 45.9775 40.6902Z" fill="black"/>
<path fill-rule="evenodd" clip-rule="evenodd" d="M50.0216 31.1283C50.135 31.1661 50.5885 29.9566 50.6641 29.6165C50.5885 29.692 50.4751 29.7676 50.5129 29.8054L49.9082 30.6369C49.8704 30.6747 49.8326 30.7503 49.757 30.7881L50.0216 31.1283Z" fill="black"/>
<path fill-rule="evenodd" clip-rule="evenodd" d="M48.2452 34.6432C48.3586 34.6432 48.8122 33.4715 48.8878 33.1313C48.85 33.1691 48.6988 33.2447 48.7744 33.2825C48.85 33.3203 48.6232 33.4715 48.5098 33.6227L48.1318 34.114C48.1318 34.1518 48.0563 34.2274 48.0185 34.303L48.2452 34.6432Z" fill="black"/>
<path fill-rule="evenodd" clip-rule="evenodd" d="M51.7602 27.9533L52.2893 26.9706L52.1381 26.6682C52.0248 26.6682 52.0626 26.895 51.9114 27.1218C51.5334 27.6509 51.798 27.2729 51.5334 27.6131L51.7602 27.9533Z" fill="black"/>
<path fill-rule="evenodd" clip-rule="evenodd" d="M14.1539 81.3958C13.7003 81.8871 13.7759 81.7737 13.5869 82.5296C14.4184 81.8871 14.0405 82.643 14.1539 81.3958Z" fill="black"/>
<path fill-rule="evenodd" clip-rule="evenodd" d="M48.283 50.2903L47.9429 51.4619C48.4342 50.9328 48.0941 51.9911 48.3964 50.9706C48.7744 49.7234 48.5098 50.706 48.283 50.2903Z" fill="black"/>
<path fill-rule="evenodd" clip-rule="evenodd" d="M47.7161 34.8699C47.5649 35.5502 47.6027 35.3612 47.4515 36.0037C47.6783 35.7392 47.6027 36.3817 47.8295 35.5502C48.2074 34.2273 47.9806 35.3234 47.7161 34.8699Z" fill="black"/>
<path fill-rule="evenodd" clip-rule="evenodd" d="M114.727 62.6872C114.652 63.1786 115.256 63.0652 115.218 62.6494C115.181 62.4982 114.841 62.0069 114.727 62.6872Z" fill="black"/>
<path fill-rule="evenodd" clip-rule="evenodd" d="M66.3869 24.136L64.9129 26.1769C66.3869 25.1943 65.2153 25.4588 66.3869 24.136Z" fill="black"/>
<path fill-rule="evenodd" clip-rule="evenodd" d="M12.6799 249.887V248.753C12.3019 249.32 12.3397 248.073 12.4153 249.32C12.4531 249.925 12.4909 249.623 12.6799 249.887Z" fill="black"/>
<path fill-rule="evenodd" clip-rule="evenodd" d="M47.1492 37.2132C46.809 36.7975 46.8468 36.5707 46.5444 37.7801C46.5822 37.7424 46.62 37.6668 46.6956 37.629L47.1492 37.2132Z" fill="black"/>
<path fill-rule="evenodd" clip-rule="evenodd" d="M50.9287 29.3517C51.0421 29.3139 51.6468 28.4446 50.9665 28.936C50.8531 29.0115 50.2484 29.6163 50.9287 29.3517Z" fill="black"/>
<path fill-rule="evenodd" clip-rule="evenodd" d="M55.5775 187.412C55.8799 187.109 55.1618 186.353 55.4263 187.071C55.4263 187.071 55.0862 187.903 55.5775 187.412Z" fill="black"/>
<path fill-rule="evenodd" clip-rule="evenodd" d="M43.6342 39.2162C43.9366 38.9139 43.2185 38.158 43.483 38.8761C43.483 38.9139 43.1429 39.7076 43.6342 39.2162Z" fill="black"/>
<path fill-rule="evenodd" clip-rule="evenodd" d="M55.3129 186.542C55.5775 186.278 54.8594 185.522 55.124 186.202C55.124 186.202 54.8216 187.034 55.3129 186.542Z" fill="black"/>
<path fill-rule="evenodd" clip-rule="evenodd" d="M12.3775 248.451C12.6421 248.149 11.9995 247.393 12.2263 248.111C12.2263 248.111 11.9617 248.867 12.3775 248.451Z" fill="black"/>
<path fill-rule="evenodd" clip-rule="evenodd" d="M27.2688 71.7958C27.987 71.7958 27.3444 71.3422 27.2688 71.6068C27.2688 71.6068 26.4373 71.7958 27.2688 71.7958Z" fill="black"/>
<path fill-rule="evenodd" clip-rule="evenodd" d="M67.1051 102.712V103.619C67.4074 103.09 67.4074 103.166 67.1051 102.712Z" fill="black"/>
<path fill-rule="evenodd" clip-rule="evenodd" d="M4.66727 144.59C4.81845 144.627 4.96963 143.834 5.00742 143.645L4.66727 144.59Z" fill="black"/>
<path fill-rule="evenodd" clip-rule="evenodd" d="M29.0452 68.5833L28.4027 69.4525C28.4783 69.4147 28.4783 69.3392 28.5539 69.3014C28.6673 69.2636 28.6673 69.1502 28.6673 69.1124L29.0452 68.5833Z" fill="black"/>
<path fill-rule="evenodd" clip-rule="evenodd" d="M11.2436 243.802C11.2436 243.764 11.0925 243.689 11.1303 243.689C11.1681 243.689 11.0925 243.689 11.0925 243.689H11.1303C11.1303 243.727 11.2059 243.84 11.2436 243.802Z" fill="black"/>
<path fill-rule="evenodd" clip-rule="evenodd" d="M51.5334 28.4825C51.5334 28.4447 51.3822 28.3691 51.42 28.3691C51.4578 28.4069 51.4956 28.5203 51.5334 28.4825Z" fill="black"/>
<path fill-rule="evenodd" clip-rule="evenodd" d="M49.757 31.6574C49.7948 31.6574 49.6436 31.5818 49.6814 31.5818C49.6814 31.5818 49.757 31.6952 49.757 31.6574Z" fill="black"/>
<path fill-rule="evenodd" clip-rule="evenodd" d="M76.8184 345.812L76.7429 345.736C76.7429 345.736 76.7807 345.849 76.8184 345.812Z" fill="black"/>
<path fill-rule="evenodd" clip-rule="evenodd" d="M81.2027 38.9897L81.0893 38.9141C81.1271 38.9141 81.1649 39.0274 81.2027 38.9897Z" fill="black"/>
<path fill-rule="evenodd" clip-rule="evenodd" d="M107.508 273.396C107.546 273.396 107.622 273.282 107.622 273.282L107.508 273.396Z" fill="black"/>
<path fill-rule="evenodd" clip-rule="evenodd" d="M43.8988 52.029L43.8232 51.9534C43.8232 51.9534 43.861 52.0668 43.8988 52.029Z" fill="black"/>
<path fill-rule="evenodd" clip-rule="evenodd" d="M12.1129 247.582L11.9995 247.506C11.9995 247.506 12.0751 247.619 12.1129 247.582Z" fill="black"/>
<path fill-rule="evenodd" clip-rule="evenodd" d="M64.9129 26.7438L64.8373 26.6682C64.8373 26.6682 64.8751 26.7816 64.9129 26.7438Z" fill="black"/>
<path fill-rule="evenodd" clip-rule="evenodd" d="M20.5413 86.347L20.4657 86.2336C20.4657 86.2714 20.5413 86.3848 20.5413 86.347Z" fill="black"/>
<path fill-rule="evenodd" clip-rule="evenodd" d="M49.1901 32.829L49.0767 32.7156V32.7534C49.1145 32.7534 49.1523 32.8668 49.1901 32.829Z" fill="black"/>
<path fill-rule="evenodd" clip-rule="evenodd" d="M12.9822 250.492L12.8688 250.416C12.8688 250.416 12.9444 250.53 12.9822 250.492Z" fill="black"/>
<path fill-rule="evenodd" clip-rule="evenodd" d="M44.5035 51.1596L44.3901 51.084C44.4279 51.084 44.4657 51.1974 44.5035 51.1596Z" fill="black"/>
<path fill-rule="evenodd" clip-rule="evenodd" d="M64.6106 487.506L64.535 487.43C64.535 487.43 64.5728 487.544 64.6106 487.506Z" fill="black"/>
<path fill-rule="evenodd" clip-rule="evenodd" d="M13.5492 83.0966L13.4736 83.021C13.4736 83.021 13.5492 83.1344 13.5492 83.0966Z" fill="black"/>
<path fill-rule="evenodd" clip-rule="evenodd" d="M27.2688 72.6652L27.1932 72.5896C27.1932 72.5896 27.231 72.6652 27.2688 72.6652Z" fill="black"/>
<path fill-rule="evenodd" clip-rule="evenodd" d="M44.2389 38.3471C44.2389 38.3093 44.0877 38.2715 44.1255 38.2715L44.2389 38.3471Z" fill="black"/>
<path fill-rule="evenodd" clip-rule="evenodd" d="M97.6436 51.4619C95.9806 51.0462 94.0531 51.9533 94.0153 54.1454C93.9775 56.3375 95.7917 59.8147 98.8153 65.7863C101.801 71.7958 105.996 80.2997 108.453 86.6493C110.91 93.0367 111.666 97.2698 112.422 99.3863C113.177 101.503 113.933 101.503 114.803 99.4619C115.634 97.421 116.579 93.3769 114.425 85.6666C112.308 77.9942 107.13 66.6556 103.88 60.117C100.592 53.5785 99.2688 51.8399 97.6436 51.4619Z" fill="#E2FA9A"/>
<path fill-rule="evenodd" clip-rule="evenodd" d="M115.445 106.152C114.765 107.55 114.652 109.969 115.559 111.783C116.466 113.635 118.393 114.845 119.074 113.446C119.754 112.048 119.149 108.042 118.204 106.227C117.297 104.413 116.088 104.753 115.445 106.152Z" fill="#E2FA9A"/>
<path fill-rule="evenodd" clip-rule="evenodd" d="M119.565 123.424C118.771 122.971 117.902 124.785 118.28 126.183C118.658 127.582 120.207 128.527 120.661 127.62C121.077 126.712 120.359 123.916 119.565 123.424Z" fill="#E2FA9A"/>
</svg>
