<svg width="318" height="237" viewBox="0 0 318 237" fill="none" xmlns="http://www.w3.org/2000/svg">
<path d="M129.477 54.1912C139.396 62.592 143.017 73.0539 144.192 85.7302C145.647 112.958 136.069 139.166 123.442 162.855C123.087 163.526 122.732 164.197 122.367 164.887C113.242 182.021 102.233 196.197 88.4417 209.855C87.7443 210.55 87.0469 211.245 86.3284 211.961C71.1321 226.347 51.6843 236.565 30.3948 236.101C22.2344 235.421 15.2225 232.773 9.44168 226.855C2.07125 217.028 -0.109491 207.465 0.00418069 195.355C0.0132041 194.202 0.0222276 193.05 0.0315244 191.862C0.223385 182.336 1.46177 173.881 4.44168 164.855C4.84435 163.604 4.84435 163.604 5.25516 162.327C9.93171 148.036 15.4508 132.768 24.18 120.39C26.1076 116.517 26.0609 112.627 26.3167 108.355C27.7827 90.8497 34.9867 78.1743 48.0042 66.6052C68.9628 50.0434 105.525 36.606 129.477 54.1912ZM49.4417 74.8552C48.7933 75.492 48.1449 76.1288 47.4768 76.7849C40.283 84.3723 36.1489 93.612 34.4417 103.855C37.9293 100.508 40.8667 97.0861 43.6917 93.1677C52.0133 81.9301 62.1762 68.9315 74.4417 61.8552C77.8792 61.5427 77.8792 61.5427 80.4417 61.8552C80.4417 62.5152 80.4417 63.1752 80.4417 63.8552C78.861 65.0813 77.224 66.235 75.5667 67.3552C59.5159 78.776 44.535 97.2542 35.4417 114.855C35.3269 121.859 37.7927 125.763 42.4417 130.855C47.7612 136.031 54.3454 139.031 61.7542 139.48C70.1679 139.126 77.7197 135.144 83.4417 129.043C87.4751 123.917 89.9865 118.189 91.4417 111.855C92.7617 111.525 94.0817 111.195 95.4417 110.855C96.4361 118.148 93.3027 123.796 89.4417 129.855C83.7386 136.551 76.0859 140.489 67.4417 141.855C57.3386 142.616 48.2738 142.153 39.9026 135.984C35.9513 132.58 32.6433 128.974 29.4417 124.855C22.5027 137.111 17.0632 149.554 12.4417 162.855C11.7901 164.708 11.7901 164.708 11.1253 166.597C5.85934 183.114 4.20931 201.53 11.3128 217.703C14.7906 224.334 19.8214 228.539 26.8792 231.105C40.7312 234.021 53.7376 227.749 65.4417 220.855C78.2214 212.493 89.206 201.973 98.4417 189.855C99.3009 188.77 100.16 187.686 101.02 186.601C123.616 157.538 139.133 119.07 136.442 81.8552C135.03 71.6931 131.052 63.8861 123.504 57.0427C100.696 40.7512 66.64 57.6868 49.4417 74.8552Z" fill="#010101"/>
<path d="M240.442 0.855141C249.269 7.63887 255.701 20.7637 257.942 31.5426C258.16 33.3078 258.326 35.0803 258.442 36.8551C258.544 38.3749 258.544 38.3749 258.649 39.9255C259.103 53.8935 255.57 65.9792 248.442 77.8551C247.953 78.3721 247.463 78.8891 246.96 79.4217C241.191 85.6939 241.595 92.2492 241.672 100.382C241.663 101.781 241.652 103.18 241.638 104.578C241.607 108.236 241.612 111.893 241.624 115.551C241.634 120.014 241.605 124.477 241.579 128.94C241.559 132.408 241.546 135.874 241.553 139.342C241.553 140.577 241.552 141.813 241.552 143.085C241.554 144.178 241.557 145.271 241.559 146.397C241.442 148.855 241.442 148.855 240.442 149.855C237.504 150.105 237.504 150.105 234.442 149.855C232.11 146.357 232.208 145.033 232.25 140.906C232.256 139.68 232.262 138.455 232.268 137.192C232.275 136.537 232.282 135.882 232.289 135.207C232.309 133.145 232.311 131.084 232.308 129.022C232.298 123.16 232.297 117.299 232.362 111.437C232.401 107.847 232.4 104.259 232.375 100.669C232.371 98.6561 232.41 96.6428 232.449 94.6298C232.363 86.3399 230.849 81.6425 225.44 75.2983C215.777 63.4832 215.557 48.3128 216.442 33.8551C217.959 21.4538 224.334 9.40988 233.442 0.855141C236.195 -0.521787 237.525 -0.0211489 240.442 0.855141ZM236.442 11.8551C227.075 22.934 224.656 35.6128 225.249 49.6574C225.875 56.8086 228.342 63.959 232.442 69.8551C233.102 69.8551 233.762 69.8551 234.442 69.8551C235.432 62.9251 236.422 55.9951 237.442 48.8551C238.432 56.1151 239.422 63.3751 240.442 70.8551C247.436 63.8608 249.495 53.8458 249.817 44.2301C249.599 32.2678 246.151 21.1599 238.442 11.8551C237.782 11.8551 237.122 11.8551 236.442 11.8551Z" fill="#378614"/>
<path d="M172.629 161.793C173.901 161.802 175.174 161.811 176.485 161.82C177.948 161.838 177.948 161.838 179.442 161.855C178.876 166.238 177.775 169.745 175.879 173.73C175.424 174.697 174.969 175.664 174.5 176.66C173.976 177.747 173.976 177.747 173.442 178.855C185.319 174.168 185.319 174.168 195.864 167.117C199.985 163.822 203.21 163.654 208.442 163.855C209.432 166.33 209.432 166.33 210.442 168.855C205.442 169.855 205.442 169.855 202.942 170.105C199.435 171.157 197.794 173.111 195.442 175.855C195.112 176.845 194.782 177.835 194.442 178.855C195.117 178.266 195.793 177.677 196.489 177.07C197.381 176.319 198.273 175.567 199.192 174.793C200.073 174.039 200.955 173.285 201.864 172.508C204.442 170.855 204.442 170.855 206.707 170.922C208.442 171.855 208.442 171.855 209.442 174.855C209.004 177.543 209.004 177.543 208.442 179.855C213.252 178.481 215.536 175.713 218.442 171.855C219.586 170.432 219.586 170.432 220.754 168.98C221.311 168.279 221.868 167.578 222.442 166.855C223.762 167.185 225.082 167.515 226.442 167.855C226.442 168.845 226.442 169.835 226.442 170.855C227.308 170.36 228.174 169.865 229.067 169.355C232.562 167.802 234.672 167.505 238.442 167.855C239.442 168.855 239.442 168.855 239.629 171.605C239.444 174.823 238.803 176.963 237.442 179.855C238.068 179.494 238.695 179.133 239.34 178.762C240.157 178.298 240.975 177.833 241.817 177.355C242.629 176.891 243.441 176.427 244.278 175.949C246.442 174.855 246.442 174.855 248.442 174.855C248.751 173.886 249.06 172.917 249.379 171.918C250.442 168.855 250.442 168.855 251.442 167.855C253.108 167.815 254.776 167.813 256.442 167.855C255.777 172.244 254.254 175.836 252.442 179.855C257.415 178.685 260.735 177.562 264.442 173.855C265.04 172.7 265.638 171.545 266.254 170.355C268.558 166.036 271.836 164.265 276.442 162.855C278.891 162.574 280.967 162.649 283.442 162.855C284.432 164.835 284.432 164.835 285.442 166.855C282.442 167.855 282.442 167.855 280.067 167.605C276.241 167.97 274.904 170.051 272.442 172.855C272.112 173.185 271.782 173.515 271.442 173.855C271.401 175.522 271.399 177.189 271.442 178.855C277.596 180.465 282.963 178.7 288.504 175.762C289.102 175.401 289.7 175.04 290.317 174.668C293.442 172.855 293.442 172.855 297.442 172.855C297.09 175.563 296.68 176.642 294.614 178.488C287.34 182.969 279.743 185.474 271.094 184.625C269.192 184.168 269.192 184.168 266.442 182.855C266.112 181.865 265.782 180.875 265.442 179.855C264.493 180.66 263.544 181.464 262.567 182.293C258.192 185.451 253.763 185.992 248.442 185.855C247.782 185.525 247.122 185.195 246.442 184.855C246.112 183.865 245.782 182.875 245.442 181.855C244.41 182.35 243.379 182.845 242.317 183.355C238.912 184.822 236.178 185.211 232.442 184.855C230.543 182.956 231.318 180.283 231.309 177.765C231.442 175.855 231.442 175.855 232.442 173.855C231.561 174.554 230.681 175.253 229.774 175.973C228.601 176.892 227.428 177.811 226.254 178.73C225.676 179.191 225.098 179.651 224.502 180.125C221.289 182.63 218.401 184.663 214.442 185.855C212.567 185.543 212.567 185.543 210.442 184.855C209.245 184.732 208.049 184.608 206.817 184.48C205.703 184.274 204.589 184.068 203.442 183.855C202.452 182.37 202.452 182.37 201.442 180.855C200.823 181.515 200.204 182.175 199.567 182.855C195.261 185.611 191.441 185.42 186.442 184.855C185.442 183.855 185.442 183.855 185.379 181.293C185.4 180.488 185.42 179.684 185.442 178.855C179.299 180.55 173.481 182.564 170.008 188.169C167.393 193.723 165.431 199.528 163.396 205.314C160.279 213.616 155.3 220.528 147.442 224.855C139.763 227.927 132.154 227.719 124.465 224.832C121.323 223.315 119.434 221.712 117.442 218.855C117.155 215.558 117.672 213.802 119.768 211.223C124.323 206.587 129.136 203.275 134.754 200.043C135.616 199.537 136.477 199.03 137.365 198.509C145.973 193.477 154.69 188.633 163.442 183.855C161.524 183.886 161.524 183.886 159.567 183.918C155.692 183.98 155.692 183.98 153.442 182.855C151.977 177.22 152.524 173.871 155.442 168.855C160.855 163.174 164.719 161.72 172.629 161.793ZM161.442 169.855C158.889 173.748 158.889 173.748 158.754 178.23C158.981 178.767 159.208 179.303 159.442 179.855C164.268 177.442 167.142 173.995 170.442 169.855C169.782 168.535 169.122 167.215 168.442 165.855C165.831 165.855 163.369 168.391 161.442 169.855ZM148.817 196.48C147.748 197.098 146.679 197.715 145.578 198.351C133.96 204.8 133.96 204.8 124.442 213.855C124.034 216.484 124.034 216.484 125.442 218.855C130.567 221.952 135.516 222.771 141.442 221.855C151.674 217.693 156.269 207.549 160.442 197.855C161.305 195.176 161.909 192.625 162.442 189.855C157.725 189.855 152.787 194.151 148.817 196.48Z" fill="#010101"/>
<path d="M162.629 38.5427C179.031 39.1042 194.566 45.0128 206.34 56.5896C222.366 73.8671 225.676 91.7474 225.754 114.605C225.758 115.326 225.762 116.048 225.766 116.791C225.771 118.87 225.76 120.948 225.742 123.027C225.734 124.245 225.725 125.463 225.716 126.718C225.457 129.677 224.995 131.365 223.442 133.855C221.442 133.898 219.441 133.896 217.442 133.855C215.702 132.116 216.07 129.662 215.879 127.293C215.795 126.281 215.712 125.269 215.625 124.226C215.534 123.053 215.534 123.053 215.442 121.855C214.811 121.654 214.18 121.452 213.53 121.244C210.685 120.331 207.845 119.406 205.004 118.48C204.011 118.163 203.018 117.846 201.994 117.519C200.578 117.055 200.578 117.055 199.133 116.582C198.259 116.299 197.384 116.016 196.483 115.725C194.442 114.855 194.442 114.855 193.442 112.855C201.032 112.855 208.622 112.855 216.442 112.855C216.112 110.875 215.782 108.895 215.442 106.855C214.882 106.841 214.323 106.827 213.746 106.812C198.312 105.894 184.209 98.6372 173.641 87.4998C163.967 75.8676 157.335 63.0536 157.254 47.6677C157.24 46.4367 157.226 45.2056 157.211 43.9373C157.534 39.6255 158.347 38.9626 162.629 38.5427ZM166.442 48.8552C167.749 63.4174 174.135 75.716 184.851 85.533C191.987 91.4661 200.222 95.5836 209.442 96.8552C206.654 91.9157 203.149 87.7965 199.5 83.4763C197.786 81.294 196.542 79.3827 195.442 76.8552C197.714 78.6236 199.985 80.3948 202.254 82.1677C202.897 82.6672 203.539 83.1667 204.201 83.6814C204.823 84.168 205.445 84.6546 206.086 85.156C206.657 85.6011 207.228 86.0463 207.816 86.5049C209.442 87.8552 209.442 87.8552 211.026 89.5239C212.361 91.0836 212.361 91.0836 214.442 90.8552C212.199 77.1722 204.612 66.3031 193.774 57.7498C185.692 52.2803 176.377 47.952 166.442 48.8552Z" fill="#368813"/>
<path d="M316.121 40.1404C318.551 43.2961 317.818 47.0962 317.442 50.8552C315.124 68.0209 307.004 83.1633 293.629 94.2654C283.427 101.68 271.798 105.818 259.442 107.855C259.112 109.505 258.782 111.155 258.442 112.855C265.702 112.855 272.962 112.855 280.442 112.855C280.442 113.515 280.442 114.175 280.442 114.855C277.34 115.862 274.235 116.86 271.129 117.855C270.248 118.141 269.367 118.428 268.459 118.722C267.612 118.993 266.764 119.264 265.891 119.543C265.111 119.794 264.33 120.045 263.526 120.304C261.442 120.855 261.442 120.855 258.442 120.855C258.465 121.626 258.488 122.397 258.512 123.191C258.53 124.194 258.548 125.197 258.567 126.23C258.59 127.228 258.613 128.226 258.637 129.254C258.442 131.855 258.442 131.855 256.442 133.855C253.942 134.105 253.942 134.105 251.442 133.855C248.962 131.376 249.186 129.911 249.138 126.525C249.139 125.795 249.14 125.064 249.141 124.312C249.137 123.552 249.132 122.791 249.128 122.007C249.122 120.387 249.122 118.767 249.126 117.147C249.129 114.722 249.106 112.298 249.08 109.873C248.999 90.6373 252.188 73.4216 266.141 59.0935C266.9 58.3548 267.659 57.6162 268.442 56.8552C269.129 56.1475 269.816 55.4398 270.524 54.7107C278.393 47.075 304.749 31.4393 316.121 40.1404ZM271.324 66.5661C265.095 74.1395 261.417 82.2981 259.442 91.8552C266.5 86.5964 273.473 81.2307 280.442 75.8552C278.881 77.8981 277.318 79.9395 275.754 81.9802C275.319 82.55 274.884 83.1197 274.436 83.7068C272.225 86.5885 269.981 89.4082 267.61 92.1599C265.233 94.5384 265.233 94.5384 265.442 96.8552C279.079 94.2326 290.138 87.0667 298.254 75.8552C299.338 74.2026 300.403 72.5368 301.442 70.8552C301.843 70.221 302.243 69.5868 302.657 68.9333C306.158 62.7494 307.16 55.7702 308.442 48.8552C293.863 48.2439 281.103 56.3126 271.324 66.5661Z" fill="#368813"/>
<path d="M137.442 163.855C138.762 163.855 140.082 163.855 141.442 163.855C141.442 164.515 141.442 165.175 141.442 165.855C141.937 165.69 142.432 165.525 142.942 165.355C146.476 164.648 149.839 164.795 153.442 164.855C154.327 167.333 154.558 168.516 153.692 171.043C152.442 172.855 152.442 172.855 149.442 173.855C149.112 172.205 148.782 170.555 148.442 168.855C141.795 172.36 137.943 176.543 133.422 182.527C131.442 184.855 131.442 184.855 128.442 185.855C127.782 185.525 127.122 185.195 126.442 184.855C127.874 179.974 129.946 175.894 132.504 171.543C132.868 170.91 133.232 170.278 133.608 169.627C136.282 165.015 136.282 165.015 137.442 163.855Z" fill="#010101"/>
<path d="M250.442 88.8552C250.772 88.8552 251.102 88.8552 251.442 88.8552C251.609 94.336 251.77 99.8169 251.924 105.298C251.977 107.162 252.032 109.027 252.09 110.891C252.172 113.572 252.247 116.252 252.32 118.933C252.361 120.182 252.361 120.182 252.402 121.456C252.422 122.236 252.443 123.017 252.463 123.821C252.483 124.505 252.503 125.189 252.524 125.894C252.436 127.998 252.018 129.834 251.442 131.855C254.412 131.36 254.412 131.36 257.442 130.855C257.256 130.133 257.07 129.411 256.879 128.668C256.422 125.727 256.706 123.714 257.442 120.855C257.772 120.855 258.102 120.855 258.442 120.855C258.495 122.647 258.534 124.438 258.567 126.23C258.59 127.228 258.613 128.226 258.637 129.254C258.442 131.855 258.442 131.855 256.442 133.855C253.942 134.105 253.942 134.105 251.442 133.855C248.916 131.329 249.205 129.764 249.189 126.319C249.197 125.564 249.204 124.809 249.211 124.031C249.212 123.251 249.212 122.472 249.212 121.669C249.216 120.015 249.223 118.361 249.236 116.708C249.254 114.195 249.256 111.683 249.256 109.17C249.261 107.561 249.267 105.952 249.274 104.344C249.275 103.598 249.276 102.853 249.277 102.086C249.317 97.5819 249.709 93.3005 250.442 88.8552Z" fill="#3D7D21"/>
<path d="M193.442 112.855C200.372 112.855 207.302 112.855 214.442 112.855C214.112 114.505 213.782 116.155 213.442 117.855C214.762 118.515 216.082 119.175 217.442 119.855C217.442 120.515 217.442 121.175 217.442 121.855C215.136 121.168 212.831 120.477 210.528 119.781C208.328 119.121 206.124 118.474 203.918 117.836C202.75 117.492 201.582 117.147 200.379 116.793C199.274 116.472 198.17 116.151 197.031 115.82C194.442 114.855 194.442 114.855 193.442 112.855Z" fill="#398019"/>
<path d="M162.262 40.6599C163.353 40.6831 164.443 40.7063 165.567 40.7302C166.662 40.7483 167.758 40.7663 168.887 40.7849C169.73 40.8081 170.573 40.8313 171.442 40.8552C171.772 41.8452 172.102 42.8352 172.442 43.8552C171.297 43.8243 171.297 43.8243 170.129 43.7927C167.34 43.7258 167.34 43.7258 164.442 44.8552C163.452 46.1237 163.452 46.1237 162.442 47.4177C161.782 48.2221 161.122 49.0265 160.442 49.8552C159.452 49.8552 158.462 49.8552 157.442 49.8552C157.317 46.4802 157.317 46.4802 157.442 42.8552C159.442 40.8552 159.442 40.8552 162.262 40.6599Z" fill="#358B0E"/>
<path d="M193.442 75.8552C197.982 77.3211 201.204 79.9005 204.754 82.9802C205.579 83.6821 205.579 83.6821 206.42 84.3982C207.766 85.5447 209.104 86.6992 210.442 87.8552C209.452 87.8552 208.462 87.8552 207.442 87.8552C206.102 88.1615 204.767 88.4897 203.442 88.8552C201.772 86.8785 200.106 84.899 198.442 82.9177C197.965 82.3538 197.488 81.7898 196.996 81.2087C193.442 76.9685 193.442 76.9685 193.442 75.8552Z" fill="#337416"/>
<path d="M280.442 75.8552C278.878 79.3776 276.747 82.1265 274.317 85.1052C273.592 85.9973 272.868 86.8893 272.121 87.8083C271.567 88.4838 271.013 89.1593 270.442 89.8552C270.112 89.1952 269.782 88.5352 269.442 87.8552C267.417 87.2031 267.417 87.2031 265.442 86.8552C267.562 85.0159 269.687 83.1837 271.817 81.3552C272.42 80.8306 273.023 80.3059 273.645 79.7654C278.215 75.8552 278.215 75.8552 280.442 75.8552Z" fill="#347915"/>
<path d="M258.442 154.855C259.762 154.855 261.082 154.855 262.442 154.855C261.692 161.605 261.692 161.605 259.442 163.855C256.817 163.98 256.817 163.98 254.442 163.855C255.5 160.452 256.451 157.842 258.442 154.855Z" fill="#010101"/>
<path d="M280.442 112.855C280.442 113.515 280.442 114.175 280.442 114.855C278.549 115.531 276.652 116.196 274.754 116.855C273.171 117.412 273.171 117.412 271.555 117.98C268.658 118.794 266.425 119.032 263.442 118.855C264.16 116.898 264.16 116.898 265.442 114.855C267.535 114.281 267.535 114.281 269.942 114.168C273.736 113.952 276.636 112.855 280.442 112.855Z" fill="#34870F"/>
<path d="M270.442 87.8551C269.192 91.5083 268.771 92.6358 265.442 94.8551C265.442 94.1951 265.442 93.5351 265.442 92.8551C264.452 93.1851 263.462 93.5151 262.442 93.8551C262.442 93.1951 262.442 92.5351 262.442 91.8551C261.782 91.5251 261.122 91.1951 260.442 90.8551C263.575 87.2513 265.849 86.3242 270.442 87.8551Z" fill="#348510"/>
<path d="M173.442 85.8552C175.379 86.2302 175.379 86.2302 177.442 86.8552C177.772 87.5152 178.102 88.1752 178.442 88.8552C180.092 88.8552 181.742 88.8552 183.442 88.8552C183.442 90.1752 183.442 91.4952 183.442 92.8552C184.762 93.5152 186.082 94.1752 187.442 94.8552C187.112 95.5152 186.782 96.1752 186.442 96.8552C183.259 95.4247 180.862 93.6651 178.254 91.3552C177.212 90.4426 177.212 90.4426 176.149 89.5115C174.442 87.8552 174.442 87.8552 173.442 85.8552Z" fill="#3A7E1C"/>
<path d="M236.442 47.8552C237.102 48.1852 237.762 48.5152 238.442 48.8552C238.442 51.4952 238.442 54.1352 238.442 56.8552C238.112 56.8552 237.782 56.8552 237.442 56.8552C236.782 61.4752 236.122 66.0952 235.442 70.8552C234.452 71.1852 233.462 71.5152 232.442 71.8552C232.442 71.1952 232.442 70.5352 232.442 69.8552C233.102 69.8552 233.762 69.8552 234.442 69.8552C234.502 68.7698 234.563 67.6844 234.625 66.5662C234.71 65.1208 234.794 63.6755 234.879 62.2302C234.918 61.5174 234.958 60.8045 234.998 60.0701C235.245 55.9372 235.676 51.9325 236.442 47.8552Z" fill="#306E15"/>
<path d="M221.442 52.8552C222.432 52.8552 223.422 52.8552 224.442 52.8552C224.496 54.2923 224.535 55.73 224.567 57.1677C224.59 57.9682 224.613 58.7687 224.637 59.5935C224.442 61.8552 224.442 61.8552 222.442 64.8552C222.112 63.2052 221.782 61.5552 221.442 59.8552C220.782 59.8552 220.122 59.8552 219.442 59.8552C220.317 53.9802 220.317 53.9802 221.442 52.8552Z" fill="#358D0D"/>
<path d="M191.442 99.8552C193.933 99.786 196.09 99.7592 198.504 100.418C200.798 100.936 202.228 100.567 204.442 99.8552C204.442 101.505 204.442 103.155 204.442 104.855C199.595 104.264 195.834 102.876 191.442 100.855C191.442 100.525 191.442 100.195 191.442 99.8552Z" fill="#38801C"/>
<path d="M257.442 120.855C257.772 120.855 258.102 120.855 258.442 120.855C258.496 122.647 258.534 124.438 258.567 126.23C258.59 127.228 258.613 128.226 258.637 129.254C258.442 131.855 258.442 131.855 256.442 133.855C253.942 134.105 253.942 134.105 251.442 133.855C250.782 133.195 250.122 132.535 249.442 131.855C249.772 130.865 250.102 129.875 250.442 128.855C250.772 129.515 251.102 130.175 251.442 130.855C253.422 130.855 255.402 130.855 257.442 130.855C257.163 129.772 257.163 129.772 256.879 128.668C256.422 125.727 256.706 123.714 257.442 120.855Z" fill="#397A17"/>
<path d="M193.442 112.855C196.742 113.185 200.042 113.515 203.442 113.855C203.772 114.845 204.102 115.835 204.442 116.855C205.102 117.185 205.762 117.515 206.442 117.855C205.024 117.57 203.607 117.277 202.192 116.98C201.403 116.818 200.614 116.655 199.801 116.488C197.473 115.864 195.551 115.007 193.442 113.855C193.442 113.525 193.442 113.195 193.442 112.855Z" fill="#316E18"/>
<path d="M159.442 38.8551C164.593 38.7647 169.361 39.0083 174.442 39.8551C174.442 40.1851 174.442 40.5151 174.442 40.8551C172.852 40.946 172.852 40.946 171.231 41.0387C169.843 41.1231 168.455 41.2078 167.067 41.2926C166.368 41.3319 165.669 41.3713 164.949 41.4118C161.068 41.5979 161.068 41.5979 157.442 42.8551C158.102 41.5351 158.762 40.2151 159.442 38.8551Z" fill="#3D7B22"/>
<path d="M296.442 87.8552C297.432 88.1852 298.422 88.5152 299.442 88.8552C298.155 90.0278 296.862 91.1932 295.567 92.3552C294.847 93.0049 294.128 93.6546 293.387 94.324C291.442 95.8552 291.442 95.8552 289.442 95.8552C289.772 94.5352 290.102 93.2152 290.442 91.8552C291.762 91.8552 293.082 91.8552 294.442 91.8552C294.442 90.8652 294.442 89.8752 294.442 88.8552C295.102 88.5252 295.762 88.1952 296.442 87.8552Z" fill="#2E7C0D"/>
<path d="M299.442 80.8552C300.442 83.8552 300.442 83.8552 300.442 87.8552C298.792 87.5252 297.142 87.1952 295.442 86.8552C295.754 84.9802 295.754 84.9802 296.442 82.8552C297.432 82.1952 298.422 81.5352 299.442 80.8552Z" fill="#388918"/>
<path d="M164.442 72.8552C165.102 72.8552 165.762 72.8552 166.442 72.8552C166.442 73.5152 166.442 74.1752 166.442 74.8552C168.092 74.5252 169.742 74.1952 171.442 73.8552C171.442 74.8452 171.442 75.8352 171.442 76.8552C170.782 76.8552 170.122 76.8552 169.442 76.8552C169.772 78.5052 170.102 80.1552 170.442 81.8552C167.361 79.0824 165.754 76.792 164.442 72.8552Z" fill="#398019"/>
<path d="M208.442 74.8552C209.102 74.8552 209.762 74.8552 210.442 74.8552C210.772 76.1752 211.102 77.4952 211.442 78.8552C212.102 78.8552 212.762 78.8552 213.442 78.8552C214.102 80.5052 214.762 82.1552 215.442 83.8552C214.452 84.1852 213.462 84.5152 212.442 84.8552C211.122 81.5552 209.802 78.2552 208.442 74.8552Z" fill="#397919"/>
<path d="M280.442 75.8552C278.999 79.2211 277.109 81.3657 274.442 83.8552C274.442 83.1952 274.442 82.5352 274.442 81.8552C273.782 81.5252 273.122 81.1952 272.442 80.8552C278.192 75.8552 278.192 75.8552 280.442 75.8552Z" fill="#356816"/>
<path d="M186.692 50.2302C187.269 50.4365 187.847 50.6427 188.442 50.8552C188.772 52.1752 189.102 53.4952 189.442 54.8552C186.472 53.8652 183.502 52.8752 180.442 51.8552C184.442 49.8552 184.442 49.8552 186.692 50.2302Z" fill="#398117"/>
<path d="M280.442 112.855C280.442 113.515 280.442 114.175 280.442 114.855C274.997 116.34 274.997 116.34 269.442 117.855C271.578 113.583 276.033 112.855 280.442 112.855Z" fill="#2B6D0F"/>
<path d="M214.442 112.855C214.112 114.175 213.782 115.495 213.442 116.855C212.452 116.195 211.462 115.535 210.442 114.855C208.11 114.776 205.773 114.767 203.442 114.855C203.442 114.525 203.442 114.195 203.442 113.855C207.176 112.977 210.609 112.766 214.442 112.855Z" fill="#3F8222"/>
<path d="M304.442 78.8552C305.102 79.1852 305.762 79.5152 306.442 79.8552C304.792 82.1652 303.142 84.4752 301.442 86.8552C300.782 85.5352 300.122 84.2152 299.442 82.8552C301.092 81.5352 302.742 80.2152 304.442 78.8552Z" fill="#2F7E10"/>
<path d="M210.442 113.855C210.772 114.515 211.102 115.175 211.442 115.855C212.102 116.185 212.762 116.515 213.442 116.855C209.963 118.015 207.983 117.563 204.442 116.855C204.442 116.195 204.442 115.535 204.442 114.855C206.422 114.525 208.402 114.195 210.442 113.855Z" fill="#378B0F"/>
<path d="M221.442 86.8552C222.942 87.9177 222.942 87.9177 224.442 89.8552C224.629 93.5427 224.629 93.5427 224.442 96.8552C222.442 93.8552 222.442 93.8552 222.442 90.8552C221.782 90.5252 221.122 90.1952 220.442 89.8552C220.772 88.8652 221.102 87.8752 221.442 86.8552Z" fill="#3D861D"/>
<path d="M251.442 62.8552C252.102 63.1852 252.762 63.5152 253.442 63.8552C252.782 66.1652 252.122 68.4752 251.442 70.8552C250.452 70.8552 249.462 70.8552 248.442 70.8552C248.751 70.0921 249.06 69.329 249.379 68.5427C250.121 66.6673 250.804 64.7684 251.442 62.8552Z" fill="#3C8E17"/>
<path d="M274.442 61.8552C275.102 62.1852 275.762 62.5152 276.442 62.8552C273.472 65.3302 273.472 65.3302 270.442 67.8552C269.782 67.5252 269.122 67.1952 268.442 66.8552C268.772 65.8652 269.102 64.8752 269.442 63.8552C271.442 63.2302 271.442 63.2302 273.442 62.8552C273.772 62.5252 274.102 62.1952 274.442 61.8552Z" fill="#2C7C0B"/>
<path d="M238.442 56.8552C238.772 56.8552 239.102 56.8552 239.442 56.8552C239.442 60.8152 239.442 64.7752 239.442 68.8552C238.452 68.5252 237.462 68.1952 236.442 67.8552C237.102 64.2252 237.762 60.5952 238.442 56.8552Z" fill="#3A7C1C"/>
<path d="M159.442 59.8552C160.432 60.1852 161.422 60.5152 162.442 60.8552C162.772 63.1652 163.102 65.4752 163.442 67.8552C162.452 68.3502 162.452 68.3502 161.442 68.8552C160.782 65.8852 160.122 62.9152 159.442 59.8552Z" fill="#3C7918"/>
<path d="M285.508 51.7576C286.744 51.775 286.744 51.775 288.004 51.7927C288.83 51.8017 289.657 51.8108 290.508 51.8201C291.146 51.8317 291.784 51.8433 292.442 51.8552C289.817 53.6048 288.476 54.4759 285.442 54.8552C284.452 54.1952 283.462 53.5352 282.442 52.8552C283.442 51.8552 283.442 51.8552 285.508 51.7576Z" fill="#30840A"/>
</svg>
